<?xml version="1.0" encoding="utf-8"?>
<!-- Generator: Adobe Illustrator 23.0.5, SVG Export Plug-In . SVG Version: 6.00 Build 0)  -->
<svg version="1.1" id="Layer_1" xmlns="http://www.w3.org/2000/svg" xmlns:xlink="http://www.w3.org/1999/xlink" x="0px" y="0px"
	 viewBox="0 0 20 20" style="enable-background:new 0 0 20 20;" xml:space="preserve">
<style type="text/css">
	.st0{fill:#008000;}
	.st1{fill:#233647;stroke:#FFFFFF;stroke-width:0.9879;stroke-miterlimit:10;}
	.st2{enable-background:new    ;}
	.st3{fill:#FFFFFF;}
</style>
<title>euro_up</title>
<g>
	<polygon class="st0" points="13.3,0.4 20,9.1 16.9,9.1 16.9,19.1 8.6,19.1 8.6,6.5 	"/>
	<circle class="st1" cx="7.3" cy="12.3" r="6.8"/>
	<g class="st2">
		<path class="st3" d="M12.2,10.4c0,0.5-0.3,1-0.8,1.4c-0.3,0.3-0.8,0.6-1.5,0.9c0.3,0.5,0.4,0.9,0.4,1.3c0,0.8-0.5,1.4-1.5,1.7
			c-0.7,0.3-1.6,0.4-2.5,0.4H3.6l1.9-5.4h1.9l-1.6,4.5H6c0.6,0,1.1-0.1,1.6-0.2c0.6-0.2,0.9-0.6,0.9-1c0-0.2-0.1-0.3-0.2-0.6
			c-0.1-0.2-0.2-0.4-0.2-0.5v-0.1c0.1-0.2,0.3-0.3,0.6-0.5c0.4-0.2,0.7-0.4,0.9-0.6c0.3-0.3,0.5-0.6,0.5-1c0-0.5-0.4-0.8-1.2-0.8
			H2.8l0.8-1.3h6.1c0.8,0,1.4,0.1,1.8,0.3C12,9.3,12.2,9.8,12.2,10.4z"/>
	</g>
</g>
</svg>
