<?xml version="1.0" encoding="utf-8"?>
<!-- Generator: Adobe Illustrator 23.0.5, SVG Export Plug-In . SVG Version: 6.00 Build 0)  -->
<svg version="1.1" id="Layer_1" xmlns="http://www.w3.org/2000/svg" xmlns:xlink="http://www.w3.org/1999/xlink" x="0px" y="0px"
	 viewBox="0 0 20 20" style="enable-background:new 0 0 20 20;" xml:space="preserve">
<style type="text/css">
	.st0{display:none;}
	.st1{fill:#008000;}
	.st2{fill:#233647;stroke:#FFFFFF;stroke-width:0.9879;stroke-miterlimit:10;}
	.st3{enable-background:new    ;}
	.st4{fill:#FFFFFF;}
</style>
<title>euro_up</title>
<g class="st0">
	
		<text transform="matrix(0.8038 -0.595 0.595 0.8038 -16.0401 13.5496)" style="display:inline;fill:#FFFFFF; font-family:'Magneto-Bold'; font-size:8.7082px;">S</text>
</g>
<g>
	<polygon class="st1" points="13.3,0.4 20,9.1 16.9,9.1 16.9,19.1 8.6,19.1 8.6,6.5 	"/>
	<circle class="st2" cx="7.3" cy="12.3" r="6.8"/>
	<g>
		<g class="st3">
			<path class="st4" d="M10,8c0.2,0.2,0.2,0.5,0.2,0.8c-0.1,0.3-0.2,0.5-0.5,0.7C9.4,9.7,9.2,9.8,8.9,9.8c-0.3,0-0.5-0.2-0.7-0.4
				c0-0.1-0.1-0.1-0.1-0.2C7.9,9.2,7.9,9.3,7.9,9.3c-0.3,0.3-0.4,0.5-0.2,0.8c0.1,0.1,0.5,0.4,1,0.8c0.6,0.4,1,0.7,1.2,1
				c0.5,0.6,0.5,1.3,0,2.2c-0.3,0.6-0.9,1.2-1.6,1.7c-0.6,0.5-1.3,0.8-1.9,1C5.6,17,5,16.8,4.6,16.3c-0.6-0.7-0.2-1.6,1.1-2.5l1.3-1
				l0.7,0.4l-1,0.8c-0.3,0.2-0.4,0.4-0.6,0.6c-0.2,0.3-0.2,0.6,0,0.8c0.2,0.3,0.5,0.3,1,0.2c0.3-0.1,0.7-0.2,1-0.5
				c0.4-0.3,0.6-0.6,0.8-1c0.2-0.4,0.1-0.8-0.2-1.1c-0.2-0.2-0.5-0.5-1.1-0.9c-0.5-0.3-0.9-0.6-1.1-0.9c-0.6-0.8-0.2-1.8,1.2-2.8
				l0.8-0.6C8.7,7.7,9,7.6,9.3,7.7C9.6,7.7,9.8,7.8,10,8z"/>
		</g>
	</g>
</g>
</svg>
