<?xml version="1.0" encoding="utf-8"?>
<!-- Generator: Adobe Illustrator 23.0.5, SVG Export Plug-In . SVG Version: 6.00 Build 0)  -->
<svg version="1.1" id="Layer_1" xmlns="http://www.w3.org/2000/svg" xmlns:xlink="http://www.w3.org/1999/xlink" x="0px" y="0px"
	 viewBox="0 0 20 20" style="enable-background:new 0 0 20 20;" xml:space="preserve">
<style type="text/css">
	.st0{fill:#BD3A3A;}
	.st1{fill:#233647;stroke:#FFFFFF;stroke-width:0.9879;stroke-miterlimit:10;}
	.st2{enable-background:new    ;}
	.st3{fill:#FFFFFF;}
</style>
<g>
	<polygon class="st0" points="8.6,13.5 8.6,0.9 16.9,0.9 16.9,10.9 20,10.9 13.3,19.6 	"/>
	<circle class="st1" cx="7.3" cy="7.7" r="6.8"/>
	<g>
		<g class="st2">
			<path class="st3" d="M10,3.4c0.2,0.2,0.2,0.5,0.2,0.8c-0.1,0.3-0.2,0.5-0.5,0.7C9.4,5.1,9.2,5.2,8.9,5.1C8.6,5.1,8.3,5,8.2,4.8
				c0-0.1-0.1-0.1-0.1-0.2C7.9,4.6,7.9,4.6,7.9,4.7C7.5,4.9,7.4,5.2,7.7,5.5c0.1,0.1,0.5,0.4,1,0.8c0.6,0.4,1,0.7,1.2,1
				c0.5,0.6,0.5,1.3,0,2.2C9.6,10,9,10.6,8.3,11.1c-0.6,0.5-1.3,0.8-1.9,1c-0.9,0.3-1.5,0.1-1.9-0.4C4.1,11,4.4,10.1,5.7,9.2l1.3-1
				l0.7,0.4l-1,0.8C6.4,9.5,6.2,9.7,6.1,10c-0.2,0.3-0.2,0.6,0,0.8C6.3,11,6.6,11.1,7,11c0.3-0.1,0.7-0.2,1-0.5
				c0.4-0.3,0.6-0.6,0.8-1c0.2-0.4,0.1-0.8-0.2-1.1C8.4,8.2,8,7.9,7.5,7.6C7,7.2,6.6,7,6.4,6.7C5.8,5.9,6.2,4.9,7.6,3.9l0.8-0.6
				C8.7,3.1,9,3,9.3,3C9.6,3.1,9.8,3.2,10,3.4z"/>
		</g>
	</g>
</g>
</svg>
