<?xml version="1.0" encoding="utf-8"?>
<!-- Generator: Adobe Illustrator 23.0.5, SVG Export Plug-In . SVG Version: 6.00 Build 0)  -->
<svg version="1.1" id="Layer_1" xmlns="http://www.w3.org/2000/svg" xmlns:xlink="http://www.w3.org/1999/xlink" x="0px" y="0px"
	 viewBox="0 0 20 20" style="enable-background:new 0 0 20 20;" xml:space="preserve">
<style type="text/css">
	.st0{fill:#BD3A3A;}
	.st1{fill:#233647;stroke:#FFFFFF;stroke-width:0.9879;stroke-miterlimit:10;}
	.st2{fill:#FFFFFF;}
</style>
<g>
	<polygon class="st0" points="8.6,13.5 8.6,0.9 16.9,0.9 16.9,10.9 20,10.9 13.3,19.6 	"/>
	<circle class="st1" cx="7.3" cy="7.7" r="6.8"/>
	<g>
		<path class="st2" d="M12.1,5.7c0,0.5-0.3,1-0.8,1.4C11,7.4,10.5,7.7,9.8,8c0.3,0.5,0.4,0.9,0.4,1.3c0,0.8-0.5,1.4-1.5,1.7
			c-0.7,0.3-1.6,0.4-2.5,0.4H3.4l1.9-5.4h1.9l-1.6,4.5h0.3c0.6,0,1.1-0.1,1.6-0.2c0.6-0.2,0.9-0.6,0.9-1c0-0.2-0.1-0.3-0.2-0.6
			C8,8.6,8,8.4,8,8.3c0,0,0-0.1,0-0.1C8,8.1,8.2,7.9,8.5,7.8C9,7.6,9.3,7.4,9.5,7.2c0.3-0.3,0.5-0.6,0.5-1c0-0.5-0.4-0.8-1.2-0.8
			H2.6l0.8-1.3h6.1c0.8,0,1.4,0.1,1.8,0.3C11.8,4.6,12.1,5.1,12.1,5.7z"/>
	</g>
</g>
<g>
</g>
</svg>
