<svg xmlns="http://www.w3.org/2000/svg" viewBox="0 0 30 26.92"><defs><style>.cls-1{fill:#fff;}</style></defs><g id="Layer_2" data-name="Layer 2"><g id="Layer_1-2" data-name="Layer 1"><path class="cls-1" d="M28.08,3.85H1.92A1.93,1.93,0,0,1,1.92,0H28.08a1.93,1.93,0,0,1,0,3.85Z"/><path class="cls-1" d="M17.31,15.38H1.92a1.92,1.92,0,0,1,0-3.84H17.31a1.92,1.92,0,1,1,0,3.84Z"/><path class="cls-1" d="M28.08,26.92H1.92a1.92,1.92,0,0,1,0-3.84H28.08a1.92,1.92,0,0,1,0,3.84Z"/><path class="cls-1" d="M28.08,15.38H25a1.92,1.92,0,0,1,0-3.84h3.08a1.92,1.92,0,1,1,0,3.84Z"/></g></g></svg>