<?xml version="1.0" encoding="utf-8"?>
<!-- Generator: Adobe Illustrator 25.2.0, SVG Export Plug-In . SVG Version: 6.00 Build 0)  -->
<svg version="1.1" id="Layer_1" xmlns="http://www.w3.org/2000/svg" xmlns:xlink="http://www.w3.org/1999/xlink" x="0px" y="0px"
	 viewBox="0 0 16.3 14.4" style="enable-background:new 0 0 16.3 14.4;" xml:space="preserve">
<style type="text/css">
	.st0{opacity:0.3;fill-rule:evenodd;clip-rule:evenodd;fill:#3A3D99;enable-background:new    ;}
	.st1{fill-rule:evenodd;clip-rule:evenodd;fill:#3A3D99;}
</style>
<g id="Layer_2_1_">
	<g id="Layer_1-2">
		<path id="Rectangle-62-Copy" class="st0" d="M10.4,0L10.4,0c0.7,0,1.4,0.6,1.4,1.4v11.7c0,0.8-0.6,1.4-1.4,1.4l0,0
			c-0.8,0-1.4-0.6-1.4-1.3l0,0V1.4C9,0.6,9.6,0,10.4,0L10.4,0z"/>
		<path id="Rectangle-62-Copy-2" class="st1" d="M5.9,4.5L5.9,4.5c0.7,0,1.4,0.6,1.4,1.3l0,0V13c0,0.7-0.6,1.4-1.3,1.4l0,0l0,0
			c-0.8,0-1.4-0.6-1.4-1.4V5.9C4.5,5.1,5.1,4.5,5.9,4.5z"/>
		<path id="Rectangle-62-Copy-4" class="st1" d="M14.9,6.3L14.9,6.3c0.7,0,1.4,0.6,1.4,1.3l0,0V13c0,0.7-0.6,1.4-1.3,1.4l0,0l0,0
			c-0.8,0-1.4-0.6-1.4-1.4V7.7C13.5,6.9,14.1,6.3,14.9,6.3z"/>
		<path id="Rectangle-62-Copy-3" class="st1" d="M1.4,8.1L1.4,8.1c0.7,0,1.4,0.6,1.4,1.3l0,0V13c0,0.8-0.6,1.4-1.4,1.4l0,0
			C0.7,14.4,0,13.8,0,13V9.5C0,8.7,0.6,8.1,1.4,8.1z"/>
	</g>
</g>
</svg>
