<svg xmlns="http://www.w3.org/2000/svg" viewBox="0 0 20 13.35"><defs><style>.cls-1{fill:#fff;}</style></defs><g id="Layer_2" data-name="Layer 2"><g id="Layer_1-2" data-name="Layer 1"><path class="cls-1" d="M19.75,3.47,16.24.1a.35.35,0,0,0-.6.25V2.13a.35.35,0,0,1-.35.35h-8a.43.43,0,0,0-.47.36V5.29a.43.43,0,0,0,.47.36h8a.35.35,0,0,1,.35.35V7.77a.36.36,0,0,0,.6.26l3.51-3.37A.84.84,0,0,0,19.75,3.47Z"/><path class="cls-1" d="M4.36,7.35V5.58a.35.35,0,0,0-.6-.25L.25,8.7a.83.83,0,0,0,0,1.18l3.51,3.37a.35.35,0,0,0,.6-.25V11.23a.36.36,0,0,1,.35-.36h8c.26,0,.47-.16.47-.35V8.06c0-.19-.21-.35-.47-.35h-8A.36.36,0,0,1,4.36,7.35Z"/></g></g></svg>