<svg xmlns="http://www.w3.org/2000/svg" viewBox="0 0 20 19.95"><defs><style>.cls-1,.cls-2{fill:#fbfbfb;}.cls-1{opacity:0.5;isolation:isolate;}</style></defs><g id="Layer_2" data-name="Layer 2"><g id="Layer_1-2" data-name="Layer 1"><path class="cls-1" d="M9.41,1.74A9.08,9.08,0,0,0,0,11.14a9.11,9.11,0,0,0,18.21-.59A9.16,9.16,0,0,0,9.41,1.74ZM8.74,13.46a2.6,2.6,0,0,1-2.25-2.25,2.69,2.69,0,0,1,3-3,2.59,2.59,0,0,1,2.25,2.25A2.69,2.69,0,0,1,8.74,13.46Z"/><path class="cls-2" d="M19.6,10.48H9.74a.28.28,0,0,1-.27-.27V.28c0-.2.13-.33.33-.26A10.46,10.46,0,0,1,20,10.21.45.45,0,0,1,19.6,10.48Z"/><path class="cls-2" d="M18.94,12.13a9.08,9.08,0,0,1-2.52,6.1c-.13.13-.33.13-.39,0l-5.9-5.9a.26.26,0,0,1,.2-.46h8.35C18.81,11.8,18.94,11.94,18.94,12.13Z"/></g></g></svg>