<svg xmlns="http://www.w3.org/2000/svg" viewBox="0 0 220 31.94"><defs><style>.cls-1{fill:#fff;}.cls-2{fill:#fab42c;}.cls-3{fill:#f9b42d;}.cls-4{opacity:0.4;}.cls-5{opacity:0.7;}</style></defs><g id="Layer_2" data-name="Layer 2"><g id="Layer_1-2" data-name="Layer 1"><path class="cls-1" d="M92.7,16.49A20.42,20.42,0,0,0,85,12.37a20,20,0,0,1-4-1.69A2,2,0,0,1,79.84,9a1.68,1.68,0,0,1,.38-1,2.92,2.92,0,0,1,1.2-.82,5.3,5.3,0,0,1,2-.34,3.66,3.66,0,0,1,2.63.83,2.68,2.68,0,0,1,.86,2.17.34.34,0,0,0,.34.34h7.79a.34.34,0,0,0,.34-.34,9.15,9.15,0,0,0-1.54-5.28,9.53,9.53,0,0,0-4.2-3.38,15.29,15.29,0,0,0-6-1.16,17.87,17.87,0,0,0-6.22,1.05A10,10,0,0,0,73,4.12a7.6,7.6,0,0,0-1.61,4.76,7.6,7.6,0,0,0,1.5,4.76,11.89,11.89,0,0,0,3.75,3.23A35.22,35.22,0,0,0,82,19.15a17.34,17.34,0,0,1,3.18,1.32,3.83,3.83,0,0,1,1.35,1.08,2.33,2.33,0,0,1,.34,1.32,1.79,1.79,0,0,1-.75,1.5A4,4,0,0,1,83.7,25,8.07,8.07,0,0,1,81,24.63a2.5,2.5,0,0,1-1.46-1.24A5,5,0,0,1,79,20.92a.34.34,0,0,0-.34-.34h-7.8a.34.34,0,0,0-.33.34,9.77,9.77,0,0,0,1.91,6.18,11.25,11.25,0,0,0,4.91,3.6,18,18,0,0,0,6.41,1.12,16.76,16.76,0,0,0,6.11-1A8.8,8.8,0,0,0,94,27.74a8.18,8.18,0,0,0,1.46-4.87A8.58,8.58,0,0,0,92.7,16.49Z"/><path class="cls-1" d="M69.83,24.52H56.68L70.1,5c0-.08.07-.11.07-.19v-4a.34.34,0,0,0-.34-.34H52.67l-3.45,7H59.3L45.77,26.88c0,.07-.08.11-.08.18v4.05a.34.34,0,0,0,.34.34H69.87a.34.34,0,0,0,.34-.34V24.85A.4.4,0,0,0,69.83,24.52Z"/><path class="cls-1" d="M26.05,14.28H13.46a.34.34,0,0,0-.34.34v5.51a.34.34,0,0,0,.34.34h4.46v3.6a5,5,0,0,1-1.24.56,8,8,0,0,1-2.29.3A5.07,5.07,0,0,1,10,23c-.9-1.32-1.39-3.42-1.39-6.26V15.14A11.25,11.25,0,0,1,10,9a4.09,4.09,0,0,1,3.56-2h0l11.25.45-3.49-7L13.57,0h-.19a13.35,13.35,0,0,0-6.9,1.8A12.29,12.29,0,0,0,1.72,7.05,18.41,18.41,0,0,0,0,15.22v1.57A18.23,18.23,0,0,0,1.69,25a12,12,0,0,0,4.79,5.21,14.7,14.7,0,0,0,7.31,1.76,23.22,23.22,0,0,0,5.59-.64,18.27,18.27,0,0,0,4.24-1.57,11,11,0,0,0,2.69-2,.33.33,0,0,0,.12-.23V14.62A.4.4,0,0,0,26.05,14.28Z"/><path class="cls-1" d="M50.9.6a.33.33,0,0,0-.3-.15H42.25a.35.35,0,0,0-.34.22L37,12.52,32,.67a.33.33,0,0,0-.34-.22H23.32A.42.42,0,0,0,23,.6a.27.27,0,0,0,0,.34l9.63,19.49v9.48l8.62-3.67V20.43L50.9.94A.27.27,0,0,0,50.9.6Z"/><path class="cls-2" d="M32.65,30.74V31s0,.49.34.49H40.9c.33,0,.33-.49.33-.49V27.06Z"/><path class="cls-3" d="M112.38,15.67l-7.61-7.61V24l7.61-7.61A.56.56,0,0,0,112.38,15.67Z"/><g class="cls-4"><path class="cls-1" d="M126.17,4.09h1.43l-2.14,10H124l-2.14-10h1.43l1,5.36.37,2.51.38-2.51Z"/><path class="cls-1" d="M134.57,7.23v3.64c0,2-.71,3.34-2.77,3.34S129,12.93,129,10.87V7.23c0-2.06.72-3.26,2.78-3.26S134.57,5.25,134.57,7.23Zm-4.08-.33v4.35c0,1.08.26,1.79,1.35,1.79s1.34-.71,1.34-1.79V6.9c0-1.09-.26-1.73-1.34-1.73S130.49,5.81,130.49,6.9Z"/><path class="cls-1" d="M142.26,7.23v3.64c0,2-.72,3.34-2.78,3.34s-2.77-1.28-2.77-3.34V7.23c0-2.06.71-3.26,2.77-3.26S142.26,5.25,142.26,7.23Zm-4.09-.33v4.35c0,1.08.26,1.79,1.35,1.79s1.35-.71,1.35-1.79V6.9c0-1.09-.26-1.73-1.35-1.73S138.17,5.81,138.17,6.9Z"/><path class="cls-1" d="M148.33,9.11l1.61,5h-1.42l-1.47-4.65H146v4.65h-1.43v-10h1.8c2.06,0,3.23.71,3.23,2.69A2.15,2.15,0,0,1,148.33,9.11Zm-2-3.94H146V8.4h.38c1.16,0,1.8-.45,1.8-1.62S147.54,5.17,146.38,5.17Z"/></g><g class="cls-5"><path class="cls-1" d="M159.16,5.36h-1.8v8.77h-1.42V5.36h-1.8V4.09h5Z"/><path class="cls-1" d="M162.39,9.45V13h2.51v1.09H161v-10h3.94V5.17h-2.51V8.4h1.79V9.48h-1.79Z"/><path class="cls-1" d="M169.43,14.21c-2.17,0-2.77-1.54-2.77-3.68V7.68c0-2.17.6-3.67,2.77-3.67s2.66,1.31,2.66,3.34h-1.42c0-1.24,0-2.14-1.24-2.14s-1.31.94-1.31,2.14V11c0,1.08.23,2.13,1.31,2.13S170.67,12,170.67,11v-.38h1.42V11C172.09,12.89,171.42,14.21,169.43,14.21Z"/><path class="cls-1" d="M175.54,9.45v4.64h-1.42v-10h1.42V8.4h2.51V4.09h1.43v10h-1.43V9.48l-2.51,0Z"/><path class="cls-1" d="M183.45,7.42v6.67H182v-10h1.08l2.52,6.22V4.09h1.42v10h-1Z"/><path class="cls-1" d="M191,4.09v10H189.6v-10Z"/><path class="cls-1" d="M195.9,5.17a1,1,0,0,0-1.09,1.09,1.87,1.87,0,0,0,.71,1.42l1.8,1.43a3.5,3.5,0,0,1,1.43,2.77,2.27,2.27,0,0,1-2.52,2.36c-1.87,0-2.77-1.2-2.84-3l1.42-.37c0,1.05.34,2.13,1.42,2.13A1,1,0,0,0,197.32,12a2.21,2.21,0,0,0-1.09-1.8l-1.79-1.43a2.92,2.92,0,0,1-1.09-2.32A2.32,2.32,0,0,1,195.86,4a2.59,2.59,0,0,1,2.85,2.63L197.28,7C197.28,6,196.91,5.17,195.9,5.17Z"/><path class="cls-1" d="M203.47,14.21c-2.18,0-2.77-1.54-2.77-3.68V7.68c0-2.17.59-3.67,2.77-3.67,2,0,2.66,1.31,2.66,3.34h-1.42c0-1.24,0-2.14-1.24-2.14s-1.31.94-1.31,2.14V11c0,1.08.22,2.13,1.31,2.13S204.71,12,204.71,11v-.38h1.42V11C206.13,12.89,205.49,14.21,203.47,14.21Z"/><path class="cls-1" d="M209.62,9.45v4.64h-1.43v-10h1.43V8.4h2.51V4.09h1.42v10h-1.42V9.48l-2.51,0Z"/><path class="cls-1" d="M217.49,9.45V13H220v1.09h-3.94v-10H220V5.17h-2.51V8.4h1.8V9.48h-1.8Z"/><path class="cls-1" d="M125.05,23.2H124v4.65h-1.42v-10h2.51c1.8,0,2.51,1.08,2.51,2.84A2.27,2.27,0,0,1,125.05,23.2Zm-.71-4.27H124v3.22h.38c1.2,0,1.8-.22,1.8-1.42C126.14,19.3,125.76,18.93,124.34,18.93Z"/><path class="cls-1" d="M133.22,22.87l1.61,5h-1.42L132,23.24h-1.09v4.65h-1.42v-10h1.8c2.06,0,3.22.72,3.22,2.7A2.24,2.24,0,0,1,133.22,22.87Zm-2-3.94h-.38v3.22h.38c1.16,0,1.79-.45,1.79-1.61S132.4,18.93,131.24,18.93Z"/><path class="cls-1" d="M141.77,21v3.64c0,2-.71,3.33-2.78,3.33s-2.77-1.27-2.77-3.33V21c0-2.06.71-3.26,2.77-3.26S141.77,19,141.77,21Zm-4.09-.34V25c0,1.09.27,1.8,1.35,1.8s1.35-.71,1.35-1.8V20.65c0-1.08-.26-1.72-1.35-1.72S137.68,19.57,137.68,20.65Z"/><path class="cls-1" d="M145.55,18.93v3.22h1.8v1.09h-1.8v4.65h-1.42v-10h3.94v1.09Z"/><path class="cls-1" d="M151.21,23.2v3.6h2.52v1.09h-3.94v-10h3.94v1.09h-2.52v3.22H153v1.09l-1.8,0Z"/><path class="cls-1" d="M157.92,18.93A1,1,0,0,0,156.84,20a1.87,1.87,0,0,0,.71,1.42l1.8,1.43a3.49,3.49,0,0,1,1.42,2.77A2.26,2.26,0,0,1,158.26,28c-1.87,0-2.77-1.2-2.85-3l1.43-.37c0,1,.33,2.13,1.42,2.13a1,1,0,0,0,1.09-1.09,2.21,2.21,0,0,0-1.09-1.79l-1.8-1.43a2.93,2.93,0,0,1-1.08-2.32,2.32,2.32,0,0,1,2.51-2.44,2.59,2.59,0,0,1,2.85,2.62l-1.43.38C159.31,19.75,158.94,18.93,157.92,18.93Z"/><path class="cls-1" d="M165.2,18.93A1,1,0,0,0,164.11,20a1.91,1.91,0,0,0,.71,1.42l1.8,1.43a3.5,3.5,0,0,1,1.43,2.77A2.27,2.27,0,0,1,165.53,28c-1.87,0-2.77-1.2-2.84-3l1.42-.37c0,1,.34,2.13,1.42,2.13a1,1,0,0,0,1.09-1.09,2.21,2.21,0,0,0-1.09-1.79l-1.8-1.43a3,3,0,0,1-1.08-2.32,2.32,2.32,0,0,1,2.51-2.44A2.58,2.58,0,0,1,168,20.35l-1.43.38C166.55,19.75,166.21,18.93,165.2,18.93Z"/><path class="cls-1" d="M171.68,17.84V27.89h-1.42v-10Z"/><path class="cls-1" d="M179.63,21v3.64c0,2-.71,3.33-2.78,3.33s-2.77-1.27-2.77-3.33V21c0-2.06.71-3.26,2.77-3.26S179.63,19,179.63,21Zm-4.09-.34V25c0,1.09.27,1.8,1.35,1.8s1.35-.71,1.35-1.8V20.65c0-1.08-.26-1.72-1.35-1.72S175.54,19.57,175.54,20.65Z"/><path class="cls-1" d="M183.41,21.22v6.67H182v-10h1.09l2.51,6.23V17.84H187V27.89h-1Z"/><path class="cls-1" d="M190.27,27.89h-1.42l2.14-10h1.42l2.14,10.05h-1.43l-.52-2.51h-1.8ZM191.7,20,191,24.29h1.42Z"/><path class="cls-1" d="M196.38,17.84h1.43v9h2.51v1.09h-3.94Z"/><path class="cls-1" d="M204.33,18.93A1,1,0,0,0,203.24,20a1.88,1.88,0,0,0,.72,1.42l1.8,1.43a3.49,3.49,0,0,1,1.42,2.77A2.26,2.26,0,0,1,204.67,28c-1.88,0-2.78-1.2-2.85-3l1.42-.37c0,1,.34,2.13,1.43,2.13a1,1,0,0,0,1.09-1.09,2.24,2.24,0,0,0-1.09-1.79l-1.8-1.43a2.94,2.94,0,0,1-1.09-2.32,2.32,2.32,0,0,1,2.51-2.44,2.58,2.58,0,0,1,2.85,2.62l-1.42.38C205.72,19.75,205.34,18.93,204.33,18.93Z"/></g></g></g></svg>