<?xml version="1.0" encoding="utf-8"?>
<!-- Generator: Adobe Illustrator 25.2.0, SVG Export Plug-In . SVG Version: 6.00 Build 0)  -->
<svg version="1.1" id="Layer_1" xmlns="http://www.w3.org/2000/svg" xmlns:xlink="http://www.w3.org/1999/xlink" x="0px" y="0px"
	 viewBox="0 0 18.8 22.9" style="enable-background:new 0 0 18.8 22.9;" xml:space="preserve">
<style type="text/css">
	.st0{fill:#3A3D99;}
	.st1{fill:#BD3A3A;}
</style>
<g>
	<path class="st0" d="M9.4,22.9c1.2,0,2.3-0.9,2.6-2.1c0.1-0.2-0.1-0.5-0.3-0.5h-0.1H7.3c-0.2,0-0.4,0.2-0.4,0.5v0.1
		C7.1,22.1,8.2,22.9,9.4,22.9z M18.8,17.5c0,0.6-0.5,1.1-1.1,1.1l0,0H1.1c-0.6,0-1.1-0.5-1.1-1.1l0,0c0-0.3,0.1-0.6,0.3-0.8l2-2
		c0.2-0.2,0.3-0.5,0.3-0.7V7.5c0-3.8,1.9-6.5,5.1-7.3l0.6-0.1C8.7,0,9.1,0,9.5,0c0.6,0,1.1,0.1,1.6,0.2s1.1,0.3,1.6,0.6
		c-1.7,1.1-2.1,3.4-1,5.1c1,1.5,2.9,2,4.5,1.3c0,0.1,0,0.2,0,0.3V14c0,0.3,0.1,0.6,0.3,0.8l2,2C18.7,17,18.8,17.2,18.8,17.5z"/>
	<path class="st1" d="M17.4,3.8c0,1.4-1.2,2.6-2.6,2.6s-2.6-1.2-2.6-2.6s1.2-2.6,2.6-2.6C16.2,1.2,17.4,2.3,17.4,3.8L17.4,3.8z"/>
</g>
</svg>
