<?xml version="1.0" encoding="utf-8"?>
<!-- Generator: Adobe Illustrator 25.2.0, SVG Export Plug-In . SVG Version: 6.00 Build 0)  -->
<svg version="1.1" id="Layer_1" xmlns="http://www.w3.org/2000/svg" xmlns:xlink="http://www.w3.org/1999/xlink" x="0px" y="0px"
	 viewBox="0 0 8 8" style="enable-background:new 0 0 8 8;" xml:space="preserve">
<style type="text/css">
	.st0{opacity:0.75;}
	.st1{fill:#323584;}
</style>
<g class="st0">
	<path class="st1" d="M5.9,5.2c1.1-1.4,0.7-3.5-0.7-4.5S1.7-0.1,0.6,1.3s-0.7,3.5,0.7,4.5c1.1,0.8,2.7,0.8,3.8,0l0,0v0.1l2,1.9
		C7.3,8,7.7,8,7.9,7.9s0.2-0.5,0-0.7L5.9,5.2L5.9,5.2L5.9,5.2z M6,3.3C6,4.8,4.8,6,3.3,6S0.5,4.8,0.5,3.3s1.2-2.8,2.8-2.8
		S6,1.7,6,3.3z"/>
</g>
</svg>
