<?xml version="1.0" standalone="no"?>
<!DOCTYPE svg PUBLIC "-//W3C//DTD SVG 1.1//EN" "http://www.w3.org/Graphics/SVG/1.1/DTD/svg11.dtd" >
<svg xmlns="http://www.w3.org/2000/svg" xmlns:xlink="http://www.w3.org/1999/xlink" version="1.1">
<metadata></metadata>
<defs>
<font id="annie_use_your_telescopeRg" horiz-adv-x="922" >
<font-face units-per-em="2048" ascent="1638" descent="-410" />
<missing-glyph horiz-adv-x="1024" />
<glyph horiz-adv-x="0" />
<glyph unicode="&#xd;" horiz-adv-x="1024" />
<glyph unicode=" "  horiz-adv-x="1024" />
<glyph unicode="&#x09;" horiz-adv-x="1024" />
<glyph unicode="&#xa0;" horiz-adv-x="1024" />
<glyph unicode="!" horiz-adv-x="422" d="M34 1734q0 24 5 33t17 11t33 3t53 11l152 -1228q-6 -4 -25 -9t-25 -5q-34 0 -52 12t-27 34t-13 53t-10 67q-2 12 -8 68t-16 139t-21 183t-22 199t-21 187t-16 146l-1 15t-1 32t-1 32t-1 17zM162 167q4 41 30 71t62 35t77 -21t73 -96q0 -28 -10 -56t-27 -51t-42 -38 t-55 -15q-64 38 -88 84t-20 87zM272 128q0 -12 5 -21t17 -5q24 6 24 26t-24 26q-12 2 -17 -6t-5 -20z" />
<glyph unicode="&#x22;" horiz-adv-x="576" d="M50 1612q0 34 5 84t22 97t47 80t80 33v-452q-72 0 -113 44t-41 114zM354 1688q0 22 1 51t10 55t27 44t54 18q0 -16 2 -54t4 -81t4 -81t4 -52q0 -6 9 -29t18 -48t17 -48t8 -29t-6 -14t-14 -17t-17 -15t-15 -6q-36 44 -57 80t-32 71t-14 71t-3 84z" />
<glyph unicode="#" horiz-adv-x="1472" d="M26 922v50l488 104v476q16 -4 30 -6q12 -4 24 -5t22 -5q6 -2 15 -9t17 -16t14 -17t6 -10v-358h230v410h76l48 -346l414 -12q-2 -4 -10 -17t-17 -28t-18 -26t-13 -13q-20 -6 -70 -16t-106 -21t-106 -20t-70 -13v-308h410v-50q-24 -4 -83 -18t-124 -31t-123 -32t-80 -21 q-10 -4 -23 -11t-25 -15t-20 -16t-8 -10v-460h-102v408l-22 -1t-53 -2t-67 -3t-63 -4t-40 -3t1 -1q-24 -70 -27 -129t1 -106t9 -80t-6 -48t-43 -11t-100 30v308h-334q16 32 65 60t103 49t96 33t44 12q12 56 11 112t-2 105t1 86t18 55h-388zM572 600q8 0 33 2t53 4t52 4t34 4 q12 2 29 9t33 16t28 16t12 11v346q-108 0 -165 -29t-81 -83t-26 -130t-2 -170z" />
<glyph unicode="$" horiz-adv-x="1280" d="M18 272l52 52q72 -70 142 -90t142 -15t151 20t173 15q0 8 1 25t3 35t2 35v25q-2 26 -9 92t-15 139t-16 139t-12 92q-6 42 -46 54t-97 15t-122 4t-120 18t-92 60t-37 129q0 108 42 181t102 129t128 104t118 106t73 133t-7 187q50 32 64 32t18 -33t11 -100t43 -169 q32 -16 89 -37t113 -44t96 -49t40 -52q0 -34 -8 -62t-48 -44q-26 38 -55 57t-60 27t-67 7t-74 -1v-448q102 2 195 -21t164 -76t113 -137t42 -200q0 -70 -42 -152t-107 -154t-142 -123t-145 -59v-358h-104v308q-76 4 -177 9t-200 23t-185 58t-130 114zM222 1116q0 -30 14 -54 t35 -41t48 -26t53 -9q46 0 85 3t68 17t45 43t16 79t-3 95t-9 88t-17 90t-27 101q-10 -8 -37 -31t-61 -54t-71 -68t-68 -77t-51 -80t-20 -76zM774 920q0 -168 11 -326t53 -322q4 -2 13 -3t13 -1q40 0 87 45t89 105t71 120t33 92q12 80 -24 135t-94 90t-127 50t-125 15z" />
<glyph unicode="%" horiz-adv-x="934" d="M38 52l718 1536h98l-724 -1568zM138 1320v38q0 20 2 43t10 42t24 31t46 12q46 0 64 -33t18 -73q0 -56 -22 -87t-88 -65q-24 6 -35 21t-15 33t-4 38zM654 410q0 10 20 28t30 22q56 14 84 -9t33 -59t-8 -71t-37 -45t-57 17t-65 117z" />
<glyph unicode="&#x26;" horiz-adv-x="1358" d="M88 390q0 66 24 152t63 171t91 157t110 110q-74 256 -74 433t45 291t122 172t157 76q70 0 132 -27t108 -74t72 -108t26 -127q0 -102 -39 -200t-100 -186t-134 -165t-141 -139q-2 -6 -2 -26v-26q0 -72 40 -160t101 -165t135 -128t144 -51q0 84 -3 158t-32 129t-93 86 t-186 29v52q0 14 52 24t122 16t139 9t105 3q12 0 35 1t46 -2t41 -14t22 -37l154 -1230l-84 -84l-172 802q-102 -152 -252 -232t-330 -80q-96 0 -177 20t-141 66t-93 120t-33 184zM237 368q3 -78 7 -160q54 -70 145 -97t188 -17t188 53t145 113q-72 30 -152 101t-151 151 t-127 153t-82 107q-72 -54 -106 -118t-46 -136t-9 -150zM444 1303q0 -39 5 -75t16 -73t35 -75q48 38 111 94t118 124t94 143t39 149q0 32 -14 77t-39 85t-58 69t-69 29q-88 0 -137 -50t-71 -122t-26 -153t-4 -141v-81zM1012 772l102 -154v154h-102z" />
<glyph unicode="'" horiz-adv-x="244" d="M38 1844q0 12 21 31t31 19q68 -44 87 -114t19 -144q0 -16 1 -39t-2 -46t-15 -42t-38 -25q-22 6 -40 57t-33 112t-23 117t-8 74z" />
<glyph unicode="(" horiz-adv-x="602" d="M10 642q0 80 10 191t31 236t57 255t87 249t120 216t159 157q6 4 25 10t25 6v-68q-74 -124 -130 -228t-96 -199t-66 -185t-42 -187t-22 -207t-6 -244q0 -102 17 -199t37 -192t37 -191t17 -194q0 -26 -9 -41t-43 -31q-40 92 -77 197t-66 215t-47 220t-18 214z" />
<glyph unicode=")" horiz-adv-x="614" d="M12 1946q0 12 21 31t31 19q6 0 21 -6t32 -13t31 -16t18 -15q120 -136 192 -281t110 -299t50 -318t12 -336q0 -66 1 -156t-3 -189t-18 -201t-43 -193t-77 -165t-122 -116q-30 16 -41 33t-11 45t11 44t41 32q56 134 89 235t49 193t20 187t4 219q0 178 -16 348t-61 329 t-127 307t-214 282z" />
<glyph unicode="*" horiz-adv-x="626" d="M26 972q58 10 92 27t55 36t34 42t28 48t37 51t62 52q38 -12 52 -33t17 -46t3 -50t11 -45t39 -33t90 -13q0 -6 -3 -18t-5 -18q-2 -4 -10 -19t-17 -32t-16 -32t-7 -19q0 -6 8 -28t17 -48t17 -49t8 -29q2 -2 2 -21v-29v-26t-2 -26l-204 154q-8 -16 -26 -37t-42 -41t-52 -34 t-52 -14q0 36 -3 86t-16 99t-40 89t-77 56z" />
<glyph unicode="+" horiz-adv-x="846" d="M20 850l314 20v320q50 16 83 9t52 -30t26 -59t8 -74t-4 -75t-11 -63h306v-78q-90 -8 -160 -21t-118 -49t-69 -104t-11 -186q-2 0 -25 -2t-51 -3t-51 -2l-23 -1q-4 54 8 96t23 74t12 54t-25 36t-88 20t-176 6z" />
<glyph unicode="," horiz-adv-x="320" d="M44 106q16 34 31 44t43 10q74 0 106 -32t32 -98q0 -82 -34 -133t-128 -97q-2 6 -2 25v25v30t2 22q0 4 9 19t19 32t17 32t7 19q-2 8 -15 25t-29 33t-33 29t-25 15z" />
<glyph unicode="-" horiz-adv-x="1038" d="M38 564l52 50q2 2 61 11t153 20t211 22t237 21q12 0 43 2t65 3t65 2t43 1q0 -34 -14 -64t-48 -46q-64 -6 -159 -16t-197 -21t-198 -21t-160 -16q-4 0 -25 -1t-31 -1q-34 0 -58 5t-40 49z" />
<glyph unicode="." horiz-adv-x="394" d="M86 102q-10 40 1 62t33 33t48 13t48 2q20 0 46 -2t47 -13t32 -33t1 -62q-4 -18 -17 -36t-30 -34t-38 -26t-41 -10q-22 0 -43 10t-39 26t-31 34t-17 36z" />
<glyph unicode="/" horiz-adv-x="576" d="M12 52l410 1382q4 16 12 36t20 27t29 -5t41 -58l-432 -1462z" />
<glyph unicode="0" horiz-adv-x="1102" d="M94 664q0 50 4 120t16 144t35 147t60 131t90 94t127 36q154 0 268 -57t189 -155t112 -226t37 -268q0 -58 -11 -128t-34 -140t-59 -136t-85 -116t-112 -81t-141 -31q-144 0 -239 62t-152 159t-81 215t-24 230zM200 718q0 -104 6 -205t39 -182t101 -131t192 -50 q108 0 182 38t121 104t67 155t20 191q-12 186 -76 311t-152 190t-185 70t-174 -48t-120 -164t-21 -279z" />
<glyph unicode="1" horiz-adv-x="1036" d="M64 1332q2 0 34 15t82 36t112 46t124 48t117 41t93 26v-1340q26 -24 72 -28t98 -2t104 5t90 -5l-4 -110q-108 0 -215 -10t-212 -23t-210 -23t-211 -10q-28 0 -36 32t-26 68q50 12 77 16t44 6t30 2t34 3t58 9t103 20q24 72 37 167t21 203t12 223t7 227t8 217t17 191 q-4 0 -13 1t-11 1q-58 0 -109 -24t-102 -52t-103 -52t-110 -24z" />
<glyph unicode="2" horiz-adv-x="1292" d="M32 232q0 28 54 38l135 25t176 44t176 95t135 180t54 296q0 76 -13 160t-47 154t-97 116t-161 46q-42 0 -74 -18t-58 -44t-50 -58t-52 -58t-62 -44t-82 -18q0 72 34 135t89 110t123 73t136 26q108 0 194 -53t146 -135t92 -183t32 -197q0 -92 -26 -183t-70 -176t-99 -163 t-115 -144q60 -50 138 -80t161 -46t164 -22t151 -6q2 -4 4 -13t2 -11q0 -30 -21 -47t-51 -25t-62 -9t-52 -1q-72 0 -137 13t-129 35t-130 50t-140 60q-72 -40 -131 -48t-133 -8q-30 0 -66 5t-67 19t-51 40t-20 70zM244 204q6 -12 21 -17t31 -5t30 5t20 17t-11 18t-39 6 t-40 -6t-12 -18z" />
<glyph unicode="3" horiz-adv-x="1102" d="M62 1164q0 86 54 156t135 119t174 75t171 26q36 0 71 -23t64 -58t47 -76t18 -77q0 -42 -15 -88t-37 -91t-49 -85t-53 -70q70 -22 143 -61t132 -94t97 -125t38 -154q0 -114 -39 -214t-108 -173t-165 -115t-208 -42q-30 0 -96 2t-134 13t-120 32t-52 61v58q46 0 90 -9 t88 -21t89 -21t93 -9q90 0 174 28t147 81t101 130t38 175q0 70 -32 127t-84 98t-116 63t-126 22h-27t-33 -1t-29 -2t-15 -1q-6 0 -28 -9t-48 -18t-49 -17t-29 -8t-14 6t-17 14t-15 17t-6 15q18 16 63 59t94 92t92 93t59 62q10 12 27 36l34 48t29 44t12 26q-18 86 -62 113 t-103 18t-127 -44t-132 -77t-119 -78t-87 -48z" />
<glyph unicode="4" horiz-adv-x="1178" d="M36 964q0 106 10 210t23 209t23 210t10 211q10 0 26 -6t30 -15t24 -21t10 -22v-602q2 0 34 -3t78 -6t98 -4t96 4t74 16t30 33v574q10 0 32 -5t44 -14t38 -20t16 -23v-486h398q-6 -30 -12 -56q-4 -22 -9 -44t-9 -30q-54 -14 -119 -19t-121 -6t-95 0t-41 1l8 -998h-104v972 q-8 0 -32 1t-32 1q-66 0 -132 -10t-131 -21t-131 -21t-134 -10z" />
<glyph unicode="5" horiz-adv-x="1126" d="M50 1132q0 118 44 181t116 92t164 33t188 4q18 0 51 -1l66 -2t59 -3t30 -2l32 -90q-68 -2 -152 -2t-166 -6t-156 -18t-122 -38v-460q82 48 164 51t172 3q92 0 188 -28t174 -84t128 -137t50 -189q0 -80 -43 -158t-110 -140t-150 -101t-161 -39q-60 0 -139 1t-156 15 t-138 46t-81 94l52 50q96 -34 199 -69t211 -35q62 0 134 26t133 71t102 107t41 132q0 80 -40 143t-102 107t-138 68t-146 24q-60 0 -114 -22t-108 -45t-109 -39t-115 -6q-14 72 -24 130t-16 112t-9 107t-3 117z" />
<glyph unicode="6" horiz-adv-x="1166" d="M36 542q8 82 31 210t62 264t93 260t120 200l106 -94q-48 -46 -90 -115t-77 -149t-61 -164t-44 -163t-27 -145t-9 -108q0 -12 8 -66t24 -115t40 -109t58 -48q2 0 11 1t13 3q30 84 67 168t89 150t123 108t169 42q64 0 130 -11t120 -39t89 -80t35 -132q-2 -126 -56 -209 t-143 -131t-205 -64t-240 -8q-106 0 -187 50t-136 128t-84 175t-29 191zM454 120q38 0 95 6t119 19t123 35t110 54t80 76t31 100q0 54 -24 86t-60 49t-79 21t-79 4q-96 0 -157 -39t-96 -102t-49 -144t-14 -165z" />
<glyph unicode="7" horiz-adv-x="1512" d="M21 1368q-1 24 3 50t16 46t38 20h1082q0 -104 -14 -205t-30 -201t-30 -203t-14 -209h388v-52l-460 -102v-512q-66 -20 -91 28t-26 130t9 178t14 172q-86 0 -157 -14t-159 -34l-32 104l340 102l6 36t15 93t20 130l22 146t21 142t18 119q2 6 -1 17t-3 15q-32 0 -111 4 t-169 8t-169 6t-111 0q-58 -4 -124 -10t-114 -33t-63 -84t29 -163q-2 0 -11 -4t-20 -9t-20 -8l-9 -3q-34 0 -51 33t-24 78t-7 90v67q0 8 -1 32z" />
<glyph unicode="8" horiz-adv-x="1036" d="M50 1150q0 88 37 152t96 106t133 63t150 21q24 0 64 -10t86 -29t90 -44t76 -54t44 -62t-6 -65l-206 -358l27 -21t67 -55t87 -75t88 -83t68 -80t27 -62q0 -100 -46 -190t-119 -159t-166 -109t-189 -40q-72 0 -113 26t-62 70t-26 101t-5 121q0 60 17 114t37 105t37 102 t17 109q0 2 -1 11t-1 13q-14 12 -64 53t-104 97t-97 118t-43 114zM152 1148q0 -32 31 -72t75 -74t93 -58t85 -24q42 0 84 43t75 100t54 113t21 80q0 48 -25 75t-61 40t-76 16t-72 3q-50 0 -101 -15t-91 -46t-66 -76t-26 -105zM354 220q0 -40 12 -67t40 -41t84 -14t124 33 t125 86t96 117t39 124t-24 108t-64 82t-91 53t-107 19q-72 0 -118 -41t-71 -103t-35 -132t-10 -130v-94z" />
<glyph unicode="9" horiz-adv-x="960" d="M34 888q0 90 30 171t85 143t131 98t168 36q34 0 96 -7t121 -25t102 -48t39 -78q18 -256 36 -521t18 -527v-27t-1 -40t-1 -39v-24q-64 -20 -91 21t-34 118t-2 180t3 206t-17 195t-63 150q-52 -52 -96 -84t-88 -49t-92 -23t-108 -6q-48 0 -90 8t-75 28t-52 55t-19 89z M140 894q0 -28 13 -44t33 -24t43 -9t43 -1q52 0 92 8t76 26t75 48t87 74q0 6 1 17t2 23t2 23t1 15q0 88 -50 137t-136 49q-62 0 -114 -32t-89 -82t-58 -111t-21 -117z" />
<glyph unicode=":" horiz-adv-x="420" d="M72 948q0 22 11 38t35 22t64 -2t98 -34q-26 -40 -54 -73t-72 -33q-34 0 -58 24t-24 58zM174 308q0 38 18 71t64 33t64 -34t18 -74q0 -46 -19 -73t-89 -27q-22 0 -33 12t-16 28t-6 34t-1 30z" />
<glyph unicode=";" horiz-adv-x="354" d="M60 616q0 56 21 87t85 65q24 -6 36 -22t17 -35t5 -40v-37q0 -26 -1 -48t-12 -39t-33 -26t-64 -9q-20 0 -31 12t-16 29t-6 34t-1 29zM158 -370q0 6 3 31t5 31q2 4 10 19t17 32t17 32t8 21q0 8 -8 38t-17 64t-17 64t-10 38q-2 6 -3 32t-1 32q42 0 73 -25t50 -62t28 -80 t9 -77q0 -32 -13 -65t-35 -61t-52 -46t-64 -18z" />
<glyph unicode="&#x3c;" horiz-adv-x="960" d="M86 436q0 4 1 13t3 11l564 768h62q0 -66 -29 -138t-73 -142t-99 -137t-108 -124t-97 -103t-66 -72v-102q22 -8 66 -28t100 -45t117 -52t116 -53t99 -47t64 -31q8 -4 24 -17t32 -30t30 -32t18 -23q-16 -32 -32 -43t-44 -11q-20 0 -84 29t-147 73t-174 96t-167 101t-126 87 t-50 52z" />
<glyph unicode="=" horiz-adv-x="934" d="M136 550v78q68 8 154 19t178 19t186 14t182 6v-108zM146 348q28 6 90 15t139 16t160 12t154 6t121 -5t60 -20v-64q0 -2 -40 -3t-104 -2t-145 -4t-160 -6t-150 -9t-117 -12q-2 0 -2 12v26t-1 26t-5 12z" />
<glyph unicode="&#x3e;" horiz-adv-x="870" d="M78 1228v154q20 -18 64 -54t100 -82t117 -96t117 -95t100 -81t66 -52q24 -18 59 -33t68 -34t57 -45t24 -66q0 -4 -1 -14t-3 -14q-18 -24 -53 -77t-81 -118t-96 -138t-96 -138t-82 -117t-52 -76q-22 -30 -44 -47t-60 -17v114l410 614z" />
<glyph unicode="?" horiz-adv-x="858" d="M0 1280q36 54 84 93t104 65t117 39t123 13q46 0 113 -12t130 -39t107 -72t44 -111q0 -70 -45 -144t-106 -141t-127 -120t-108 -83v-240q-48 0 -75 29t-39 71t-15 88t-3 80q0 58 31 98t77 71t101 57t101 57t77 73t31 104q0 44 -29 70t-70 40t-86 18t-75 4q-56 0 -107 -25 t-99 -56t-92 -56t-86 -25q-30 0 -46 12t-32 42zM408 78q0 28 11 44t41 32q32 -16 43 -32t11 -44q0 -30 -11 -46t-43 -32q-30 16 -41 32t-11 46z" />
<glyph unicode="@" horiz-adv-x="1882" d="M50 684q0 138 39 269t109 249t167 217t213 171t248 112t272 40q90 0 182 -21t176 -62t155 -99t119 -132t68 -163t4 -189q0 -112 -33 -197t-78 -160t-89 -148t-66 -161q-2 -8 3 -24t13 -32t18 -30t18 -16q-76 -92 -150 -152t-156 -96t-175 -50t-209 -14q-156 0 -308 38 t-272 121t-194 214t-74 315zM196 716q-10 -166 48 -283t161 -187t237 -94t274 -4h136t146 14t134 47t102 99q-18 -6 -61 -9t-92 -3t-93 3t-62 9q-10 2 -39 26t-62 52t-63 51t-40 23q-12 0 -58 -14t-97 -33t-96 -36t-57 -19q-42 -12 -79 15t-65 70t-44 92t-16 79q0 84 36 191 t98 201t146 159t180 65q64 0 112 -26t81 -68t49 -97t16 -115q0 -48 -8 -93t-19 -90t-19 -91t-8 -92q0 -26 9 -53t25 -48t39 -35t53 -14q136 0 230 64t153 162t85 216t26 228q0 132 -43 237t-121 178t-188 111t-246 38q-194 0 -359 -77t-285 -206t-188 -296t-68 -347z M534 498q144 0 234 44t140 123t67 188t17 239q-132 0 -220 -47t-141 -127t-75 -189t-22 -231z" />
<glyph unicode="A" horiz-adv-x="1062" d="M56 52q0 8 1 30t2 46t3 46t2 30q16 154 25 313t23 308t37 285t65 246t106 189t160 117q98 0 172 -57t129 -153t92 -222t61 -263t37 -277t19 -263t7 -222t1 -153h-64l-102 562q-14 14 -60 16q-13 1 -28 1q-36 0 -81 -4q-63 -5 -136 -14t-139 -14q-47 -4 -88 -4 q-16 0 -31 1q-53 2 -77 18v-562h-136zM256 708q130 0 266 19t258 41q2 10 3 35t3 54t3 55t1 36q0 86 -9 167t-37 156t-81 142t-139 127q-70 0 -117 -50t-76 -128t-45 -174t-22 -188t-7 -171t-1 -121z" />
<glyph unicode="B" horiz-adv-x="1306" d="M52 1434q8 88 65 132t132 61t155 17h136q92 0 171 -10t138 -43t93 -95t34 -168q0 -54 -4 -95t-15 -80t-32 -82t-55 -99q110 -36 181 -67t111 -74t55 -106t15 -161q0 -118 -50 -222t-135 -181t-197 -121t-236 -44q-26 0 -72 9t-99 24t-109 35t-101 43t-74 48t-29 49v1128 q-10 2 -24 15t-26 29t-20 32t-8 26zM254 992q0 -22 2 -44t9 -40t23 -29t44 -11q90 0 186 34t175 95t130 146t51 187q0 12 -5 32t-24 41t-56 41t-100 33t-156 16q-19 1 -39 1q-81 0 -186 -10q-6 -6 -13 -35t-13 -73t-11 -96t-9 -105t-6 -101t-2 -82zM278 327q2 -57 32 -103 t96 -79t184 -45q98 0 196 35t174 98t124 150t48 191q0 70 -24 118t-64 78t-95 44t-117 14q-76 0 -138 -5t-122 -17t-123 -34t-141 -56q1 -19 1 -38q0 -48 -7 -97q-10 -69 -18 -133q-6 -51 -6 -98v-23z" />
<glyph unicode="C" horiz-adv-x="1164" d="M36 692q0 82 17 185t51 208t86 205t121 179t155 126t190 47q74 0 126 -29t84 -77t47 -108t15 -120q-58 0 -88 36t-55 79t-58 79t-99 36q-90 0 -158 -47t-118 -123t-83 -172t-54 -192t-29 -186t-8 -152q-5 -47 -5 -97q0 -44 4 -90q9 -97 44 -178t102 -136t177 -63 q68 0 153 22t170 53t162 67t129 64v-104q-2 -2 -33 -14t-80 -30t-111 -40l-124 -44t-119 -42t-97 -34q-2 0 -11 -1t-13 -1q-148 0 -242 63t-150 163t-77 224t-21 244z" />
<glyph unicode="D" horiz-adv-x="1434" d="M52 1434q0 26 21 39t48 16t52 2t31 -1t21 -1t32 -2t31 -2t20 -1q86 -32 200 -75t234 -99t235 -127t205 -160t146 -196t56 -237q0 -112 -43 -201t-113 -155t-163 -112t-191 -75t-197 -42t-183 -13q-18 0 -64 2t-94 4t-87 4t-41 2l-4 98l-102 1230q-6 4 -14 18t-16 31 t-14 32t-6 21zM254 1322q0 -16 1 -35t1 -36v-23q2 -42 6 -130t9 -199t11 -233t11 -233t9 -200t6 -131q14 0 50 -2t77 -3t77 -2t52 -1q122 0 242 30t215 93t154 163t59 242q0 104 -47 198t-126 175t-180 145t-210 110t-217 70t-200 24v-22z" />
<glyph unicode="E" horiz-adv-x="1344" d="M38 1434q42 62 113 106t158 73t186 45t196 25t187 11t160 2q6 0 24 -1t39 -2t39 -2t26 -1q3 -18 3 -32q0 -33 -16 -48q-23 -22 -59 -26q-14 -2 -29 -2q-22 0 -46 4q-39 6 -59 2q-26 -4 -83 -16t-127 -27t-148 -32t-149 -32t-127 -28t-82 -19q-44 -14 -49 -39t-5 -57 q0 -54 7 -124t16 -138t18 -124t13 -82q10 -2 39 -2h39q62 0 121 10t118 23t120 23t125 10v-98q-26 0 -75 -5t-106 -15t-116 -22t-107 -25t-78 -27t-30 -26v-556q126 0 250 8t249 18t250 18t251 8q0 -34 -21 -54t-50 -31t-60 -17t-49 -8q-10 -2 -66 -8t-139 -16t-184 -21 t-200 -22t-187 -20t-146 -15q-8 -2 -24 -2q0 358 -23 721t-107 715z" />
<glyph unicode="F" horiz-adv-x="1100" d="M38 1484q2 10 15 26t30 33t33 30t26 15l100 25t153 38t180 43t181 42t154 35t102 21q12 2 43 5t65 6t65 5t43 2q0 -50 -12 -72t-35 -30t-53 -9t-66 -9q-28 -8 -89 -23t-136 -35t-159 -42t-159 -43t-136 -38t-89 -25q-40 -46 -46 -83t-6 -89q0 -114 15 -217t37 -225 q4 0 14 -1t14 -1q72 0 141 17t137 38t138 38t146 17q10 0 35 -1t49 -7t38 -17t6 -31l-690 -206v-732q-48 0 -74 12t-37 35t-14 54t-5 69q-4 46 -12 142t-18 217t-21 255t-21 255t-18 217t-12 142q-8 2 -18 16t-18 30t-13 32t-3 24z" />
<glyph unicode="G" horiz-adv-x="1498" d="M52 534q0 124 25 263t74 277t122 264t172 222t222 153t271 57q58 0 135 -11t147 -40t119 -80t49 -131q-2 -30 -29 -29t-69 20t-94 48t-100 56t-88 45t-60 14q-128 0 -233 -49t-189 -132t-146 -191t-103 -225t-61 -234t-20 -219q-8 -48 -8 -90q0 -71 21 -128 q33 -92 100 -152t160 -90t193 -33h24q88 0 175 19q99 22 180 68t133 112t60 150q0 84 -33 143t-87 99t-125 64t-145 37t-147 19t-133 12v50q0 4 70 17t168 30t202 32t174 25q2 0 15 1t29 1h32h26h21h31t30 -1t20 -1q2 -38 6 -119t9 -182t11 -212t11 -212t9 -181t6 -118 q0 -12 1 -41t2 -62t1 -62v-41h-56l-102 410q-104 -54 -184 -86t-154 -49t-151 -22t-175 -5q-130 0 -234 30t-177 93t-113 161t-40 236zM1126 842l154 -102v162q-40 0 -82 -20t-72 -40z" />
<glyph unicode="H" horiz-adv-x="1030" d="M58 118v115v122v107v74q0 192 2 363t8 337t17 339t29 371h78v-1024h582q-2 96 -3 207t-3 224t-3 222t-2 204t-1 167v112q10 0 30 -3t40 -10t35 -19t15 -32v-1996l-82 16q-4 0 -7 34t-5 87t-3 120t-2 133t-2 125t-1 99q-2 36 -2 100t-2 148l-584 -106l-4 -760h-128 q0 4 -1 38t-1 86z" />
<glyph unicode="I" horiz-adv-x="268" d="M38 1844v30q0 32 23 53t55 21h12t14 -2q14 -222 24 -424t17 -396t10 -388t3 -404q0 -30 4 -80t8 -99t7 -87t3 -40l-114 -22q-6 108 -11 251t-9 304t-8 333t-10 340t-13 324t-15 286z" />
<glyph unicode="J" horiz-adv-x="1204" d="M50 412q0 34 5 60t47 40q44 -18 66 -57t36 -87t26 -99t37 -91t70 -62q33 -16 84 -16q18 0 39 2q138 14 234 49t159 89t99 126t53 160t21 191t4 219q0 120 -17 237t-38 233t-38 232t-17 234q0 14 2 23t13 13t32 1t57 -15q4 -4 13 -37t19 -83t21 -112t21 -123t17 -116 t11 -91q10 -160 26 -326q13 -140 13 -271v-49q-3 -154 -33 -286t-110 -227t-221 -144q-106 -37 -259 -37q-49 0 -104 4q-80 0 -151 35t-123 94t-83 134t-31 153z" />
<glyph unicode="K" horiz-adv-x="1268" d="M86 1321q-1 47 -1 88q0 83 3 143v76v116t1 116t1 76h72l3 -54t7 -147t9 -217t12 -264t14 -287t13 -287t12 -266t12 -220q0 -2 -1 -17t-2 -34t-2 -36t-1 -23q0 -24 -2 -39t-11 -26t-31 -17t-60 -12q-4 34 -9 139t-11 249t-12 312t-10 329t-6 302zM244 858v114l716 974h102 l-562 -820q44 -12 108 -45t125 -76t111 -92t66 -93l256 -782q-16 0 -31 -5t-29 -9t-26 -2t-18 16l-256 730q-78 130 -160 180q-77 47 -149 47h-9q-76 -3 -140 -45t-104 -92z" />
<glyph unicode="L" horiz-adv-x="1306" d="M64 1792h102l102 -1690q236 0 475 30t489 58l10 -88q-2 0 -49 -7t-123 -16t-171 -20t-191 -22t-185 -21t-153 -16q-2 0 -13 -1t-24 -1h-26h-21q-58 0 -96 63t-62 170t-35 247t-16 292q-4 127 -4 255v52q1 155 1 293t-1 249t-9 173z" />
<glyph unicode="M" horiz-adv-x="1280" d="M94 1754q18 0 35 3t31 4t25 -4t19 -23l360 -812l306 768q6 14 20 24t32 17t36 11t32 4q2 0 2 -8t5 -56t18 -150t39 -290t68 -478t106 -712q-12 -24 -29 -33t-32 -6t-27 13t-14 26l-204 1432l-308 -768h-102l-256 512v-1176l-116 -18q-6 94 -10 235t-8 305t-7 338t-6 334 t-7 293t-8 215z" />
<glyph unicode="N" horiz-adv-x="1422" d="M35 1633q-1 38 -1 69q0 41 2 68q0 32 23 54t55 22q34 0 75 -15t55 -39l960 -1548q-2 122 -8 263t-11 290t-7 300v67q0 116 5 227q7 143 27 271t58 232q36 12 57 14t32 -1t13 -13t2 -22q0 -4 -1 -15t-1 -13q-4 -18 -11 -60t-17 -126t-19 -217t-17 -331t-11 -470 q-2 -163 -2 -359q0 -130 1 -275l-78 -6l-1024 1588q0 -10 -1 -36t-1 -54v-53v-35q0 -172 8 -346t19 -348t19 -350t8 -352l-98 6q-2 50 -9 141t-16 209t-20 254t-22 276t-20 276t-15 252t-9 205z" />
<glyph unicode="O" horiz-adv-x="1178" d="M48 886q0 88 12 186t40 193t72 182t107 152t147 104t190 39q94 0 166 -52t125 -136t88 -191t57 -215t31 -208t9 -172q-12 -158 -46 -290t-94 -232t-149 -164t-213 -84q-120 0 -206 42t-147 112t-98 161t-57 189t-27 198t-7 186zM150 886q0 -64 3 -144t15 -162t35 -160 t65 -138t104 -97t152 -37q25 -2 48 -2q95 0 161 33q83 41 134 123t77 200t42 266q0 58 -5 146t-19 185t-40 194t-67 175t-99 126t-138 48q-82 0 -149 -38t-119 -101t-90 -143t-62 -164t-36 -165t-12 -145z" />
<glyph unicode="P" horiz-adv-x="1036" d="M50 1419v27v20q0 86 66 149t159 102t194 58t173 19q74 0 147 -23t129 -68t86 -113q22 -51 22 -113q0 -21 -2 -43q-14 -136 -90 -239t-186 -174t-239 -107t-249 -36q0 -98 8 -196t17 -196t17 -196t8 -196q0 -30 -5 -55t-49 -39l-52 52q0 2 -9 74t-23 187t-31 260t-33 292 t-31 283t-25 234q0 2 -1 13t-1 24zM200 1370q0 -56 2 -103t8 -93t17 -94t29 -108q84 12 198 50t219 101t178 148t73 189q0 54 -27 98t-69 74t-92 46t-98 16q-78 0 -157 -19t-141 -59t-101 -101t-39 -145z" />
<glyph unicode="Q" horiz-adv-x="1434" d="M66 634q0 94 23 212t67 242t108 242t148 210t184 148t218 56q80 0 156 -61t141 -156t119 -210t92 -226t59 -202t21 -137q0 -98 -14 -184t-46 -164t-81 -152t-117 -148q10 -16 33 -60t47 -93t45 -92t29 -61q4 -6 7 -26t3 -26h-112l-154 256q-98 -8 -197 -8h-40 q-119 2 -228 22t-202 63t-162 116t-108 181t-39 258zM170 636q0 -122 42 -221t115 -169t172 -108t213 -38q18 0 56 -1h11q33 0 66 5q39 6 69 23t30 53q0 76 -39 138t-85 119t-85 112t-39 119h90l308 -410q56 42 95 99t64 122t36 134t11 135q0 112 -29 219t-74 203t-100 178 t-106 144t-93 100t-60 48q-162 -40 -287 -142t-210 -240t-128 -300t-43 -322z" />
<glyph unicode="R" horiz-adv-x="1382" d="M-44 1328q0 68 39 130t103 114t143 94t159 71t152 45t122 16q76 0 142 -6t116 -31t79 -78t29 -145q0 -82 -29 -161t-75 -151t-102 -137t-110 -121q124 -78 202 -156t126 -157t73 -158t40 -161t29 -167t42 -173h-102q-12 46 -28 125t-41 171t-61 186t-86 170t-116 124 t-154 48q-34 0 -90 -6t-110 -18t-93 -33t-39 -51v-676q-12 0 -33 5t-42 14t-37 20t-16 23v1332q-34 -6 -57 -29t-38 -54t-23 -64t-10 -59q-12 0 -30 12t-34 28t-28 34t-12 30zM316 854q62 0 132 32t138 86t132 122t112 141t77 144t29 129q0 60 -20 96t-54 56t-80 26t-96 6 q-18 0 -52 -2t-76 -7t-84 -16t-78 -29t-58 -44t-22 -62v-678z" />
<glyph unicode="S" horiz-adv-x="1306" d="M36 1148q0 96 47 185t122 158t167 110t184 41q74 0 155 -18t150 -57t114 -101t45 -150q-66 0 -119 35t-106 76t-112 76t-135 35q-66 0 -131 -31t-117 -82t-85 -114t-33 -129q0 -26 1 -57t12 -59t34 -47t65 -19h718q44 0 77 -28t56 -71t38 -96t24 -104t12 -95t3 -68 q0 -102 -30 -195t-88 -166t-146 -120t-202 -57q-21 -1 -46 -1q-44 0 -101 4q-89 7 -180 30t-170 65t-117 106q14 30 41 39q4 1 9 1q24 0 52 -40q0 -6 25 -16t64 -22t90 -23t102 -21t99 -16t82 -6q92 0 168 38t130 99t84 140t30 161q0 26 -8 85t-27 120t-49 108t-74 47 q-230 -25 -392 -25q-32 0 -62 1q-178 6 -282 41t-145 95t-43 138z" />
<glyph unicode="T" horiz-adv-x="1024" d="M8 1448l44 140q2 2 41 6t102 11t143 15t164 16t166 16t150 14q2 0 26 1t53 1h56h35q64 0 88 -24t24 -106l-486 -54q-2 -59 -2 -121q0 -112 7 -231q11 -184 27 -372t30 -372t14 -354q0 -22 -14 -32t-34 -12t-42 1t-36 9q-8 36 -16 121t-16 199t-17 248t-17 267t-15 255 t-13 214t-10 142t-6 38z" />
<glyph unicode="U" horiz-adv-x="1382" d="M60 1145v23q0 187 30 368l104 -10q-15 -188 -15 -348q0 -132 10 -246q23 -252 73 -420t117 -256t129 -102q90 0 161 48t125 126t93 177t63 200t35 195t11 164q0 90 -6 161t-18 140t-27 143t-33 170l132 96q60 -388 104 -663t76 -461t51 -297t31 -173t16 -87t4 -41h-110 l-154 614q-106 -268 -211 -415t-203 -196q-56 -28 -108 -28q-40 0 -78 16q-88 37 -161 137t-126 252t-83 333t-32 380z" />
<glyph unicode="V" horiz-adv-x="1410" d="M38 1740l80 80l856 -1512l294 1586h84l-290 -1842l-64 -68z" />
<glyph unicode="W" horiz-adv-x="1638" d="M38 1946q8 2 27 5t25 3q54 0 71 -22t31 -88l308 -1384l204 666q10 32 31 43t47 11q22 -22 61 -79t86 -133t98 -163t97 -165t84 -140t60 -90q6 -12 27 -35t45 -47t47 -45t35 -27q-4 88 -9 210t-10 263t-6 294v44q0 131 5 260q6 151 22 291t44 256q4 20 13 29t22 12t32 2 t45 -1q0 -30 -3 -71t-8 -118t-11 -204t-12 -330t-12 -495t-10 -698q-116 90 -214 203t-187 239t-173 258t-168 260q-8 -30 -25 -93t-40 -143t-49 -168t-49 -168t-42 -143t-27 -91q-6 -26 -16 -56t-24 -46t-30 -8t-32 58z" />
<glyph unicode="X" horiz-adv-x="1306" d="M48 1738q23 9 46 9q18 0 36 -6q40 -13 70 -53q16 -22 48 -70t73 -108t86 -127t85 -128t71 -109t47 -72l308 664q45 12 73 12q18 0 29 -5q28 -13 24 -49t-33 -91t-70 -123t-86 -142t-80 -149t-54 -144q-12 -45 -12 -86q0 -21 3 -41q52 -90 128 -191t156 -207t154 -213 t126 -209q2 -4 2 -11t-9 -14t-31 -15t-64 -10l-538 750l-358 -1136l-78 78l360 1178z" />
<glyph unicode="Y" horiz-adv-x="1212" d="M12 1946l52 50q100 -108 173 -197t131 -168t107 -151t101 -145t113 -149t143 -162q16 74 31 166t31 191t35 202t42 198t52 177t65 142q4 2 13 2h13q8 0 23 -3t29 -9t22 -17t2 -25q-30 -62 -61 -165t-58 -233t-52 -281t-45 -305t-35 -307t-23 -287q-7 -119 -7 -218v-25 q1 -109 11 -177q-4 -28 -8 -43t-18 -23t-40 -9t-74 -1v896q-42 58 -109 144t-145 186t-160 206t-153 206t-125 187t-76 147z" />
<glyph unicode="Z" horiz-adv-x="1754" d="M38 1740l52 52l55 6t143 15t200 20t225 22t219 21t182 18q4 0 27 1t31 1h25t38 -5t31 -16t2 -31l-330 -718h352q12 -25 12 -45q0 -13 -5 -24q-13 -27 -46 -43t-82 -23t-102 -12t-104 -10t-87 -15q-52 -88 -103 -186t-94 -200t-77 -207t-52 -207q6 0 21 -1t32 -2t31 -1h20 q130 0 256 21t252 45t253 45t263 21v-104q-150 0 -294 -28t-286 -62t-285 -62t-289 -28q-18 0 -41 4t-42 13t-32 23t-13 36v15t2 13l278 852l-426 -28l40 124l456 64l368 626h-30t-46 1t-47 1h-31q-104 0 -207 -8t-206 -19t-206 -19t-207 -8q-32 0 -56 5t-40 47z" />
<glyph unicode="[" horiz-adv-x="794" d="M80 1820v30q0 88 31 135t82 68t116 24t135 3q22 0 44 1t42 -2t36 -15t26 -38q4 -10 5 -23t5 -25q2 -14 6 -28h-358q-2 -50 -8 -145t-14 -223t-16 -278t-15 -309t-10 -317t1 -302t16 -264t34 -202h410q30 0 41 -27t11 -49v-13t-2 -13q-26 -4 -82 -13t-123 -18t-137 -16 t-124 -7q-34 0 -58 5t-38 49q-4 46 -7 147t-6 237t-7 296t-8 326t-8 326t-7 296t-7 237t-6 147z" />
<glyph unicode="\" horiz-adv-x="1204" d="M-20 1740h134q12 -16 77 -106t191 -282t313 -498t443 -752l-50 -102z" />
<glyph unicode="]" d="M22 2096q48 44 95 48t107 4q56 0 103 -3t94 -9t98 -16t117 -24q8 -42 18 -134t23 -217t27 -274t28 -301t28 -301t26 -274t21 -217t13 -134q0 -4 1 -24t2 -45t1 -50v-39q0 -94 -15 -143t-56 -71t-112 -27t-181 -11v102q18 -8 55 -7t78 9t76 21t47 29l1 12t2 29l2 34t1 29 t-1 35t-2 47t-2 44t-1 26q-6 62 -15 163t-18 223t-20 257t-21 267t-19 253t-16 215t-13 153t-8 65l-52 152q-8 0 -41 1t-80 5t-104 10t-112 18t-101 29t-74 41z" />
<glyph unicode="^" horiz-adv-x="794" d="M62 1532l356 484q48 -48 84 -104t68 -117t64 -125t72 -128q0 -18 -8 -25t-22 -11t-32 -8t-38 -16q-36 60 -55 95t-36 65t-39 65t-64 97q-36 -46 -70 -84t-67 -74t-66 -73t-69 -83z" />
<glyph unicode="_" horiz-adv-x="1202" d="M84 70l30 76l962 8v-102q-28 6 -99 4t-164 -5t-200 -8t-208 -4t-186 7t-135 24z" />
<glyph unicode="`" horiz-adv-x="676" d="M234 1648l76 96q48 -48 73 -86t44 -77t40 -85t61 -110q0 -18 -8 -25t-22 -11t-32 -8t-38 -14q-36 60 -55 94t-36 64t-39 65t-64 97z" />
<glyph unicode="a" d="M50 230q0 152 84 221t220 69q54 0 101 -2t90 -13t84 -33t87 -62q0 10 1 35t1 54v55v36q-3 38 -3 95v29v12q0 70 -11 144q-12 80 -49 152t-117 108q-54 0 -103 -18t-97 -39t-96 -39t-102 -18q0 68 41 111t99 67t123 32t111 8q48 -8 90 -18t78 -42t66 -98t53 -183t41 -297 t28 -442v-8q0 -29 -24 -51q-28 -25 -75 -43t-108 -29t-122 -17t-117 -8t-92 -2q-48 0 -98 16t-91 46t-67 74t-26 98zM165 227q7 -49 62 -87t135 -50q26 -4 53 -4q57 0 121 17q94 25 180 101q-34 76 -66 118t-69 63t-82 26t-101 5q-134 -36 -187 -88q-47 -46 -47 -90 q0 -5 1 -11z" />
<glyph unicode="b" horiz-adv-x="1000" d="M38 1740h104q10 -96 22 -212t20 -238t11 -243q1 -40 1 -79q0 -77 -4 -148q44 36 80 64t71 49t72 32t83 11q98 0 177 -47t135 -122t87 -167t31 -180q-4 -150 -60 -240t-149 -137t-216 -56q-53 -4 -108 -4q-73 0 -151 7v124q46 -42 87 -49t95 -7q88 0 160 27t124 77t81 119 t29 151q0 72 -9 128t-37 102t-81 87t-143 81q-6 2 -25 4t-25 2q-44 0 -86 -26t-77 -65t-59 -85t-34 -86q-6 -32 -16 -114t-21 -175t-20 -176t-13 -115l-84 18z" />
<glyph unicode="c" horiz-adv-x="1000" d="M50 456q0 100 32 219t94 222t153 172t209 69q20 3 37 3q37 0 62 -14q37 -21 57 -63t27 -97t8 -112q0 -28 0.5 -55t-0.5 -52v-14q0 -41 5 -68h-68q-2 18 -8 78t-22 124t-45 114t-79 50q-74 0 -139 -58t-114 -141t-78 -171t-29 -148q4 -66 20 -145t52 -143t94 -103 q41 -28 96 -28q23 0 48 5q64 0 122 26t115 56t114 56t121 26q0 -70 -51 -121t-124 -84t-154 -49t-139 -16q-90 0 -166 38t-132 101t-87 147t-31 176z" />
<glyph unicode="d" horiz-adv-x="890" d="M8 388q0 72 24 158t69 159t110 122t149 49q64 0 114 -13t93 -40t82 -66t81 -91l-14 1368q59 23 81 23q5 0 8 -1q17 -6 17 -44q0 -6 -1 -17t-1 -13q-4 -50 -5 -144q0 -47 -0.5 -101.5t0.5 -115.5q1 -123 4 -265t6 -288t6 -288t5 -265q1 -82 1 -151v-66q-1 -94 -5 -144 q-30 -60 -81 -92t-112 -47t-125 -17t-120 -2q-178 0 -282 105t-104 287zM114 460q0 -68 11 -133t38 -116t75 -82t122 -31q46 0 110 1t122 15t99 46t41 92q0 68 -20 158t-62 171t-105 138t-147 57q-56 0 -107 -29t-90 -75t-63 -102t-24 -110z" />
<glyph unicode="e" horiz-adv-x="898" d="M63 472v18q0 71 7 138q0 80 35 177t94 181t136 141t159 57q44 0 89 -18t86 -49t74 -70t52 -81q20 -44 20 -85q0 -38 -23 -67l-562 -104q-10 -2 -18 -25t-14 -58t-10 -76t-6 -80t-3 -70t-1 -45q0 -76 36 -122t92 -70t127 -32t140 -8t131 5t102 5q0 -12 -8 -25t-19 -25 t-21 -21t-14 -11q-20 -6 -65 -15t-94 -17t-92 -14t-57 -6q-38 -7 -72 -7q-40 0 -73 10q-61 19 -104 64t-70 110t-40 140t-14 155zM250 836q33 -5 68 -5q38 0 77 6q75 11 136 34t101 54q39 30 39 60q0 32 -50 59q-49 26 -165 38h-4q-23 0 -58 -24q-38 -26 -72 -65t-56 -83 q-17 -34 -17 -60q0 -8 1 -14z" />
<glyph unicode="f" horiz-adv-x="996" d="M26 768l360 154q-38 309 -38 539q0 69 3 131q15 268 78 431t165 239t228 96q98 0 187 -39t158 -105t110 -155t41 -187q-44 0 -80 28t-68 71t-64 92t-70 92t-84 71t-106 28q-54 -12 -106 -45t-96 -94t-78 -156t-53 -234t-20 -326v-15q0 -182 23 -416l330 4q8 -36 9 -61 t-39 -41q-28 -12 -74 -21t-93 -16t-87 -11t-54 -6q-2 -56 -2 -109q0 -67 3 -130q5 -113 8 -215q1 -44 1 -85q0 -56 -2 -107q-4 -90 -28 -172h-14h-25h-25h-12q-12 0 -24 -3t-21 -4t-14 3t-5 20q24 170 31 282q6 98 6 172v21q-1 81 -4 144q-1 27 -1 55q0 38 2 78 q-34 0 -75 -16t-83 -36t-84 -36t-76 -16q-14 0 -18 10t-6 26t-4 34t-10 36z" />
<glyph unicode="g" horiz-adv-x="948" d="M-326 -632q0 72 24 109t112 37q-6 -36 -19 -74t-22 -69t-8 -50t21 -13q84 -56 186 -80t200 -24q150 2 258 60t179 152t109 215t48 251q4 50 4 100q0 80 -10 160q-16 130 -52 240q-46 -52 -92 -107t-99 -100t-114 -74t-135 -29q-78 0 -116 27t-51 74q-12 44 -12 99v9 q1 61 1 129q0 64 4 144t18 162t40 161t69 141t106 99t151 37q56 0 109 -9t96 -33t76 -64t51 -102q10 -118 26 -259t27 -291t11 -302t-20 -294t-67 -266t-131 -218t-209 -151t-301 -63q-76 0 -158 9t-151 37t-114 80t-45 140zM185 344q-1 -14 -1 -28q0 -24 3 -47 q5 -37 23 -64t58 -29q64 0 118 30t98 80t77 113t56 129t35 129t12 111q4 28 4 55q0 24 -3 47q-7 50 -30 90t-63 65t-96 25q-66 0 -113 -35t-79 -92t-51 -127t-29 -141t-13 -136t-3 -109q0 -28 -3 -66z" />
<glyph unicode="h" horiz-adv-x="920" d="M72 1844l88 -14l70 -876q18 18 47 49t69 60t88 49q40 17 86 17q9 0 18 -1q110 -10 175 -87t99 -189t44 -245q7 -95 8 -183q0 -35 -2 -70q-4 -120 -13 -213t-13 -127l-98 14q0 22 2 75t4 123t3 147t2 146q0 34 0.5 64.5t-0.5 57.5q-1 53 -5 75v9q0 69 -29 134 q-31 69 -85 105q-40 27 -92 27q-17 0 -36 -3q-74 -12 -160 -104q-76 -114 -110 -221t-45 -213q-9 -83 -8 -170v-47q2 -67 2 -137q0 -47 -1 -96l-106 16q8 30 12 109t7 189t4 246q0 68 0.5 138t-0.5 143q-1 145 -4 292t-6 280t-7 245t-8 186z" />
<glyph unicode="i" horiz-adv-x="386" d="M24 1512q0 18 3 41t12 42t24 32t37 13q30 0 63 -2t62 -12t47 -30t18 -56q0 -66 -47 -115t-117 -49q-54 0 -78 41t-24 95zM170 1485q0 -13 10 -13t10 13t-10 13t-10 -13zM178 1036q34 0 56 2t38 -28q8 -118 19 -242t21 -250t15 -252q3 -70 3 -138q0 -55 -2 -108 q0 -16 -8 -20t-23 -3t-35 2t-44 -5z" />
<glyph unicode="j" horiz-adv-x="564" d="M-598 -840q0 28 5 46t17 21t33 -12t53 -57q0 -36 49 -57t113 -33t129 -15t95 -3q130 0 223 47t153 126t88 184t28 221q0 164 -23 318t-60 307t-85 312t-96 335q-14 57 -14 93q0 15 2 26q8 39 28 51t45 4t43 -22q44 -168 90 -346t85 -362t64 -370t25 -368q0 -126 -33 -244 t-100 -209t-169 -147t-242 -56q-66 0 -159 2t-179 22t-147 62t-61 124zM1 1639q1 47 1 87q36 0 76 -10t75 -30t57 -50t22 -72q0 -106 -108 -106q-52 0 -78 27t-36 67q-9 36 -9 79v8zM114 1564q0 -12 10 -12t10 12t-10 12t-10 -12z" />
<glyph unicode="k" horiz-adv-x="1032" d="M34 1978q38 0 68 -14t48 -50q4 -54 11 -157t15 -237t17 -285t19 -301q8 12 15 23t11 15q28 30 68 73t84 88t89 90t81 80t60 57t28 22l102 -50q-46 -42 -104 -95t-115 -113t-108 -125t-83 -129q-2 -2 -3 -12t-1 -14t1 -13t3 -11l614 -718q2 -2 3 -11t1 -13q0 -52 -54 -78 l-666 768q-4 4 -8 10t-8 14l30 -516q0 -14 1 -52t2 -81t2 -82t1 -53q-34 0 -63 15t-45 49q-4 56 -13 172t-19 262t-21 308t-21 308t-18 262t-10 172q-2 24 -4 84t-4 127t-4 127t-2 84z" />
<glyph unicode="l" horiz-adv-x="386" d="M110 1856q0 12 1 43t3 65t3 65t1 43q38 -4 65 -19t43 -53q2 -50 6 -140t8 -207t9 -253t10 -275t9 -275t8 -253t7 -207t5 -140q0 -4 -1 -18t-2 -32t-3 -35t-2 -25q-2 -16 -2 -39t-5 -45t-18 -39t-39 -19l-46 56q-2 2 -6 99t-10 253t-12 352t-12 396t-12 384t-8 318z" />
<glyph unicode="m" horiz-adv-x="1498" d="M50 1006v34q34 0 71 -16t53 -64q20 92 65 147t102 77q43 17 89 17q15 0 30 -2q62 -7 117 -39t97 -83t58 -117q28 82 78 153t110 119t125 67q32 9 61 10q31 0 61 -11q57 -20 101 -86t64 -188l12 -102t18 -154t21 -180t21 -180t18 -154t12 -100q0 -26 -2 -58t-11 -55 t-30 -29q-4 -1 -8 -1q-20 0 -51 23q-2 32 -9 105t-16 167t-21 199t-23 199t-20 166t-15 102q-42 122 -86 170q-39 43 -77 43q-5 0 -10 -1q-43 -6 -83 -56t-73 -127t-60 -172t-42 -188t-19 -176q-1 -21 -1 -40q0 -57 9 -97l-104 -20q2 62 2 118q0 176 -19 300 q-25 164 -69 253t-100 106q-17 5 -33 5q-39 0 -77 -28q-54 -40 -100 -133t-69 -225q-18 -105 -18 -231q0 -33 1 -67q6 -166 56 -354h-102l-6 50t-15 129t-20 179t-22 202t-22 197t-17 163q-2 6 -2 34z" />
<glyph unicode="n" horiz-adv-x="1080" d="M38 1116v14q30 26 54 26q8 0 14 -3q28 -11 46 -47t27 -90t13 -107t4 -97v-62q4 46 15 107t32 125t52 126t76 110t103 75q47 22 106 22q13 0 26 -1q116 -4 192 -63t121 -157t65 -227t26 -272q4 -95 4 -193q0 -49 -1 -98q-3 -148 -3 -284q-22 -6 -46 -18t-40 -11t-23 24 q-3 9 -3 26q0 24 6 63q2 48 9 148q6 88 6 193v30q-1 123 -14 254t-50 238t-103 176t-172 69q-110 -46 -183 -171t-118 -294t-65 -365t-22 -382q-4 2 -19 3t-32 2t-32 3t-17 6q-6 42 -10 124t-8 184t-7 214t-6 213t-7 183t-10 124q-2 2 -3 13t-2 24t-1 23z" />
<glyph unicode="o" horiz-adv-x="990" d="M64 488q0 62 11 143t35 164t60 163t87 143t117 101t148 38q86 0 159 -59t125 -152t79 -207q22 -93 22 -184q0 -20 -1 -40v-10q0 -154 -60 -275q-62 -125 -156 -203t-203 -104q-42 -10 -82 -10q-63 0 -121 25q-94 41 -157 155t-63 312zM164 478q6 -162 54 -250t117 -116 q36 -15 75 -14q36 0 74 12q80 26 149 94t118 171t55 231q1 17 1 33q0 79 -16 154q-19 91 -55 161t-89 112t-119 42q-64 0 -115 -33t-92 -87t-70 -123t-49 -139t-29 -135t-9 -113z" />
<glyph unicode="p" horiz-adv-x="1212" d="M38 742q0 90 56 166t138 131t176 85t170 30q124 0 224 -41t171 -113t109 -168t38 -204v-8q0 -135 -63 -247q-65 -115 -170 -196t-234 -122q-104 -33 -205 -33q-25 0 -50 2q1 -35 1 -74q0 -67 -4 -146q-7 -124 -21 -270t-34 -310t-40 -338q-2 -4 -17 -3t-33 5t-35 7t-21 1 q20 222 31 449q9 178 9 357q0 49 -1 98q-3 228 -24 452t-67 438q-12 -6 -30 -4t-34 9t-28 19t-12 28zM244 792q4 -26 13 -77t21 -115t25 -133t25 -133t21 -116t13 -78q34 4 92 10t125 21t138 43t132 79t107 127t64 188q0 104 -38 179t-102 124t-150 72t-182 23 q-52 -4 -110 -16t-104 -36t-73 -64q-20 -29 -20 -68q0 -14 3 -30z" />
<glyph unicode="q" d="M34 490q0 64 13 138t39 147t65 141t90 119t114 82t139 31q74 0 135 -24t106 -69t70 -110t25 -145q0 -132 -12 -265t-26 -265t-26 -265t-12 -265q-4 -28 -4 -55q0 -65 24 -122q34 -81 92 -141t126 -96t122 -42q-10 -8 -33 -17t-47 -17t-46 -13t-28 -5q-52 6 -106 33 t-98 69t-73 95t-29 111v716q-46 -40 -85 -70t-78 -50t-81 -31t-92 -11q-74 0 -127 39t-88 98t-52 128t-17 131zM140 514q0 -34 10 -87t31 -103t56 -86t83 -36q92 0 165 51t122 128t75 167t26 168q0 44 -9 102t-34 109t-68 87t-109 36q-54 0 -100 -32t-85 -82t-69 -111 t-51 -121t-32 -111t-11 -79z" />
<glyph unicode="r" horiz-adv-x="816" d="M34 1006v34q34 14 58 6t40 -29t24 -49t12 -56q36 58 101 94t140 49q49 8 97 8q26 0 52 -2q74 -7 126 -33t73 -69q8 -17 8 -37q0 -30 -19 -66q-68 40 -144 64q-57 18 -112 18q-18 0 -36 -2q-72 -8 -134 -54t-101 -148t-49 -269q-2 -40 -2 -84q0 -142 24 -329h-102l-3 44 t-8 115t-11 160t-11 179t-10 174t-9 146q0 8 -1 32t-2 52t-1 52z" />
<glyph unicode="s" horiz-adv-x="1050" d="M46 788q0 102 44 168t113 105t155 55t172 16q42 0 93 -4t96 -22t75 -55t30 -103q-6 -46 -15 -55t-26 5t-41 41t-58 52t-80 38q-24 7 -51 7q-25 0 -53 -6q-62 0 -124 -12t-111 -42t-80 -80t-31 -128q0 -40 37 -54t97 -15h20q52 0 116 4q76 5 155 5t154 -13t132 -49 t89 -102q26 -53 26 -132q0 -20 -2 -42q0 -76 -44 -146t-112 -122t-150 -81q-64 -23 -126 -23q-17 0 -34 2q-32 2 -86 17t-106 42t-90 66t-38 91q48 0 89 -18t82 -41t82 -41t89 -18q56 0 116 20t110 57t83 88t33 113q2 18 1 45t-18 55t-54 53t-107 39t-177 15h-10 q-104 0 -255 -19q-40 0 -77 22t-67 55t-48 72t-18 75z" />
<glyph unicode="t" horiz-adv-x="1014" d="M34 1100l378 26q8 92 10 133q1 27 1 49v20q-1 28 -3 63t-2 113q54 8 88 8q10 0 18 -1q36 -3 50 -19t12 -47t-8 -77t-11 -109q-2 -21 -2 -44q0 -46 7 -101l318 12v-132q-20 0 -66 -2t-97 -5t-96 -6t-65 -9q-22 -96 -46 -206t-32 -216q-3 -39 -3 -75q0 -64 9 -123 q14 -92 67 -153t152 -83q38 -8 84 -8q76 0 177 22q-6 -38 -31 -64t-59 -41t-71 -21t-67 -6q-134 0 -214 49t-121 129t-51 183q-7 74 -7 149q0 30 1 61q4 107 14 211t10 188q-21 7 -56 7h-9q-41 -1 -87 -5t-89 -10t-73 -6q-14 0 -17 39t-13 107z" />
<glyph unicode="u" horiz-adv-x="1222" d="M52 1034q-2 14 16 28t43 22t49 10t34 -8q18 -330 64 -526t106 -287t129 -92h2q68 0 134 58q67 59 124 164t93 225t45 240q2 28 2 54q0 87 -23 158l160 20q2 -42 14 -134t27 -208t33 -241t32 -233t24 -184t10 -94h-114l-124 460q-38 -92 -91 -178t-116 -150t-133 -100 q-59 -30 -116 -30q-11 0 -22 1q-68 7 -132 63t-118 177t-94 314t-58 471z" />
<glyph unicode="v" horiz-adv-x="1062" d="M26 1178l84 84l586 -1068l252 1034q18 -10 39 -13t38 -7t28 -10t11 -20q-34 -170 -65 -319t-65 -291t-75 -284t-93 -298h-104z" />
<glyph unicode="w" horiz-adv-x="1512" d="M38 1228l70 70l442 -990l202 652l516 -704q24 130 30 262q5 113 5 227v38q-1 133 -3 268v45q0 113 8 228l114 -44v-339v-233t-1 -153t-3 -102t-7 -78t-13 -80t-19 -109t-27 -166q-82 62 -159 158t-146 193t-130 178t-111 117l-248 -632z" />
<glyph unicode="x" horiz-adv-x="1050" d="M26 1228l52 52l410 -460l256 512l104 -76l-260 -564v-13t2 -13q34 -48 100 -134t135 -180t126 -181t73 -137l-102 -50l-384 528q-30 -22 -66 -87t-72 -143t-66 -151t-48 -109l-106 28l210 586z" />
<glyph unicode="y" horiz-adv-x="1024" d="M26 1150q60 52 95 59t39 3q18 -28 63 -100t102 -168t121 -203t121 -203t99 -170t58 -104l122 990l132 -66l-286 -2290l-120 8q0 134 23 275t49 283t43 283q10 83 10 164q0 57 -5 113z" />
<glyph unicode="z" horiz-adv-x="1280" d="M38 1178q2 0 54 7t133 18t181 24t199 24t187 20t146 11l-236 -586l252 20l6 -126l-374 -26l-154 -440q140 -7 277 -7q55 0 109 1q190 4 386 6v-90q-3 1 -14 1q-17 0 -51 -2q-57 -3 -144 -8t-192 -11t-209 -10t-195 -4t-149 6l190 558h-146l-10 118l252 14l220 430 l-706 -46z" />
<glyph unicode="{" horiz-adv-x="794" d="M26 614q30 86 74 154t85 135t70 144t29 181q0 56 -9 108t-19 104t-19 105t-9 107q0 72 35 135t91 110t126 75t138 28q20 0 45 -3t45 -13t34 -27t14 -47q-54 0 -127 -14t-139 -46t-112 -82t-46 -124q0 -58 9 -113t21 -111t21 -112t9 -116q0 -68 -18 -127t-39 -116 t-39 -114t-18 -121q0 -10 1 -28t3 -20q50 -122 75 -206t43 -147t33 -112t45 -99t79 -111t135 -145q8 -10 7 -26t-9 -33t-21 -29t-27 -14q-96 0 -154 34t-92 90t-50 129t-27 151t-26 154t-45 140t-82 110t-140 62z" />
<glyph unicode="|" horiz-adv-x="386" d="M78 2034q0 4 1 25t2 46t3 51t2 40v37t10 58t34 44t72 -3l2 -71t4 -193t4 -286t5 -348t6 -379t5 -382t4 -355t4 -298q-2 -24 -6 -42t-15 -29t-32 -17t-57 -6q-2 2 -4 68t-5 178t-7 261t-8 317t-8 346t-7 347t-5 322t-4 269z" />
<glyph unicode="}" d="M22 1760q0 60 39 100t94 65t115 36t102 11q88 0 151 -35t104 -93t60 -131t19 -151q0 -96 -11 -187t-23 -171t-20 -146t2 -112q84 -88 128 -197t65 -228t26 -243t11 -244q0 -70 -20 -130t-62 -104t-105 -68t-147 -24v60q72 18 114 40t65 52t29 68t6 86q0 38 -10 110 t-26 162t-38 187t-46 182t-48 150t-46 89q22 228 23 384t-11 257t-35 155t-50 81t-54 34t-49 15q-48 0 -91 -9t-85 -21t-85 -21t-91 -9z" />
<glyph unicode="~" horiz-adv-x="830" d="M114 1338q0 126 40 177t132 51q50 -24 84 -57t61 -61t50 -45t50 -6t61 55t84 138q16 0 36 -13t20 -41q-44 -110 -85 -164t-79 -69t-75 1t-71 45t-67 62t-65 55q-28 22 -46 7t-31 -45t-23 -66t-21 -58t-24 -18t-31 52z" />
<glyph unicode="&#xa1;" horiz-adv-x="422" d="M91 78q0 -22 4.5 -30.5t15.5 -10.5t30 -3t48 -10l137 1146q-5 4 -22.5 8.5t-22.5 4.5q-31 0 -47 -11.5t-24.5 -32t-12 -49t-8.5 -62.5q-2 -11 -7.5 -63.5t-14.5 -130t-19 -170.5t-20 -185.5t-19 -174.5t-15 -136v-14q-1 -14 -1 -30t-1 -30t-1 -16zM206.5 1540 q3.5 -38 27 -66t56.5 -32.5t70 19.5t66 89q0 27 -9 53t-24.5 47.5t-38 35.5t-49.5 14q-58 -36 -80 -79t-18.5 -81zM306 1576.5q0 11.5 4.5 20t15.5 4.5q22 -6 22 -24.5t-22 -24.5q-11 -2 -15.5 5.5t-4.5 19z" />
<glyph unicode="&#xa2;" horiz-adv-x="1000" d="M50 456q0 90 26 197t77 205t126 172t175 98l6 114v37t10 58t34 44t74 -3q0 -2 1 -65t1 -173q48 -2 78 -29t45 -70t20 -95t6 -105t0 -99t5 -76h-68q-2 14 -6 55t-13 91t-24 100t-41 82q2 -176 3 -401t5 -467q42 18 83 42t83 45t86 36t92 15q0 -54 -32 -97t-81 -75 t-110 -53t-121 -33q0 -16 1 -33t1 -37q-2 -24 -7 -28t-19 0t-36 11t-56 7q-6 4 -8 68q-90 0 -166 38t-132 101t-87 147t-31 176zM152 514q4 -66 20 -145t52 -143t94 -103t144 -23h2q-2 72 -3 171t-2 218t-3 254t-4 279q-64 -22 -119 -84t-95 -138t-63 -154t-23 -132z" />
<glyph unicode="&#xa3;" horiz-adv-x="1308" d="M33 744q1 22 13 62q2 2 13 5t46 6t104 8t189 15q24 4 57 7t65 2t58 -6t35 -18t-4 -34t-59 -53q-64 -6 -104 -10t-76 -6t-77 -4t-105 -8q-2 0 -16 -1t-30 -3t-32 -3t-20 -1q-16 0 -30 1t-21 10t-6 31zM157 1153q19 169 74 251t124 103t144 -5t133 -68t91 -88t19 -66 t-84 -1t-218 107q-56 34 -89 -6t-48 -131t-16 -220t7 -274t23 -295t31 -280q118 52 229 70t213 10t195 -37t177 -71l-14 -96q-30 16 -96 28t-150 19t-177 8t-179 -7t-156 -25t-106 -45q-92 404 -119 677t-8 442z" />
<glyph unicode="&#xa4;" horiz-adv-x="1184" d="M62 -46l176 264q-22 52 -33 119t-11 151q0 48 7 108t21 125t37 130t53 125l-154 252l50 52l170 -192q52 68 120 110t156 42q60 0 114 -31t100 -83l104 130l106 -76l-130 -176q46 -90 69 -196t19 -210q0 -152 -58 -278q62 -88 112 -164t66 -122l-104 -50l-150 208 q-64 -78 -144 -127t-163 -63t-160 11t-133 95q-50 -60 -87 -107t-47 -73zM286 496q6 -162 55 -250t118 -116t149 -2t149 94t118 171t55 231q2 96 -16 187t-55 161t-89 112t-118 42q-64 0 -116 -33t-92 -87t-70 -123t-50 -139t-29 -135t-9 -113z" />
<glyph unicode="&#xa5;" horiz-adv-x="930" d="M-30 1968l50 52l528 -996q24 110 63 246t87 274t103 263t109 215q4 2 13 2h13q8 0 23 -3t29 -9t22 -16t2 -26q-34 -68 -89 -183t-111 -260t-103 -312t-67 -339v-98q62 4 126 7t122 3v-108l-252 -10v-174q108 4 190 1t98 -21v-66l-23 -1t-63 -2t-92 -2t-110 -3l-2 -352 q-4 -28 -8 -43t-18 -23t-40 -9t-72 -1v422q-88 -4 -164 -10t-126 -12q-2 0 -2 11v25t-1 26t-5 14q36 8 117 19t181 19v176l-308 -10v78q64 8 142 16t166 18v104q-42 58 -91 146t-100 190t-102 211t-96 212t-81 191t-58 148z" />
<glyph unicode="&#xa6;" horiz-adv-x="386" d="M114 1317q0 87 2 162t3 143t-1 146q0 12 1 43t3 65t3 65t1 43q38 -4 66 -19t42 -53q4 -106 13 -305t19 -501l-148 8q-4 116 -4 203zM134 1030l128 6q4 -128 8 -250t8 -226t6 -185t4 -125q0 -4 -1 -18t-2 -32t-3 -35t-2 -25q-2 -16 -2 -39t-5 -45t-18 -39t-39 -19l-46 56 q-2 2 -5 85t-8 219t-11 311t-12 361z" />
<glyph unicode="&#xa7;" horiz-adv-x="1060" d="M84 1232q0 102 44 169t113 106t156 54t173 15q42 0 92 -4t95 -22t75 -55t30 -103q-4 -46 -14 -55t-26 5t-41 41t-59 52t-80 38t-104 1q-62 0 -130 -12t-121 -42t-82 -81t-13 -127q10 -50 53 -70t107 -25t141 0t155 6t150 -8t124 -41t80 -93t16 -165q0 -30 -14 -67 t-35 -73t-47 -70t-50 -58q34 -16 61 -35t45 -49t26 -72t4 -102q0 -76 -49 -136t-123 -99t-161 -55t-163 0q-34 6 -80 23t-95 41t-97 54t-83 63t-53 66t-10 65q48 0 105 -33t115 -74t115 -74t105 -33q56 0 121 8t122 29t95 60t38 99q-4 16 -4 36t-10 44t-36 53t-82 65 q-56 -28 -114 -34t-114 -14q-74 -10 -148 11t-132 63t-94 101t-37 125t41 135t140 131q-6 0 -12 -1t-14 -1q-40 0 -77 22t-67 55t-48 72t-18 75zM228 694q0 -24 36 -62t108 -61t179 -18t249 69q50 38 83 88t33 112q-4 100 -89 150t-217 40q-62 0 -130 -20t-124 -61t-92 -100 t-36 -137z" />
<glyph unicode="&#xa8;" horiz-adv-x="926" d="M124 1450q-10 40 1 62t33 33t48 13t48 2q20 0 46 -2t47 -13t32 -33t1 -62q-10 -36 -47 -71t-79 -35q-22 0 -43 10t-39 25t-30 34t-18 37zM518 1450q-10 40 1 62t33 33t48 13t48 2q20 0 46 -2t47 -13t32 -33t1 -62q-4 -18 -17 -37t-30 -34t-38 -25t-41 -10q-44 0 -82 35 t-48 71z" />
<glyph unicode="&#xa9;" horiz-adv-x="1388" d="M62 730q-2 120 27 250t96 241t178 188t273 89q114 -2 211 -46t175 -116t137 -166t96 -199t52 -215t7 -212q-16 -186 -83 -319t-166 -218t-219 -125t-242 -42q-120 0 -206 42t-147 112t-98 161t-57 190t-27 198t-7 187zM164 730q0 -66 3 -146t15 -162t35 -160t65 -138 t104 -97t152 -37q126 -20 240 2t204 89t150 182t76 281q12 66 -1 154t-47 183t-87 187t-121 165t-148 118t-166 45q-120 -14 -209 -89t-148 -175t-88 -209t-29 -193zM340 602q0 80 29 184t80 196t122 155t153 63q44 8 73 -12t47 -58t29 -88t16 -99t7 -92t6 -69l-82 -22 q-2 14 -6 62t-15 100t-32 92t-55 40q-52 0 -97 -47t-80 -113t-55 -138t-20 -120q2 -52 14 -115t37 -115t66 -82t101 -18q44 0 85 20t80 45t79 45t86 20q0 -56 -36 -102t-88 -78t-109 -50t-97 -18q-64 0 -125 37t-108 96t-76 133t-29 148z" />
<glyph unicode="&#xaa;" horiz-adv-x="598" d="M22 736q0 85 54 124t142 39q34 0 64.5 -1t58 -7.5t54 -18.5t55.5 -35q0 6 0.5 20t0.5 30.5v31v19.5q-2 28 -1.5 70.5t-7 87.5t-31.5 86t-75 61q-35 0 -66.5 -10t-62.5 -22t-61.5 -22t-65.5 -10q0 38 26.5 62t63.5 37.5t79 18t71 4.5q31 -4 58 -9.5t50 -23.5t42.5 -55.5 t34.5 -103.5t26.5 -167.5t17.5 -248.5q3 -19 -15 -33.5t-48.5 -24.5t-69.5 -16t-78.5 -9.5t-75 -4.5t-59.5 -1q-30 0 -62.5 9t-58.5 26t-43 41.5t-17 55.5zM96.5 734q4.5 -28 39.5 -49.5t86.5 -28t112 7.5t115.5 57q-22 43 -42.5 66.5t-44 35.5t-52.5 14.5t-65 2.5 q-86 -20 -120 -49t-29.5 -57z" />
<glyph unicode="&#xab;" horiz-adv-x="1270" d="M86 436q0 4 1 13t3 11l564 768h62q0 -66 -29 -138t-73 -142t-99 -137t-108 -124t-97 -103t-66 -72v-102q22 -8 66 -28t100 -45t117 -52t116 -53t99 -47t64 -31q8 -4 24 -17t32 -30t30 -32t18 -23q-16 -32 -32 -43t-44 -11q-20 0 -84 29t-147 73t-174 96t-167 101t-126 87 t-50 52zM412 518q0 4 1 13t3 11l562 768h64q0 -66 -29 -138t-73 -142t-99 -137t-108 -124t-97 -103t-66 -72v-102q22 -8 66 -28t100 -45t117 -52t116 -53t99 -47t64 -31q8 -4 24 -17t32 -30t29 -32t17 -23q-16 -32 -31 -43t-43 -11q-20 0 -84 29t-147 73t-174 96t-167 101 t-126 87t-50 52zM412 518q0 4 1 13t3 11l562 768h64q0 -66 -29 -138t-73 -142t-99 -137t-108 -124t-97 -103t-66 -72v-102q22 -8 66 -28t100 -45t117 -52t116 -53t99 -47t64 -31q8 -4 24 -17t32 -30t29 -32t17 -23q-16 -32 -31 -43t-43 -11q-20 0 -84 29t-147 73t-174 96 t-167 101t-126 87t-50 52z" />
<glyph unicode="&#xac;" horiz-adv-x="1036" d="M86 798q86 -24 192 -13t217 29t222 30t209 -12q-8 -78 -9 -116t1 -75t7 -91t9 -160q-22 -30 -54 -24t-68 6v116v228l-722 -52z" />
<glyph unicode="&#xad;" horiz-adv-x="1038" d="M38 564l52 50q2 2 61 11t153 20t211 22t237 21q12 0 43 2t65 3t65 2t43 1q0 -34 -14 -64t-48 -46q-64 -6 -159 -16t-197 -21t-198 -21t-160 -16q-4 0 -25 -1t-31 -1q-34 0 -58 5t-40 49z" />
<glyph unicode="&#xae;" horiz-adv-x="1382" d="M70 746q0 88 12 186t40 193t72 181t107 152t147 105t190 39q110 28 210 -9t182 -117t146 -193t104 -238t52 -251t-8 -232q-16 -188 -84 -321t-167 -218t-219 -125t-242 -42q-118 0 -205 42t-147 112t-97 161t-58 190t-28 199t-7 186zM172 746q0 -64 3 -145t15 -163 t35 -160t65 -138t104 -97t152 -37q126 -20 240 2t204 89t150 182t76 283q18 74 8 177t-43 212t-86 214t-122 185t-153 123t-178 29q-82 0 -149 -38t-119 -101t-90 -143t-63 -164t-37 -165t-12 -145zM336 942q0 50 49 96t115 80t135 54t111 20q40 0 81 -11t73 -33t53 -56 t21 -80q0 -40 -14 -79t-37 -75t-51 -68t-56 -60q100 -58 148 -112t69 -109t30 -112t31 -123l-92 -16q-10 34 -25 99t-43 129t-73 111t-115 47q-18 0 -50 -4t-63 -12t-53 -20t-22 -26v-304q-6 0 -22 -2t-33 -4t-29 -1t-12 7l10 684q-38 -6 -45 -37t-9 -59q-6 0 -20 10t-27 23 t-24 25t-11 18zM558 684q50 0 108 34t108 84t84 106t34 100q0 58 -39 74t-95 16q-16 0 -49 -2t-66 -10t-59 -24t-26 -42v-336z" />
<glyph unicode="&#xaf;" horiz-adv-x="1202" d="M84 1296l30 76l962 8v-102q-28 6 -99 4t-164 -5t-200 -8t-208 -4t-186 7t-135 24z" />
<glyph unicode="&#xb0;" horiz-adv-x="614" d="M9 962q0 37 7.5 85.5t23.5 98t40 97.5t58.5 85.5t79 60.5t99.5 23q58 0 107 -35.5t84 -91t53 -124t14 -133.5q1 -96 -40.5 -171t-104.5 -121.5t-136.5 -62t-136.5 9t-105.5 92.5t-42.5 187zM76 956q4 -97 36.5 -149.5t79 -69.5t100 -1.5t100 56.5t79.5 102.5t37 137.5 q3 58 -10 112.5t-37 96t-60 67t-80 25.5q-43 0 -77.5 -20t-62 -52t-47 -73.5t-33 -83.5t-19.5 -80.5t-6 -67.5z" />
<glyph unicode="&#xb1;" horiz-adv-x="872" d="M40 744l314 20v320q46 16 86 16t60 -18l8 -292h308v-118q-92 -8 -172 -14t-136 -6l-12 -262q14 0 27 1t29 3q12 0 43 2t66 3t66 2t43 1q0 -36 -15 -65t-49 -47q-126 -12 -243 -19t-245 -17q-4 0 -26 -1t-32 -1q-34 0 -58 5t-38 49l50 50q4 4 57 7t173 13q-2 42 -3 72 t-2 57t-1 56t-2 69h-274z" />
<glyph unicode="&#xb2;" horiz-adv-x="860" d="M31 725q0 17 36 23t89.5 15.5t116 27t116 57.5t89.5 109.5t36 179.5q0 47 -9 98t-31 93.5t-64 70.5t-107 28q-27 0 -48.5 -11t-38.5 -27t-33 -35t-34.5 -35t-41 -27t-53.5 -11q0 44 22.5 82t58.5 67t81 44.5t90 15.5q71 0 128 -32t96.5 -82t61 -111.5t21.5 -119.5 q0 -56 -17.5 -111.5t-46.5 -107t-65 -99t-76 -87.5q40 -31 91.5 -49t106 -28t108 -13.5t100.5 -3.5q1 -2 2.5 -7.5t1.5 -7.5q0 -18 -14 -28t-34 -15t-41 -5.5t-34 -0.5q-48 0 -91 7.5t-85 21t-86 30.5t-93 37q-47 -25 -86 -29.5t-88 -4.5q-20 0 -43.5 3t-44 11.5t-34 24 t-13.5 42.5zM171 708q4 -7 14 -10t20.5 -3t20 3t13.5 10t-7.5 11t-26 4t-26.5 -4t-8 -11z" />
<glyph unicode="&#xb3;" horiz-adv-x="696" d="M61 1335q0 53 32.5 97t81 74.5t104 47t102.5 16.5q22 0 43 -14.5t38 -36.5t28 -47.5t11 -48.5q0 -26 -9 -54.5t-22 -57t-29.5 -53.5t-31.5 -44q42 -13 85.5 -37.5t79 -59t58 -78.5t22.5 -96q0 -72 -23 -134.5t-64.5 -108t-99 -72t-124.5 -26.5q-18 0 -57.5 1.5t-80.5 8.5 t-72 20t-31 38v36q27 0 53.5 -5.5t53 -13t53.5 -13t56 -5.5q54 0 104 17.5t88 50.5t60.5 81t22.5 110q0 44 -19 79.5t-50 61t-69.5 39.5t-75.5 14h-16.5t-20 -0.5t-17 -1.5t-9.5 -1q-3 0 -16.5 -5.5t-29 -11t-29 -10.5t-17.5 -5q-3 0 -8 3.5t-10.5 8.5t-9 10.5t-3.5 9.5 q11 10 38 37t56 57.5t55 58.5t36 39q6 7 16 22l20 30t17.5 27.5t7.5 16.5q-11 54 -37.5 71t-62 11.5t-76 -27.5t-79 -48.5t-71.5 -49t-52 -29.5z" />
<glyph unicode="&#xb4;" horiz-adv-x="482" d="M56 1378q94 122 145 196t76 111t33 44t15 -4t23 -33t58 -42q-36 -46 -70 -83t-67 -73t-66 -74t-69 -82z" />
<glyph unicode="&#xb5;" horiz-adv-x="1222" d="M52 1034q-2 14 16 28t43 22t49 10t34 -8q18 -330 64 -526t106 -287t129 -92t136 58t124 164t93 225t45 240t-21 212l160 20q2 -42 14 -134t27 -208t33 -241t32 -233t24 -184t10 -94h-114l-124 460q-36 -88 -90 -167t-119 -138t-136 -91t-142 -29t-138 49t-121 144 l-14 -308q-14 -2 -34 -7t-38 -6t-31 6t-11 31q2 42 6 121t7 178t4 210t0 218t-7 200t-16 157z" />
<glyph unicode="&#xb6;" horiz-adv-x="992" d="M28 840q0 362 362 362q56 0 120 1t131 -2t137 -12t138 -31q8 -148 15 -226t11 -119t6 -64t3 -61t1 -110v-212q0 -30 3 -80t7 -99t7 -86t3 -39l-112 -24q-6 108 -9 190t-6 152t-5 135t-5 142t-8 172t-13 225q-12 0 -22 2t-22 3t-24 5q0 -4 1 -10t1 -10q8 -126 16 -228 t14 -199t9 -201t3 -234v-26t-1 -39t-1 -39v-24q-64 -20 -91 7t-32 84t1 135t6 161t-15 161t-63 136q-52 -54 -93 -86t-81 -49t-85 -23t-105 -6q-48 0 -86 21t-63 57t-39 84t-14 104z" />
<glyph unicode="&#xb7;" horiz-adv-x="458" d="M156 613q4 41 30 71t62 35t77 -21t73 -96q0 -28 -10 -56t-27 -51t-42 -38t-55 -15q-64 38 -88 84t-20 87zM266 574q0 -12 5 -21t17 -5q24 8 24 27t-24 25q-12 2 -17 -6t-5 -20z" />
<glyph unicode="&#xb8;" horiz-adv-x="864" d="M246 -100q-14 80 9 129t49 53t38 -42t-24 -156q0 -42 33 -51t83 -6t108 7t108 -11t83 -59t33 -136q0 -60 -27 -104t-69 -72t-94 -38t-104 -4q-22 2 -59 13t-72 32t-61 52t-26 73q32 0 60 -14t56 -32t56 -32t60 -14q36 -6 82 15t82 54t52 71t-7 65t-95 38t-212 -9 q-26 0 -52 17t-46 44t-32 58t-12 59z" />
<glyph unicode="&#xb9;" horiz-adv-x="688" d="M43 1355q1 0 22 8.5t53 19.5t72 25t80 26.5t75.5 22t59.5 13.5v-727q17 -13 46.5 -15.5t63 -1l67 3t57.5 -3.5l-2 -59q-70 0 -139 -5.5t-136.5 -12.5t-135 -12.5t-135.5 -5.5q-18 0 -23 17.5t-17 36.5q32 7 49.5 9t28.5 3t19.5 1t22 2t37 5t66.5 11q15 39 23.5 90.5 t13.5 110t7.5 121t4.5 123.5t5.5 118t10.5 103q-2 0 -8 1t-7 1q-37 0 -70 -13.5t-66 -28.5t-66.5 -28t-70.5 -13z" />
<glyph unicode="&#xba;" horiz-adv-x="614" d="M9 962q0 37 7.5 85.5t23.5 98t40 97.5t58.5 85.5t79 60.5t99.5 23q58 0 107 -35.5t84 -91t53 -124t14 -133.5q1 -96 -40.5 -171t-104.5 -121.5t-136.5 -62t-136.5 9t-105.5 92.5t-42.5 187zM76 956q4 -97 36.5 -149.5t79 -69.5t100 -1.5t100 56.5t79.5 102.5t37 137.5 q3 58 -10 112.5t-37 96t-60 67t-80 25.5q-43 0 -77.5 -20t-62 -52t-47 -73.5t-33 -83.5t-19.5 -80.5t-6 -67.5z" />
<glyph unicode="&#xbb;" horiz-adv-x="1286" d="M78 1228v154q20 -18 64 -54t100 -82t117 -96t117 -95t100 -81t66 -52q24 -18 59 -33t68 -34t57 -45t24 -66q0 -4 -1 -14t-3 -14q-18 -24 -53 -77t-81 -118t-96 -138t-96 -138t-82 -117t-52 -76q-22 -30 -44 -47t-60 -17v114l410 614zM440 1278v154q20 -18 64 -55t100 -82 t117 -95t117 -96t100 -82t66 -52q24 -18 59 -33t68 -33t57 -44t24 -68q0 -4 -1 -13t-3 -13q-18 -24 -53 -77t-81 -119t-96 -138t-95 -138t-81 -118t-54 -76q-22 -28 -44 -46t-58 -18v116l408 614z" />
<glyph unicode="&#xbc;" horiz-adv-x="1680" d="M64 1438q1 0 21 7.5t51 18t69.5 23.5t77 24.5t73 20.5t57.5 13v-678q16 -12 45 -14t61 -1t64.5 2.5t55.5 -2.5l-2 -56q-67 0 -133.5 -5t-132 -11.5t-130.5 -11.5t-131 -5q-18 0 -23 16t-16 35q31 6 48 8t27.5 3t18.5 1t21 1.5t36 4.5t64 10q15 36 23 84t13 103t7.5 113 t4.5 114.5t5 110t11 96.5q-3 0 -8.5 0.5t-6.5 0.5q-36 0 -68 -12t-63.5 -26t-64 -26.5t-68.5 -12.5zM556 60l289 1388q3 16 8.5 36t14 27t20.5 -5t29 -58l-304 -1468zM863 520q0 58 7 115t16.5 114.5t16.5 115t7 115.5q7 0 18 -3t21 -8t17 -11.5t7 -12.5v-329q2 0 24.5 -2 t54.5 -3.5t69 -2t68 2t52 8.5t21 18v315q7 0 22.5 -3t31 -7.5t26.5 -10.5t11 -13v-266h281q-5 -17 -9 -31q-3 -12 -6.5 -24t-5.5 -17q-39 -7 -84.5 -10t-85 -3.5t-67 0t-28.5 0.5l5 -547h-73v533q-5 0 -22 0.5t-23 0.5q-46 0 -92.5 -5.5t-92.5 -11.5t-92.5 -11.5t-94.5 -5.5 z" />
<glyph unicode="&#xbd;" horiz-adv-x="1766" d="M128 1403q2 0 22 8t51.5 20t70.5 26t78 26.5t74 23t59 14.5v-749q16 -13 45 -15.5t62 -1.5t65.5 3t56.5 -3l-2 -61q-68 0 -135.5 -5.5t-134 -13t-132.5 -13t-133 -5.5q-18 0 -23 18t-16 38q31 6 48.5 8.5t28 3.5t18.5 1t21.5 2t36.5 5t65 11q15 40 23.5 93.5t13.5 113.5 t7.5 124.5t4.5 127t5 121t10 106.5q-2 0 -7.5 1t-7.5 1q-36 0 -68.5 -13.5t-64.5 -29.5t-65 -29t-69 -13zM556 30l410 1382q4 16 12 36t20 27t29 -5t41 -58l-432 -1462zM947 87q0 18 35 24.5t87.5 16.5t114.5 28.5t114.5 61t88 116t35.5 190.5q0 49 -8.5 103t-30.5 99 t-63 74.5t-105 29.5q-27 0 -48 -11.5t-38 -28t-32.5 -37t-34 -37.5t-40.5 -28.5t-53 -11.5q0 46 22 86.5t58 71t80 47t88 16.5q71 0 127 -34t95 -86.5t59.5 -118t20.5 -126.5q0 -60 -17 -118.5t-45.5 -113t-64 -105t-74.5 -92.5q39 -32 89.5 -51.5t104.5 -30t107 -14 t98 -3.5q1 -3 2.5 -8.5t1.5 -7.5q0 -19 -13.5 -30t-33 -16t-40.5 -6t-34 -1q-47 0 -89 8.5t-84 22.5t-85 32.5t-91 38.5q-47 -26 -85 -31t-86 -5q-20 0 -43.5 3.5t-43.5 12.5t-33 25.5t-13 44.5zM1085 69q4 -7 13.5 -10.5t20 -3.5t19.5 3.5t13 10.5q4 8 -7 12t-25.5 4 t-26 -4t-7.5 -12z" />
<glyph unicode="&#xbe;" horiz-adv-x="2854" d="M62 1164q0 86 54 156t135 119t174 75t171 26q36 0 71 -23t64 -58t47 -76t18 -77q0 -42 -15 -88t-37 -91t-49 -85t-53 -70q70 -22 143 -61t132 -94t97 -125t38 -154q0 -114 -39 -214t-108 -173t-165 -115t-208 -42q-30 0 -96 2t-134 13t-120 32t-52 61v58q46 0 90 -9 t88 -21t89 -21t93 -9q90 0 174 28t147 81t101 130t38 175q0 70 -32 127t-84 98t-116 63t-126 22h-27t-33 -1t-29 -2t-15 -1q-6 0 -28 -9t-48 -18t-49 -17t-29 -8t-14 6t-17 14t-15 17t-6 15q18 16 63 59t94 92t92 93t59 62q10 12 27 36l34 48t29 44t12 26q-18 86 -62 113 t-103 18t-127 -44t-132 -77t-119 -78t-87 -48zM1114 52l410 1382q4 16 12 36t20 27t29 -5t41 -58l-432 -1462zM1714 964q0 106 10 210t23 209t23 210t10 211q10 0 26 -6t30 -15t24 -21t10 -22v-602q2 0 34 -3t78 -6t98 -4t96 4t74 16t30 33v574q10 0 32 -5t44 -14t38 -20 t16 -23v-486h398q-6 -30 -12 -56q-4 -22 -9 -44t-9 -30q-54 -14 -119 -19t-121 -6t-95 0t-41 1l8 -998h-104v972q-8 0 -32 1t-32 1q-66 0 -132 -10t-131 -21t-131 -21t-134 -10z" />
<glyph unicode="&#xbf;" horiz-adv-x="858" d="M70 236q32 -52 75.5 -89t93.5 -62t105 -37t110 -12q42 0 102 11.5t116.5 37t96 68.5t39.5 106q0 66 -40.5 137t-95 134.5t-114 114t-97.5 79.5v229q-43 0 -67 -28t-35 -68t-13.5 -83.5t-2.5 -76.5q0 -55 28 -93t69 -67.5t90.5 -54.5t91 -54.5t69 -69.5t27.5 -99 q0 -42 -26 -67t-63 -38t-77 -17t-67 -4q-51 0 -96.5 24t-88.5 53.5t-82.5 53t-77.5 23.5q-27 0 -41.5 -11.5t-28.5 -39.5zM436 1382q0 -27 10 -42.5t37 -30.5q29 15 38.5 30.5t9.5 42.5q0 28 -9.5 43.5t-38.5 30.5q-27 -15 -37 -30.5t-10 -43.5z" />
<glyph unicode="&#xc0;" horiz-adv-x="1062" d="M56 52q0 8 1 30t2 46t3 46t2 30q16 154 25 313t23 308t37 285t65 246t106 189t160 117q98 0 172 -57t129 -153t92 -222t61 -263t37 -277t19 -263t7 -222t1 -153h-64l-102 562q-14 14 -60 16t-109 -3t-136 -14t-139 -14t-119 -3t-77 18v-562h-136zM256 708q130 0 266 19 t258 41q2 10 3 35t3 54t3 55t1 36q0 86 -9 167t-37 156t-81 142t-139 127q-70 0 -117 -50t-76 -128t-45 -174t-22 -188t-7 -171t-1 -121zM384 2058l76 96q48 -48 73 -86t44 -77t40 -85t61 -110q0 -18 -8 -25t-22 -11t-32 -8t-38 -14q-36 60 -55 94t-36 64t-39 65t-64 97z " />
<glyph unicode="&#xc1;" horiz-adv-x="1062" d="M56 52q0 8 1 30t2 46t3 46t2 30q16 154 25 313t23 308t37 285t65 246t106 189t160 117q98 0 172 -57t129 -153t92 -222t61 -263t37 -277t19 -263t7 -222t1 -153h-64l-102 562q-14 14 -60 16t-109 -3t-136 -14t-139 -14t-119 -3t-77 18v-562h-136zM256 708q130 0 266 19 t258 41q2 10 3 35t3 54t3 55t1 36q0 86 -9 167t-37 156t-81 142t-139 127q-70 0 -117 -50t-76 -128t-45 -174t-22 -188t-7 -171t-1 -121zM342 1788q94 122 145 196t76 111t33 44t15 -4t23 -33t58 -42q-36 -46 -70 -83t-67 -73t-66 -74t-69 -82z" />
<glyph unicode="&#xc2;" horiz-adv-x="1062" d="M56 52q0 8 1 30t2 46t3 46t2 30q16 154 25 313t23 308t37 285t65 246t106 189t160 117q98 0 172 -57t129 -153t92 -222t61 -263t37 -277t19 -263t7 -222t1 -153h-64l-102 562q-14 14 -60 16t-109 -3t-136 -14t-139 -14t-119 -3t-77 18v-562h-136zM210 1942l356 484 q48 -48 84 -104t68 -117t64 -125t72 -128q0 -18 -8 -25t-22 -11t-32 -8t-38 -16q-36 60 -55 95t-36 65t-39 65t-64 97q-36 -46 -70 -84t-67 -74t-66 -73t-69 -83zM256 708q130 0 266 19t258 41q2 10 3 35t3 54t3 55t1 36q0 86 -9 167t-37 156t-81 142t-139 127 q-70 0 -117 -50t-76 -128t-45 -174t-22 -188t-7 -171t-1 -121z" />
<glyph unicode="&#xc3;" horiz-adv-x="1062" d="M56 52q0 8 1 30t2 46t3 46t2 30q16 154 25 313t23 308t37 285t65 246t106 189t160 117q98 0 172 -57t129 -153t92 -222t61 -263t37 -277t19 -263t7 -222t1 -153h-64l-102 562q-14 14 -60 16t-109 -3t-136 -14t-139 -14t-119 -3t-77 18v-562h-136zM222 1748q0 126 40 177 t132 51q50 -24 84 -57t61 -61t50 -45t50 -6t61 55t84 138q16 0 36 -13t20 -41q-44 -110 -85 -164t-79 -69t-75 1t-71 45t-67 62t-65 55q-28 22 -46 7t-31 -45t-23 -66t-21 -58t-24 -18t-31 52zM256 708q130 0 266 19t258 41q2 10 3 35t3 54t3 55t1 36q0 86 -9 167t-37 156 t-81 142t-139 127q-70 0 -117 -50t-76 -128t-45 -174t-22 -188t-7 -171t-1 -121z" />
<glyph unicode="&#xc4;" horiz-adv-x="1062" d="M56 52q0 8 1 30t2 46t3 46t2 30q16 154 25 313t23 308t37 285t65 246t106 189t160 117q98 0 172 -57t129 -153t92 -222t61 -263t37 -277t19 -263t7 -222t1 -153h-64l-102 562q-14 14 -60 16t-109 -3t-136 -14t-139 -14t-119 -3t-77 18v-562h-136zM206 1860q-10 40 1 62 t33 33t48 13t48 2q20 0 46 -2t47 -13t32 -33t1 -62q-10 -36 -47 -71t-79 -35q-22 0 -43 10t-39 25t-30 34t-18 37zM256 708q130 0 266 19t258 41q2 10 3 35t3 54t3 55t1 36q0 86 -9 167t-37 156t-81 142t-139 127q-70 0 -117 -50t-76 -128t-45 -174t-22 -188t-7 -171 t-1 -121zM600 1860q-10 40 1 62t33 33t48 13t48 2q20 0 46 -2t47 -13t32 -33t1 -62q-4 -18 -17 -37t-30 -34t-38 -25t-41 -10q-44 0 -82 35t-48 71z" />
<glyph unicode="&#xc5;" horiz-adv-x="1062" d="M76 20q0 8 1 30t2 46t3 46t2 30q16 154 25 313t23 308t37 285t65 246t106 189t160 117q98 0 172 -57t129 -153t92 -222t61 -263t37 -277t19 -263t7 -222t1 -153h-64l-102 562q-14 14 -60 16t-109 -3t-136 -14t-139 -14t-119 -3t-77 18v-562h-136zM276 676q130 0 266 19 t258 41q2 10 3 35t3 54t3 55t1 36q0 86 -9 167t-37 156t-81 142t-139 127q-70 0 -117 -50t-76 -128t-45 -174t-22 -188t-7 -171t-1 -121zM366 1762q0 20 3 50t15 57t33 47t57 20q98 0 146 -55t48 -127q0 -22 -8 -50t-25 -53t-44 -42t-65 -17q-46 0 -77 16t-49 41t-26 55 t-8 58zM420 1762q26 -70 53 -90t51 -10t42 41t28 65q-8 56 -41 83t-66 25t-56 -30t-11 -84z" />
<glyph unicode="&#xc6;" horiz-adv-x="2118" d="M56 52q0 8 1 30t2 46t3 46t2 30q16 154 25 313t23 308t37 285t65 246t106 189t160 117q98 0 172 -57t129 -153t92 -222t61 -263t37 -277t19 -263t7 -222t1 -153h-64l-102 562q-14 14 -60 16t-109 -3t-136 -14t-139 -14t-119 -3t-77 18v-562h-136zM256 708q130 0 266 19 t258 41q2 10 3 35t3 54t3 55t1 36q0 86 -9 167t-37 156t-81 142t-139 127q-70 0 -117 -50t-76 -128t-45 -174t-22 -188t-7 -171t-1 -121zM796 1434q42 62 113 106t158 73t186 45t196 25t187 11t160 2q6 0 24 -1t39 -2t39 -2t26 -1q10 -58 -13 -80t-59 -26t-75 2t-59 2 q-26 -4 -83 -16t-127 -27t-148 -32t-149 -32t-127 -28t-82 -19q-44 -14 -49 -39t-5 -57q0 -54 7 -124t16 -138t18 -124t13 -82q10 -2 39 -2h39q62 0 121 10t118 23t120 23t125 10v-98q-26 0 -75 -5t-106 -15t-116 -22t-107 -25t-78 -27t-30 -26v-556q126 0 250 8t249 18 t250 18t251 8q0 -34 -21 -54t-50 -31t-60 -17t-49 -8q-10 -2 -66 -8t-139 -16t-184 -21t-200 -22t-187 -20t-146 -15q-8 -2 -24 -2q0 358 -23 721t-107 715z" />
<glyph unicode="&#xc7;" horiz-adv-x="1164" d="M36 692q0 82 17 185t51 208t86 205t121 179t155 126t190 47q74 0 126 -29t84 -77t47 -108t15 -120q-58 0 -88 36t-55 79t-58 79t-99 36q-90 0 -158 -47t-118 -123t-83 -172t-54 -192t-29 -186t-8 -152q-10 -90 -1 -187t44 -178t102 -136t177 -63q68 0 153 22t170 53 t162 67t129 64v-104q-2 -2 -33 -14t-80 -30t-111 -40l-124 -44t-119 -42t-97 -34q-2 0 -11 -1t-13 -1q-148 0 -242 63t-150 163t-77 224t-21 244zM434 -138q-14 80 9 129t49 53t38 -42t-24 -156q0 -42 33 -51t83 -6t108 7t108 -11t83 -59t33 -136q0 -60 -27 -104t-69 -72 t-94 -38t-104 -4q-22 2 -59 13t-72 32t-61 52t-26 73q32 0 60 -14t56 -32t56 -32t60 -14q36 -6 82 15t82 54t52 71t-7 65t-95 38t-212 -9q-26 0 -52 17t-46 44t-32 58t-12 59z" />
<glyph unicode="&#xc8;" horiz-adv-x="1344" d="M38 1434q42 62 113 106t158 73t186 45t196 25t187 11t160 2q6 0 24 -1t39 -2t39 -2t26 -1q10 -58 -13 -80t-59 -26t-75 2t-59 2q-26 -4 -83 -16t-127 -27t-148 -32t-149 -32t-127 -28t-82 -19q-44 -14 -49 -39t-5 -57q0 -54 7 -124t16 -138t18 -124t13 -82q10 -2 39 -2 h39q62 0 121 10t118 23t120 23t125 10v-98q-26 0 -75 -5t-106 -15t-116 -22t-107 -25t-78 -27t-30 -26v-556q126 0 250 8t249 18t250 18t251 8q0 -34 -21 -54t-50 -31t-60 -17t-49 -8q-10 -2 -66 -8t-139 -16t-184 -21t-200 -22t-187 -20t-146 -15q-8 -2 -24 -2 q0 358 -23 721t-107 715zM524 2058l76 96q48 -48 73 -86t44 -77t40 -85t61 -110q0 -18 -8 -25t-22 -11t-32 -8t-38 -14q-36 60 -55 94t-36 64t-39 65t-64 97z" />
<glyph unicode="&#xc9;" horiz-adv-x="1344" d="M38 1434q42 62 113 106t158 73t186 45t196 25t187 11t160 2q6 0 24 -1t39 -2t39 -2t26 -1q10 -58 -13 -80t-59 -26t-75 2t-59 2q-26 -4 -83 -16t-127 -27t-148 -32t-149 -32t-127 -28t-82 -19q-44 -14 -49 -39t-5 -57q0 -54 7 -124t16 -138t18 -124t13 -82q10 -2 39 -2 h39q62 0 121 10t118 23t120 23t125 10v-98q-26 0 -75 -5t-106 -15t-116 -22t-107 -25t-78 -27t-30 -26v-556q126 0 250 8t249 18t250 18t251 8q0 -34 -21 -54t-50 -31t-60 -17t-49 -8q-10 -2 -66 -8t-139 -16t-184 -21t-200 -22t-187 -20t-146 -15q-8 -2 -24 -2 q0 358 -23 721t-107 715zM484 1788q94 122 145 196t76 111t33 44t15 -4t23 -33t58 -42q-36 -46 -70 -83t-67 -73t-66 -74t-69 -82z" />
<glyph unicode="&#xca;" horiz-adv-x="1344" d="M38 1434q42 62 113 106t158 73t186 45t196 25t187 11t160 2q6 0 24 -1t39 -2t39 -2t26 -1q10 -58 -13 -80t-59 -26t-75 2t-59 2q-26 -4 -83 -16t-127 -27t-148 -32t-149 -32t-127 -28t-82 -19q-44 -14 -49 -39t-5 -57q0 -54 7 -124t16 -138t18 -124t13 -82q10 -2 39 -2 h39q62 0 121 10t118 23t120 23t125 10v-98q-26 0 -75 -5t-106 -15t-116 -22t-107 -25t-78 -27t-30 -26v-556q126 0 250 8t249 18t250 18t251 8q0 -34 -21 -54t-50 -31t-60 -17t-49 -8q-10 -2 -66 -8t-139 -16t-184 -21t-200 -22t-187 -20t-146 -15q-8 -2 -24 -2 q0 358 -23 721t-107 715zM348 1942l356 484q48 -48 84 -104t68 -117t64 -125t72 -128q0 -18 -8 -25t-22 -11t-32 -8t-38 -16q-36 60 -55 95t-36 65t-39 65t-64 97q-36 -46 -70 -84t-67 -74t-66 -73t-69 -83z" />
<glyph unicode="&#xcb;" horiz-adv-x="1344" d="M38 1434q42 62 113 106t158 73t186 45t196 25t187 11t160 2q6 0 24 -1t39 -2t39 -2t26 -1q10 -58 -13 -80t-59 -26t-75 2t-59 2q-26 -4 -83 -16t-127 -27t-148 -32t-149 -32t-127 -28t-82 -19q-44 -14 -49 -39t-5 -57q0 -54 7 -124t16 -138t18 -124t13 -82q10 -2 39 -2 h39q62 0 121 10t118 23t120 23t125 10v-98q-26 0 -75 -5t-106 -15t-116 -22t-107 -25t-78 -27t-30 -26v-556q126 0 250 8t249 18t250 18t251 8q0 -34 -21 -54t-50 -31t-60 -17t-49 -8q-10 -2 -66 -8t-139 -16t-184 -21t-200 -22t-187 -20t-146 -15q-8 -2 -24 -2 q0 358 -23 721t-107 715zM346 1860q-10 40 1 62t33 33t48 13t48 2q20 0 46 -2t47 -13t32 -33t1 -62q-10 -36 -47 -71t-79 -35q-22 0 -43 10t-39 25t-30 34t-18 37zM740 1860q-10 40 1 62t33 33t48 13t48 2q20 0 46 -2t47 -13t32 -33t1 -62q-4 -18 -17 -37t-30 -34t-38 -25 t-41 -10q-44 0 -82 35t-48 71z" />
<glyph unicode="&#xcc;" horiz-adv-x="268" d="M-44 2370l76 96q48 -48 73 -86t44 -77t40 -85t61 -110q0 -18 -8 -25t-22 -11t-32 -8t-38 -14q-36 60 -55 94t-36 64t-39 65t-64 97zM38 1844v30q0 32 23 53t55 21h12t14 -2q14 -222 24 -424t17 -396t10 -388t3 -404q0 -30 4 -80t8 -99t7 -87t3 -40l-114 -22 q-6 108 -11 251t-9 304t-8 333t-10 340t-13 324t-15 286z" />
<glyph unicode="&#xcd;" horiz-adv-x="268" d="M-34 2134q94 122 145 196t76 111t33 44t15 -4t23 -33t58 -42q-36 -46 -70 -83t-67 -73t-66 -74t-69 -82zM38 1844v30q0 32 23 53t55 21h12t14 -2q14 -222 24 -424t17 -396t10 -388t3 -404q0 -30 4 -80t8 -99t7 -87t3 -40l-114 -22q-6 108 -11 251t-9 304t-8 333t-10 340 t-13 324t-15 286z" />
<glyph unicode="&#xce;" horiz-adv-x="268" d="M-178 2116l356 484q48 -48 84 -104t68 -117t64 -125t72 -128q0 -18 -8 -25t-22 -11t-32 -8t-38 -16q-36 60 -55 95t-36 65t-39 65t-64 97q-36 -46 -70 -84t-67 -74t-66 -73t-69 -83zM38 1844v30q0 32 23 53t55 21h12t14 -2q14 -222 24 -424t17 -396t10 -388t3 -404 q0 -30 4 -80t8 -99t7 -87t3 -40l-114 -22q-6 108 -11 251t-9 304t-8 333t-10 340t-13 324t-15 286z" />
<glyph unicode="&#xcf;" horiz-adv-x="268" d="M-224 2208q-10 40 1 62t33 33t48 13t48 2q20 0 46 -2t47 -13t32 -33t1 -62q-10 -36 -47 -71t-79 -35q-22 0 -43 10t-39 25t-30 34t-18 37zM38 1844v30q0 32 23 53t55 21h12t14 -2q14 -222 24 -424t17 -396t10 -388t3 -404q0 -30 4 -80t8 -99t7 -87t3 -40l-114 -22 q-6 108 -11 251t-9 304t-8 333t-10 340t-13 324t-15 286zM170 2208q-10 40 1 62t33 33t48 13t48 2q20 0 46 -2t47 -13t32 -33t1 -62q-4 -18 -17 -37t-30 -34t-38 -25t-41 -10q-44 0 -82 35t-48 71z" />
<glyph unicode="&#xd0;" horiz-adv-x="1434" d="M4 540l52 52l4 4t13 5t31 7t58 10l-60 714q-6 4 -14 18t-16 31t-14 32t-6 21q0 26 21 39t48 16t52 2t31 -1t21 -1t32 -2t31 -2t20 -1q86 -32 200 -75t234 -99t235 -127t205 -160t146 -196t56 -237q0 -112 -43 -201t-113 -155t-163 -112t-191 -75t-197 -42t-183 -13 q-18 0 -64 2t-94 4t-87 4t-41 2l-4 98l-32 388h-14q-4 0 -26 -1t-32 -1q-32 0 -57 5t-39 47zM254 1322q0 -16 1 -35t1 -36v-23q2 -34 4 -96t6 -142t8 -173t8 -187l92 8q22 10 65 11t77 -10t44 -36t-32 -67q-42 -4 -75 -8t-60 -8t-52 -8t-53 -8q6 -134 11 -243t9 -159 q14 0 50 -2t77 -3t77 -2t52 -1q122 0 242 30t215 93t154 163t59 242q0 104 -47 198t-126 175t-180 145t-210 110t-217 70t-200 24v-22z" />
<glyph unicode="&#xd1;" horiz-adv-x="1422" d="M35 1633q-3 89 1 137q0 32 23 54t55 22q34 0 75 -15t55 -39l960 -1548q-2 122 -8 263t-11 290t-7 300t5 294t27 271t58 232q36 12 57 14t32 -1t13 -13t2 -22q0 -4 -1 -15t-1 -13q-4 -18 -11 -60t-17 -126t-19 -217t-17 -331t-11 -470t-1 -634l-78 -6l-1024 1588 q0 -10 -1 -36t-1 -54v-53v-35q0 -172 8 -346t19 -348t19 -350t8 -352l-98 6q-2 50 -9 141t-16 209t-20 254t-22 276t-20 276t-15 252t-9 205zM388 1950q0 126 40 177t132 51q50 -24 84 -57t61 -61t50 -45t50 -6t61 55t84 138q16 0 36 -13t20 -41q-44 -110 -85 -164t-79 -69 t-75 1t-71 45t-67 62t-65 55q-28 22 -46 7t-31 -45t-23 -66t-21 -58t-24 -18t-31 52z" />
<glyph unicode="&#xd2;" horiz-adv-x="1178" d="M48 886q0 88 12 186t40 193t72 182t107 152t147 104t190 39q94 0 166 -52t125 -136t88 -191t57 -215t31 -208t9 -172q-12 -158 -46 -290t-94 -232t-149 -164t-213 -84q-120 0 -206 42t-147 112t-98 161t-57 189t-27 198t-7 186zM150 886q0 -64 3 -144t15 -162t35 -160 t65 -138t104 -97t152 -37q126 -10 209 31t134 123t77 200t42 266q0 58 -5 146t-19 185t-40 194t-67 175t-99 126t-138 48q-82 0 -149 -38t-119 -101t-90 -143t-62 -164t-36 -165t-12 -145zM440 2162l76 96q48 -48 73 -86t44 -77t40 -85t61 -110q0 -18 -8 -25t-22 -11t-32 -8 t-38 -14q-36 60 -55 94t-36 64t-39 65t-64 97z" />
<glyph unicode="&#xd3;" horiz-adv-x="1178" d="M48 886q0 88 12 186t40 193t72 182t107 152t147 104t190 39q94 0 166 -52t125 -136t88 -191t57 -215t31 -208t9 -172q-12 -158 -46 -290t-94 -232t-149 -164t-213 -84q-120 0 -206 42t-147 112t-98 161t-57 189t-27 198t-7 186zM150 886q0 -64 3 -144t15 -162t35 -160 t65 -138t104 -97t152 -37q126 -10 209 31t134 123t77 200t42 266q0 58 -5 146t-19 185t-40 194t-67 175t-99 126t-138 48q-82 0 -149 -38t-119 -101t-90 -143t-62 -164t-36 -165t-12 -145zM394 1836q94 122 145 196t76 111t33 44t15 -4t23 -33t58 -42q-36 -46 -70 -83 t-67 -73t-66 -74t-69 -82z" />
<glyph unicode="&#xd4;" horiz-adv-x="1178" d="M48 886q0 88 12 186t40 193t72 182t107 152t147 104t190 39q94 0 166 -52t125 -136t88 -191t57 -215t31 -208t9 -172q-12 -158 -46 -290t-94 -232t-149 -164t-213 -84q-120 0 -206 42t-147 112t-98 161t-57 189t-27 198t-7 186zM150 886q0 -64 3 -144t15 -162t35 -160 t65 -138t104 -97t152 -37q126 -10 209 31t134 123t77 200t42 266q0 58 -5 146t-19 185t-40 194t-67 175t-99 126t-138 48q-82 0 -149 -38t-119 -101t-90 -143t-62 -164t-36 -165t-12 -145zM266 1942l356 484q48 -48 84 -104t68 -117t64 -125t72 -128q0 -18 -8 -25t-22 -11 t-32 -8t-38 -16q-36 60 -55 95t-36 65t-39 65t-64 97q-36 -46 -70 -84t-67 -74t-66 -73t-69 -83z" />
<glyph unicode="&#xd5;" horiz-adv-x="1178" d="M48 886q0 88 12 186t40 193t72 182t107 152t147 104t190 39q94 0 166 -52t125 -136t88 -191t57 -215t31 -208t9 -172q-12 -158 -46 -290t-94 -232t-149 -164t-213 -84q-120 0 -206 42t-147 112t-98 161t-57 189t-27 198t-7 186zM150 886q0 -64 3 -144t15 -162t35 -160 t65 -138t104 -97t152 -37q126 -10 209 31t134 123t77 200t42 266q0 58 -5 146t-19 185t-40 194t-67 175t-99 126t-138 48q-82 0 -149 -38t-119 -101t-90 -143t-62 -164t-36 -165t-12 -145zM286 1902q0 126 40 177t132 51q50 -24 84 -57t61 -61t50 -45t50 -6t61 55t84 138 q16 0 36 -13t20 -41q-44 -110 -85 -164t-79 -69t-75 1t-71 45t-67 62t-65 55q-28 22 -46 7t-31 -45t-23 -66t-21 -58t-24 -18t-31 52z" />
<glyph unicode="&#xd6;" horiz-adv-x="1178" d="M48 886q0 88 12 186t40 193t72 182t107 152t147 104t190 39q94 0 166 -52t125 -136t88 -191t57 -215t31 -208t9 -172q-12 -158 -46 -290t-94 -232t-149 -164t-213 -84q-120 0 -206 42t-147 112t-98 161t-57 189t-27 198t-7 186zM150 886q0 -64 3 -144t15 -162t35 -160 t65 -138t104 -97t152 -37q126 -10 209 31t134 123t77 200t42 266q0 58 -5 146t-19 185t-40 194t-67 175t-99 126t-138 48q-82 0 -149 -38t-119 -101t-90 -143t-62 -164t-36 -165t-12 -145zM270 1938q-10 40 1 62t33 33t48 13t48 2q20 0 46 -2t47 -13t32 -33t1 -62 q-10 -36 -47 -71t-79 -35q-22 0 -43 10t-39 25t-30 34t-18 37zM664 1938q-10 40 1 62t33 33t48 13t48 2q20 0 46 -2t47 -13t32 -33t1 -62q-4 -18 -17 -37t-30 -34t-38 -25t-41 -10q-44 0 -82 35t-48 71z" />
<glyph unicode="&#xd7;" horiz-adv-x="750" d="M144 910l122 82l152 -172l146 264l104 -76l-150 -316l174 -204l-102 -52l-148 182q-26 -46 -40 -78t-24 -60t-19 -56t-27 -64l-106 28l122 332z" />
<glyph unicode="&#xd8;" horiz-adv-x="1178" d="M48 886q0 88 12 186t40 193t72 182t107 152t147 104t190 39q94 0 166 -52t125 -136t88 -191t57 -215t31 -208t9 -172q-12 -158 -46 -290t-94 -232t-149 -164t-213 -84q-120 0 -206 42t-147 112t-98 161t-57 189t-27 198t-7 186zM150 886q0 -64 3 -144t15 -162t35 -160 t65 -138t104 -97t152 -37q126 -10 209 31t134 123t77 200t42 266q0 58 -5 146t-19 185t-40 194t-67 175t-99 126t-138 48q-82 0 -149 -38t-119 -101t-90 -143t-62 -164t-36 -165t-12 -145zM213 37l575 1674q6 20 17.5 44t28 32.5t40.5 -6t58 -70.5l-607 -1771z" />
<glyph unicode="&#xd9;" horiz-adv-x="1382" d="M60 1145q-2 199 30 391l104 -10q-28 -342 -5 -594t73 -420t117 -256t129 -102q90 0 161 48t125 126t93 177t63 200t35 195t11 164q0 90 -6 161t-18 140t-27 143t-33 170l132 96q60 -388 104 -663t76 -461t51 -297t31 -173t16 -87t4 -41h-110l-154 614 q-106 -268 -211 -415t-203 -196t-186 -12t-161 137t-126 252t-83 333t-32 380zM418 2136l76 96q48 -48 73 -86t44 -77t40 -85t61 -110q0 -18 -8 -25t-22 -11t-32 -8t-38 -14q-36 60 -55 94t-36 64t-39 65t-64 97z" />
<glyph unicode="&#xda;" horiz-adv-x="1382" d="M60 1145q-2 199 30 391l104 -10q-28 -342 -5 -594t73 -420t117 -256t129 -102q90 0 161 48t125 126t93 177t63 200t35 195t11 164q0 90 -6 161t-18 140t-27 143t-33 170l132 96q60 -388 104 -663t76 -461t51 -297t31 -173t16 -87t4 -41h-110l-154 614 q-106 -268 -211 -415t-203 -196t-186 -12t-161 137t-126 252t-83 333t-32 380zM502 1788q94 122 145 196t76 111t33 44t15 -4t23 -33t58 -42q-36 -46 -70 -83t-67 -73t-66 -74t-69 -82z" />
<glyph unicode="&#xdb;" horiz-adv-x="1382" d="M60 1145q-2 199 30 391l104 -10q-28 -342 -5 -594t73 -420t117 -256t129 -102q90 0 161 48t125 126t93 177t63 200t35 195t11 164q0 90 -6 161t-18 140t-27 143t-33 170l132 96q60 -388 104 -663t76 -461t51 -297t31 -173t16 -87t4 -41h-110l-154 614 q-106 -268 -211 -415t-203 -196t-186 -12t-161 137t-126 252t-83 333t-32 380zM166 1914l356 484q48 -48 84 -104t68 -117t64 -125t72 -128q0 -18 -8 -25t-22 -11t-32 -8t-38 -16q-36 60 -55 95t-36 65t-39 65t-64 97q-36 -46 -70 -84t-67 -74t-66 -73t-69 -83z" />
<glyph unicode="&#xdc;" horiz-adv-x="1382" d="M60 1145q-2 199 30 391l104 -10q-28 -342 -5 -594t73 -420t117 -256t129 -102q90 0 161 48t125 126t93 177t63 200t35 195t11 164q0 90 -6 161t-18 140t-27 143t-33 170l132 96q60 -388 104 -663t76 -461t51 -297t31 -173t16 -87t4 -41h-110l-154 614 q-106 -268 -211 -415t-203 -196t-186 -12t-161 137t-126 252t-83 333t-32 380zM186 1860q-10 40 1 62t33 33t48 13t48 2q20 0 46 -2t47 -13t32 -33t1 -62q-10 -36 -47 -71t-79 -35q-22 0 -43 10t-39 25t-30 34t-18 37zM580 1860q-10 40 1 62t33 33t48 13t48 2q20 0 46 -2 t47 -13t32 -33t1 -62q-4 -18 -17 -37t-30 -34t-38 -25t-41 -10q-44 0 -82 35t-48 71z" />
<glyph unicode="&#xdd;" horiz-adv-x="1212" d="M12 1946l52 50q100 -108 173 -197t131 -168t107 -151t101 -145t113 -149t143 -162q16 74 31 166t31 191t35 202t42 198t52 177t65 142q4 2 13 2h13q8 0 23 -3t29 -9t22 -17t2 -25q-30 -62 -61 -165t-58 -233t-52 -281t-45 -305t-35 -307t-23 -287t-7 -243t11 -177 q-4 -28 -8 -43t-18 -23t-40 -9t-74 -1v896q-42 58 -109 144t-145 186t-160 206t-153 206t-125 187t-76 147zM466 2200q94 122 145 196t76 111t33 44t15 -4t23 -33t58 -42q-36 -46 -70 -83t-67 -73t-66 -74t-69 -82z" />
<glyph unicode="&#xde;" horiz-adv-x="914" d="M52 1504h102q-2 -84 -1 -128t1 -68v-36v-30t-2 -54t-6 -106q44 36 80 65t70 50t71 32t83 11q98 0 177 -48t135 -123t87 -167t31 -180q-4 -150 -60 -240t-149 -137t-215 -56t-260 3v124q46 -42 88 -49t94 -7q88 0 160 27t124 77t81 119t29 151q0 72 -8 128t-36 102t-81 87 t-143 81q-6 2 -26 4t-26 2q-44 0 -85 -25t-76 -64t-60 -85t-35 -88q-4 -20 -8 -89t-7 -161t-6 -196t-6 -196t-6 -160t-5 -90l-84 16z" />
<glyph unicode="&#xdf;" horiz-adv-x="1200" d="M107 523q-5 163 0 322t27 285t63 206t109 90q92 12 192 14t183 -21t137 -80t54 -163q0 -54 -12 -105t-43 -95t-84 -80t-137 -60q110 6 207 -22t169 -85t114 -138t42 -179q0 -116 -69 -198t-176 -135t-237 -79t-250 -28l12 122q92 8 201 24t202 51t155 95t62 158t-39 158 t-100 94t-137 46t-150 15t-138 3t-102 8l20 152q68 8 137 24t125 46t91 80t35 130q0 12 2 31t-7 39t-34 39t-78 32t-139 15t-218 -10q-8 -26 -21 -119t-23 -230t-13 -304t5 -342t33 -345t71 -310l-140 -14q-8 0 -22 73t-30 194t-30 277t-19 319z" />
<glyph unicode="&#xe0;" d="M50 230q0 152 84 221t220 69q54 0 101 -2t90 -13t84 -33t87 -62q0 10 1 35t1 54v55v36q-4 48 -3 124t-11 156t-49 152t-117 108q-54 0 -103 -18t-97 -39t-96 -39t-102 -18q0 68 41 111t99 67t123 32t111 8q48 -8 90 -18t78 -42t66 -98t53 -183t41 -297t28 -442 q4 -34 -24 -59t-75 -43t-108 -29t-122 -17t-117 -8t-92 -2q-48 0 -98 16t-91 46t-67 74t-26 98zM165 227q7 -49 62 -87t135 -50t174 13t180 101q-34 76 -66 118t-69 63t-82 26t-101 5q-134 -36 -187 -88t-46 -101zM314 1648l76 96q48 -48 73 -86t44 -77t40 -85t61 -110 q0 -18 -8 -25t-22 -11t-32 -8t-38 -14q-36 60 -55 94t-36 64t-39 65t-64 97z" />
<glyph unicode="&#xe1;" d="M50 230q0 152 84 221t220 69q54 0 101 -2t90 -13t84 -33t87 -62q0 10 1 35t1 54v55v36q-4 48 -3 124t-11 156t-49 152t-117 108q-54 0 -103 -18t-97 -39t-96 -39t-102 -18q0 68 41 111t99 67t123 32t111 8q48 -8 90 -18t78 -42t66 -98t53 -183t41 -297t28 -442 q4 -34 -24 -59t-75 -43t-108 -29t-122 -17t-117 -8t-92 -2q-48 0 -98 16t-91 46t-67 74t-26 98zM165 227q7 -49 62 -87t135 -50t174 13t180 101q-34 76 -66 118t-69 63t-82 26t-101 5q-134 -36 -187 -88t-46 -101zM274 1378q94 122 145 196t76 111t33 44t15 -4t23 -33 t58 -42q-36 -46 -70 -83t-67 -73t-66 -74t-69 -82z" />
<glyph unicode="&#xe2;" d="M50 230q0 152 84 221t220 69q54 0 101 -2t90 -13t84 -33t87 -62q0 10 1 35t1 54v55v36q-4 48 -3 124t-11 156t-49 152t-117 108q-54 0 -103 -18t-97 -39t-96 -39t-102 -18q0 68 41 111t99 67t123 32t111 8q48 -8 90 -18t78 -42t66 -98t53 -183t41 -297t28 -442 q4 -34 -24 -59t-75 -43t-108 -29t-122 -17t-117 -8t-92 -2q-48 0 -98 16t-91 46t-67 74t-26 98zM138 1532l356 484q48 -48 84 -104t68 -117t64 -125t72 -128q0 -18 -8 -25t-22 -11t-32 -8t-38 -16q-36 60 -55 95t-36 65t-39 65t-64 97q-36 -46 -70 -84t-67 -74t-66 -73 t-69 -83zM165 227q7 -49 62 -87t135 -50t174 13t180 101q-34 76 -66 118t-69 63t-82 26t-101 5q-134 -36 -187 -88t-46 -101z" />
<glyph unicode="&#xe3;" d="M50 230q0 152 84 221t220 69q54 0 101 -2t90 -13t84 -33t87 -62q0 10 1 35t1 54v55v36q-4 48 -3 124t-11 156t-49 152t-117 108q-54 0 -103 -18t-97 -39t-96 -39t-102 -18q0 68 41 111t99 67t123 32t111 8q48 -8 90 -18t78 -42t66 -98t53 -183t41 -297t28 -442 q4 -34 -24 -59t-75 -43t-108 -29t-122 -17t-117 -8t-92 -2q-48 0 -98 16t-91 46t-67 74t-26 98zM150 1338q0 126 40 177t132 51q50 -24 84 -57t61 -61t50 -45t50 -6t61 55t84 138q16 0 36 -13t20 -41q-44 -110 -85 -164t-79 -69t-75 1t-71 45t-67 62t-65 55q-28 22 -46 7 t-31 -45t-23 -66t-21 -58t-24 -18t-31 52zM165 227q7 -49 62 -87t135 -50t174 13t180 101q-34 76 -66 118t-69 63t-82 26t-101 5q-134 -36 -187 -88t-46 -101z" />
<glyph unicode="&#xe4;" d="M50 230q0 152 84 221t220 69q54 0 101 -2t90 -13t84 -33t87 -62q0 10 1 35t1 54v55v36q-4 48 -3 124t-11 156t-49 152t-117 108q-54 0 -103 -18t-97 -39t-96 -39t-102 -18q0 68 41 111t99 67t123 32t111 8q48 -8 90 -18t78 -42t66 -98t53 -183t41 -297t28 -442 q4 -34 -24 -59t-75 -43t-108 -29t-122 -17t-117 -8t-92 -2q-48 0 -98 16t-91 46t-67 74t-26 98zM134 1450q-10 40 1 62t33 33t48 13t48 2q20 0 46 -2t47 -13t32 -33t1 -62q-10 -36 -47 -71t-79 -35q-22 0 -43 10t-39 25t-30 34t-18 37zM165 227q7 -49 62 -87t135 -50t174 13 t180 101q-34 76 -66 118t-69 63t-82 26t-101 5q-134 -36 -187 -88t-46 -101zM528 1450q-10 40 1 62t33 33t48 13t48 2q20 0 46 -2t47 -13t32 -33t1 -62q-4 -18 -17 -37t-30 -34t-38 -25t-41 -10q-44 0 -82 35t-48 71z" />
<glyph unicode="&#xe5;" d="M50 230q0 152 84 221t220 69q54 0 101 -2t90 -13t84 -33t87 -62q0 10 1 35t1 54v55v36q-4 48 -3 124t-11 156t-49 152t-117 108q-54 0 -103 -18t-97 -39t-96 -39t-102 -18q0 68 41 111t99 67t123 32t111 8q48 -8 90 -18t78 -42t66 -98t53 -183t41 -297t28 -442 q4 -34 -24 -59t-75 -43t-108 -29t-122 -17t-117 -8t-92 -2q-48 0 -98 16t-91 46t-67 74t-26 98zM165 227q7 -49 62 -87t135 -50t174 13t180 101q-34 76 -66 118t-69 63t-82 26t-101 5q-134 -36 -187 -88t-46 -101zM324 1366q0 20 3 50t15 57t33 47t57 20q98 0 146 -55 t48 -127q0 -22 -8 -50t-25 -53t-44 -42t-65 -17q-46 0 -77 16t-49 41t-26 55t-8 58zM378 1366q26 -70 53 -90t51 -10t42 41t28 65q-8 56 -41 83t-66 25t-56 -30t-11 -84z" />
<glyph unicode="&#xe6;" horiz-adv-x="1546" d="M50 230q0 152 84 221t220 69q54 0 101 -2t90 -13t84 -33t87 -62q0 10 1 35t1 54v55v36q-4 48 -3 124t-11 156t-49 152t-117 108q-54 0 -103 -18t-97 -39t-96 -39t-102 -18q0 68 41 111t99 67t123 32t111 8q48 -8 90 -18t78 -42t66 -98t53 -183t41 -297t28 -442 q4 -34 -24 -59t-75 -43t-108 -29t-122 -17t-117 -8t-92 -2q-48 0 -98 16t-91 46t-67 74t-26 98zM165 227q7 -49 62 -87t135 -50t174 13t180 101q-34 76 -66 118t-69 63t-82 26t-101 5q-134 -36 -187 -88t-46 -101zM741 472q-1 80 7 156q0 80 35 177t94 181t136 141t159 57 q44 0 89 -18t86 -49t74 -70t52 -81t20 -82t-23 -70l-562 -104q-10 -2 -18 -25t-14 -58t-10 -76t-6 -80t-3 -70t-1 -45q0 -76 36 -122t92 -70t127 -32t140 -8t131 5t102 5q0 -12 -8 -25t-19 -25t-21 -21t-14 -11q-20 -6 -65 -15t-94 -17t-92 -14t-57 -6q-84 -16 -145 3 t-104 64t-70 110t-40 140t-14 155zM928 836q70 -10 145 1t136 34t101 54t39 62t-50 57t-165 38q-24 2 -62 -24t-72 -65t-56 -83t-16 -74z" />
<glyph unicode="&#xe7;" horiz-adv-x="1000" d="M50 456q0 100 32 219t94 222t153 172t209 69q62 10 99 -11t57 -63t27 -97t8 -112t0 -107t5 -82h-68q-2 18 -8 78t-22 124t-45 114t-79 50q-74 0 -139 -58t-114 -141t-78 -171t-29 -148q4 -66 20 -145t52 -143t94 -103t144 -23q64 0 122 26t115 56t114 56t121 26 q0 -70 -51 -121t-124 -84t-154 -49t-139 -16q-90 0 -166 38t-132 101t-87 147t-31 176zM278 -100q-14 80 9 129t49 53t38 -42t-24 -156q0 -42 33 -51t83 -6t108 7t108 -11t83 -59t33 -136q0 -60 -27 -104t-69 -72t-94 -38t-104 -4q-22 2 -59 13t-72 32t-61 52t-26 73 q32 0 60 -14t56 -32t56 -32t60 -14q36 -6 82 15t82 54t52 71t-7 65t-95 38t-212 -9q-26 0 -52 17t-46 44t-32 58t-12 59z" />
<glyph unicode="&#xe8;" horiz-adv-x="898" d="M63 472q-1 80 7 156q0 80 35 177t94 181t136 141t159 57q44 0 89 -18t86 -49t74 -70t52 -81t20 -82t-23 -70l-562 -104q-10 -2 -18 -25t-14 -58t-10 -76t-6 -80t-3 -70t-1 -45q0 -76 36 -122t92 -70t127 -32t140 -8t131 5t102 5q0 -12 -8 -25t-19 -25t-21 -21t-14 -11 q-20 -6 -65 -15t-94 -17t-92 -14t-57 -6q-84 -16 -145 3t-104 64t-70 110t-40 140t-14 155zM250 836q70 -10 145 1t136 34t101 54t39 62t-50 57t-165 38q-24 2 -62 -24t-72 -65t-56 -83t-16 -74zM302 1648l76 96q48 -48 73 -86t44 -77t40 -85t61 -110q0 -18 -8 -25t-22 -11 t-32 -8t-38 -14q-36 60 -55 94t-36 64t-39 65t-64 97z" />
<glyph unicode="&#xe9;" horiz-adv-x="898" d="M63 472q-1 80 7 156q0 80 35 177t94 181t136 141t159 57q44 0 89 -18t86 -49t74 -70t52 -81t20 -82t-23 -70l-562 -104q-10 -2 -18 -25t-14 -58t-10 -76t-6 -80t-3 -70t-1 -45q0 -76 36 -122t92 -70t127 -32t140 -8t131 5t102 5q0 -12 -8 -25t-19 -25t-21 -21t-14 -11 q-20 -6 -65 -15t-94 -17t-92 -14t-57 -6q-84 -16 -145 3t-104 64t-70 110t-40 140t-14 155zM250 836q70 -10 145 1t136 34t101 54t39 62t-50 57t-165 38q-24 2 -62 -24t-72 -65t-56 -83t-16 -74zM260 1378q94 122 145 196t76 111t33 44t15 -4t23 -33t58 -42q-36 -46 -70 -83 t-67 -73t-66 -74t-69 -82z" />
<glyph unicode="&#xea;" horiz-adv-x="898" d="M63 472q-1 80 7 156q0 80 35 177t94 181t136 141t159 57q44 0 89 -18t86 -49t74 -70t52 -81t20 -82t-23 -70l-562 -104q-10 -2 -18 -25t-14 -58t-10 -76t-6 -80t-3 -70t-1 -45q0 -76 36 -122t92 -70t127 -32t140 -8t131 5t102 5q0 -12 -8 -25t-19 -25t-21 -21t-14 -11 q-20 -6 -65 -15t-94 -17t-92 -14t-57 -6q-84 -16 -145 3t-104 64t-70 110t-40 140t-14 155zM132 1298l356 484q48 -48 84 -104t68 -117t64 -125t72 -128q0 -18 -8 -25t-22 -11t-32 -8t-38 -16q-36 60 -55 95t-36 65t-39 65t-64 97q-36 -46 -70 -84t-67 -74t-66 -73t-69 -83z M250 836q70 -10 145 1t136 34t101 54t39 62t-50 57t-165 38q-24 2 -62 -24t-72 -65t-56 -83t-16 -74z" />
<glyph unicode="&#xeb;" horiz-adv-x="898" d="M63 472q-1 80 7 156q0 80 35 177t94 181t136 141t159 57q44 0 89 -18t86 -49t74 -70t52 -81t20 -82t-23 -70l-562 -104q-10 -2 -18 -25t-14 -58t-10 -76t-6 -80t-3 -70t-1 -45q0 -76 36 -122t92 -70t127 -32t140 -8t131 5t102 5q0 -12 -8 -25t-19 -25t-21 -21t-14 -11 q-20 -6 -65 -15t-94 -17t-92 -14t-57 -6q-84 -16 -145 3t-104 64t-70 110t-40 140t-14 155zM124 1450q-10 40 1 62t33 33t48 13t48 2q20 0 46 -2t47 -13t32 -33t1 -62q-10 -36 -47 -71t-79 -35q-22 0 -43 10t-39 25t-30 34t-18 37zM250 836q70 -10 145 1t136 34t101 54 t39 62t-50 57t-165 38q-24 2 -62 -24t-72 -65t-56 -83t-16 -74zM518 1450q-10 40 1 62t33 33t48 13t48 2q20 0 46 -2t47 -13t32 -33t1 -62q-4 -18 -17 -37t-30 -34t-38 -25t-41 -10q-44 0 -82 35t-48 71z" />
<glyph unicode="&#xec;" horiz-adv-x="386" d="M46 1648l76 96q48 -48 73 -86t44 -77t40 -85t61 -110q0 -18 -8 -25t-22 -11t-32 -8t-38 -14q-36 60 -55 94t-36 64t-39 65t-64 97zM178 1036q34 0 56 2t38 -28q8 -118 19 -242t21 -250t15 -252t1 -246q0 -16 -8 -20t-23 -3t-35 2t-44 -5z" />
<glyph unicode="&#xed;" horiz-adv-x="386" d="M4 1378q94 122 145 196t76 111t33 44t15 -4t23 -33t58 -42q-36 -46 -70 -83t-67 -73t-66 -74t-69 -82zM178 1036q34 0 56 2t38 -28q8 -118 19 -242t21 -250t15 -252t1 -246q0 -16 -8 -20t-23 -3t-35 2t-44 -5z" />
<glyph unicode="&#xee;" horiz-adv-x="386" d="M-128 1532l356 484q48 -48 84 -104t68 -117t64 -125t72 -128q0 -18 -8 -25t-22 -11t-32 -8t-38 -16q-36 60 -55 95t-36 65t-39 65t-64 97q-36 -46 -70 -84t-67 -74t-66 -73t-69 -83zM178 1036q34 0 56 2t38 -28q8 -118 19 -242t21 -250t15 -252t1 -246q0 -16 -8 -20 t-23 -3t-35 2t-44 -5z" />
<glyph unicode="&#xef;" horiz-adv-x="386" d="M-132 1450q-10 40 1 62t33 33t48 13t48 2q20 0 46 -2t47 -13t32 -33t1 -62q-10 -36 -47 -71t-79 -35q-22 0 -43 10t-39 25t-30 34t-18 37zM178 1036q34 0 56 2t38 -28q8 -118 19 -242t21 -250t15 -252t1 -246q0 -16 -8 -20t-23 -3t-35 2t-44 -5zM262 1450q-10 40 1 62 t33 33t48 13t48 2q20 0 46 -2t47 -13t32 -33t1 -62q-4 -18 -17 -37t-30 -34t-38 -25t-41 -10q-44 0 -82 35t-48 71z" />
<glyph unicode="&#xf0;" horiz-adv-x="884" d="M52 386q0 82 25 134t66 81t90 40t97 11q80 10 138 -13t102 -74t74 -126t52 -169q22 72 15 147t-31 152t-57 159t-61 170q-32 6 -67 2t-68 -11t-62 -13t-47 -2q-22 20 -32 50t-10 70q50 18 105 25t131 17q-34 84 -71 165t-79 157l114 78q40 -74 80 -173t110 -201 q26 6 58 24t59 36t47 28t24 -2l40 -112q-28 -18 -49 -32t-42 -26t-46 -23t-63 -23q58 -76 94 -172t48 -197t0 -200t-50 -181t-102 -140t-154 -76q-94 -8 -179 8t-151 65t-106 134t-42 213zM130 386q0 -58 27 -102t71 -77t98 -55t106 -36t99 -20t75 -6q0 86 -20 168t-58 147 t-94 104t-126 39q-28 0 -59 -5t-57 -21t-44 -49t-18 -87z" />
<glyph unicode="&#xf1;" horiz-adv-x="1080" d="M38 1116v14q40 34 68 23t46 -47t27 -90t13 -107t4 -97v-62q4 46 15 107t32 125t52 126t76 110t103 75t132 21q116 -4 192 -63t121 -157t65 -227t26 -272t3 -291t-3 -284q-22 -6 -46 -18t-40 -11t-23 24t3 89q2 48 9 148t6 223t-14 254t-50 238t-103 176t-172 69 q-110 -46 -183 -171t-118 -294t-65 -365t-22 -382q-4 2 -19 3t-32 2t-32 3t-17 6q-6 42 -10 124t-8 184t-7 214t-6 213t-7 183t-10 124q-2 2 -3 13t-2 24t-1 23zM266 1540q0 126 40 177t132 51q50 -24 84 -57t61 -61t50 -45t50 -6t61 55t84 138q16 0 36 -13t20 -41 q-44 -110 -85 -164t-79 -69t-75 1t-71 45t-67 62t-65 55q-28 22 -46 7t-31 -45t-23 -66t-21 -58t-24 -18t-31 52z" />
<glyph unicode="&#xf2;" horiz-adv-x="990" d="M64 488q0 62 11 143t35 164t60 163t87 143t117 101t148 38q86 0 159 -59t125 -152t79 -207t21 -224q2 -160 -60 -285t-156 -203t-203 -104t-203 15t-157 155t-63 312zM164 478q6 -162 54 -250t117 -116t149 -2t149 94t118 171t55 231q4 96 -15 187t-55 161t-89 112 t-119 42q-64 0 -115 -33t-92 -87t-70 -123t-49 -139t-29 -135t-9 -113zM346 1648l76 96q48 -48 73 -86t44 -77t40 -85t61 -110q0 -18 -8 -25t-22 -11t-32 -8t-38 -14q-36 60 -55 94t-36 64t-39 65t-64 97z" />
<glyph unicode="&#xf3;" horiz-adv-x="990" d="M64 488q0 62 11 143t35 164t60 163t87 143t117 101t148 38q86 0 159 -59t125 -152t79 -207t21 -224q2 -160 -60 -285t-156 -203t-203 -104t-203 15t-157 155t-63 312zM164 478q6 -162 54 -250t117 -116t149 -2t149 94t118 171t55 231q4 96 -15 187t-55 161t-89 112 t-119 42q-64 0 -115 -33t-92 -87t-70 -123t-49 -139t-29 -135t-9 -113zM306 1378q94 122 145 196t76 111t33 44t15 -4t23 -33t58 -42q-36 -46 -70 -83t-67 -73t-66 -74t-69 -82z" />
<glyph unicode="&#xf4;" horiz-adv-x="990" d="M64 488q0 62 11 143t35 164t60 163t87 143t117 101t148 38q86 0 159 -59t125 -152t79 -207t21 -224q2 -160 -60 -285t-156 -203t-203 -104t-203 15t-157 155t-63 312zM164 478q6 -162 54 -250t117 -116t149 -2t149 94t118 171t55 231q4 96 -15 187t-55 161t-89 112 t-119 42q-64 0 -115 -33t-92 -87t-70 -123t-49 -139t-29 -135t-9 -113zM172 1532l356 484q48 -48 84 -104t68 -117t64 -125t72 -128q0 -18 -8 -25t-22 -11t-32 -8t-38 -16q-36 60 -55 95t-36 65t-39 65t-64 97q-36 -46 -70 -84t-67 -74t-66 -73t-69 -83z" />
<glyph unicode="&#xf5;" horiz-adv-x="990" d="M64 488q0 62 11 143t35 164t60 163t87 143t117 101t148 38q86 0 159 -59t125 -152t79 -207t21 -224q2 -160 -60 -285t-156 -203t-203 -104t-203 15t-157 155t-63 312zM164 478q6 -162 54 -250t117 -116t149 -2t149 94t118 171t55 231q4 96 -15 187t-55 161t-89 112 t-119 42q-64 0 -115 -33t-92 -87t-70 -123t-49 -139t-29 -135t-9 -113zM186 1338q0 126 40 177t132 51q50 -24 84 -57t61 -61t50 -45t50 -6t61 55t84 138q16 0 36 -13t20 -41q-44 -110 -85 -164t-79 -69t-75 1t-71 45t-67 62t-65 55q-28 22 -46 7t-31 -45t-23 -66t-21 -58 t-24 -18t-31 52z" />
<glyph unicode="&#xf6;" horiz-adv-x="990" d="M64 488q0 62 11 143t35 164t60 163t87 143t117 101t148 38q86 0 159 -59t125 -152t79 -207t21 -224q2 -160 -60 -285t-156 -203t-203 -104t-203 15t-157 155t-63 312zM164 478q6 -162 54 -250t117 -116t149 -2t149 94t118 171t55 231q4 96 -15 187t-55 161t-89 112 t-119 42q-64 0 -115 -33t-92 -87t-70 -123t-49 -139t-29 -135t-9 -113zM170 1450q-10 40 1 62t33 33t48 13t48 2q20 0 46 -2t47 -13t32 -33t1 -62q-10 -36 -47 -71t-79 -35q-22 0 -43 10t-39 25t-30 34t-18 37zM564 1450q-10 40 1 62t33 33t48 13t48 2q20 0 46 -2t47 -13 t32 -33t1 -62q-4 -18 -17 -37t-30 -34t-38 -25t-41 -10q-44 0 -82 35t-48 71z" />
<glyph unicode="&#xf7;" horiz-adv-x="758" d="M38 564l52 50q2 2 26 5t76 7t134 10t202 16q12 0 36 2t49 4t48 4t35 2q0 -36 -15 -65t-49 -47q-64 -6 -116 -11t-103 -10t-104 -9t-117 -10q-4 0 -25 -1t-31 -1q-34 0 -58 5t-40 49zM260 876q0 22 11 38t35 22t64 -2t98 -34q-26 -40 -54 -73t-72 -33q-34 0 -58 24t-24 58 zM362 236q0 38 18 71t64 33t64 -34t18 -74q0 -46 -19 -73t-89 -27q-22 0 -33 12t-16 28t-6 34t-1 30z" />
<glyph unicode="&#xf8;" horiz-adv-x="990" d="M64 488q0 62 11 143t35 164t60 163t87 143t117 101t148 38q86 0 159 -59t125 -152t79 -207t21 -224q2 -160 -60 -285t-156 -203t-203 -104t-203 15t-157 155t-63 312zM164 478q6 -162 54 -250t117 -116t149 -2t149 94t118 171t55 231q4 96 -15 187t-55 161t-89 112 t-119 42q-64 0 -115 -33t-92 -87t-70 -123t-49 -139t-29 -135t-9 -113zM210 -56l410 1382q4 16 12 36t20 27t29 -5t41 -58l-432 -1462z" />
<glyph unicode="&#xf9;" horiz-adv-x="1222" d="M52 1034q-2 14 16 28t43 22t49 10t34 -8q18 -330 64 -526t106 -287t129 -92t136 58t124 164t93 225t45 240t-21 212l160 20q2 -42 14 -134t27 -208t33 -241t32 -233t24 -184t10 -94h-114l-124 460q-38 -92 -91 -178t-116 -150t-133 -100t-138 -29t-132 63t-118 177 t-94 314t-58 471zM464 1648l76 96q48 -48 73 -86t44 -77t40 -85t61 -110q0 -18 -8 -25t-22 -11t-32 -8t-38 -14q-36 60 -55 94t-36 64t-39 65t-64 97z" />
<glyph unicode="&#xfa;" horiz-adv-x="1222" d="M52 1034q-2 14 16 28t43 22t49 10t34 -8q18 -330 64 -526t106 -287t129 -92t136 58t124 164t93 225t45 240t-21 212l160 20q2 -42 14 -134t27 -208t33 -241t32 -233t24 -184t10 -94h-114l-124 460q-38 -92 -91 -178t-116 -150t-133 -100t-138 -29t-132 63t-118 177 t-94 314t-58 471zM422 1378q94 122 145 196t76 111t33 44t15 -4t23 -33t58 -42q-36 -46 -70 -83t-67 -73t-66 -74t-69 -82z" />
<glyph unicode="&#xfb;" horiz-adv-x="1222" d="M52 1034q-2 14 16 28t43 22t49 10t34 -8q18 -330 64 -526t106 -287t129 -92t136 58t124 164t93 225t45 240t-21 212l160 20q2 -42 14 -134t27 -208t33 -241t32 -233t24 -184t10 -94h-114l-124 460q-38 -92 -91 -178t-116 -150t-133 -100t-138 -29t-132 63t-118 177 t-94 314t-58 471zM290 1532l356 484q48 -48 84 -104t68 -117t64 -125t72 -128q0 -18 -8 -25t-22 -11t-32 -8t-38 -16q-36 60 -55 95t-36 65t-39 65t-64 97q-36 -46 -70 -84t-67 -74t-66 -73t-69 -83z" />
<glyph unicode="&#xfc;" horiz-adv-x="1222" d="M52 1034q-2 14 16 28t43 22t49 10t34 -8q18 -330 64 -526t106 -287t129 -92t136 58t124 164t93 225t45 240t-21 212l160 20q2 -42 14 -134t27 -208t33 -241t32 -233t24 -184t10 -94h-114l-124 460q-38 -92 -91 -178t-116 -150t-133 -100t-138 -29t-132 63t-118 177 t-94 314t-58 471zM286 1450q-10 40 1 62t33 33t48 13t48 2q20 0 46 -2t47 -13t32 -33t1 -62q-10 -36 -47 -71t-79 -35q-22 0 -43 10t-39 25t-30 34t-18 37zM680 1450q-10 40 1 62t33 33t48 13t48 2q20 0 46 -2t47 -13t32 -33t1 -62q-4 -18 -17 -37t-30 -34t-38 -25t-41 -10 q-44 0 -82 35t-48 71z" />
<glyph unicode="&#xfd;" horiz-adv-x="1024" d="M26 1150q60 52 95 59t39 3q18 -28 63 -100t102 -168t121 -203t121 -203t99 -170t58 -104l122 990l132 -66l-286 -2290l-120 8q0 134 23 275t49 283t43 283t5 277zM324 1378q94 122 145 196t76 111t33 44t15 -4t23 -33t58 -42q-36 -46 -70 -83t-67 -73t-66 -74t-69 -82z " />
<glyph unicode="&#xfe;" horiz-adv-x="1074" d="M70 1586q0 14 21 25t46 15t46 1t21 -17q0 -140 -1 -232t-2 -148t-2 -83t1 -35t6 -5t12 7q74 36 163 41t178 -17t174 -68t152 -112t111 -150t54 -180q2 -140 -75 -256t-197 -197t-261 -123t-267 -32l-14 -304l-104 10zM241 240q1 -58 5 -84q34 4 93 6t130 12t146 33 t140 68t113 118t66 185q0 104 -35 184t-96 134t-144 82t-179 28q-54 -4 -101 0t-81 0t-50 -27t-6 -81q4 -26 4 -84t-1 -132t-2 -155t-2 -155t0 -132z" />
<glyph unicode="&#xff;" horiz-adv-x="1024" d="M26 1150q60 52 95 59t39 3q18 -28 63 -100t102 -168t121 -203t121 -203t99 -170t58 -104l122 990l132 -66l-286 -2290l-120 8q0 134 23 275t49 283t43 283t5 277zM186 1450q-10 40 1 62t33 33t48 13t48 2q20 0 46 -2t47 -13t32 -33t1 -62q-10 -36 -47 -71t-79 -35 q-22 0 -43 10t-39 25t-30 34t-18 37zM580 1450q-10 40 1 62t33 33t48 13t48 2q20 0 46 -2t47 -13t32 -33t1 -62q-4 -18 -17 -37t-30 -34t-38 -25t-41 -10q-44 0 -82 35t-48 71z" />
<glyph unicode="&#x152;" horiz-adv-x="2180" d="M48 886q0 88 12 186t40 193t72 182t107 152t147 104t190 39q94 0 166 -52t125 -136t88 -191t57 -215t31 -208t9 -172q-12 -158 -46 -290t-94 -232t-149 -164t-213 -84q-120 0 -206 42t-147 112t-98 161t-57 189t-27 198t-7 186zM150 886q0 -64 3 -144t15 -162t35 -160 t65 -138t104 -97t152 -37q126 -10 209 31t134 123t77 200t42 266q0 58 -5 146t-19 185t-40 194t-67 175t-99 126t-138 48q-82 0 -149 -38t-119 -101t-90 -143t-62 -164t-36 -165t-12 -145zM880 1484q42 62 113 106t158 73t186 45t196 25t187 11t160 2q6 0 24 -1t39 -2t39 -2 t26 -1q10 -58 -13 -80t-59 -26t-75 2t-59 2q-26 -4 -83 -16t-127 -27t-148 -32t-149 -32t-127 -28t-82 -19q-44 -14 -49 -39t-5 -57q0 -54 7 -124t16 -138t18 -124t13 -82q10 -2 39 -2h39q62 0 121 10t118 23t120 23t125 10v-98q-26 0 -75 -5t-106 -15t-116 -22t-107 -25 t-78 -27t-30 -26v-556q126 0 250 8t249 18t250 18t251 8q0 -34 -21 -54t-50 -31t-60 -17t-49 -8q-10 -2 -66 -8t-139 -16t-184 -21t-200 -22t-187 -20t-146 -15q-8 -2 -24 -2q0 358 -23 721t-107 715z" />
<glyph unicode="&#x153;" horiz-adv-x="1616" d="M64 488q0 62 11 143t35 164t60 163t87 143t117 101t148 38q86 0 159 -59t125 -152t79 -207t21 -224q2 -160 -60 -285t-156 -203t-203 -104t-203 15t-157 155t-63 312zM164 478q6 -162 54 -250t117 -116t149 -2t149 94t118 171t55 231q4 96 -15 187t-55 161t-89 112 t-119 42q-64 0 -115 -33t-92 -87t-70 -123t-49 -139t-29 -135t-9 -113zM795 472q-1 80 7 156q0 80 35 177t94 181t136 141t159 57q44 0 89 -18t86 -49t74 -70t52 -81t20 -82t-23 -70l-562 -104q-10 -2 -18 -25t-14 -58t-10 -76t-6 -80t-3 -70t-1 -45q0 -76 36 -122t92 -70 t127 -32t140 -8t131 5t102 5q0 -12 -8 -25t-19 -25t-21 -21t-14 -11q-20 -6 -65 -15t-94 -17t-92 -14t-57 -6q-84 -16 -145 3t-104 64t-70 110t-40 140t-14 155zM982 836q70 -10 145 1t136 34t101 54t39 62t-50 57t-165 38q-24 2 -62 -24t-72 -65t-56 -83t-16 -74z" />
<glyph unicode="&#x178;" horiz-adv-x="1212" d="M12 1946l52 50q100 -108 173 -197t131 -168t107 -151t101 -145t113 -149t143 -162q16 74 31 166t31 191t35 202t42 198t52 177t65 142q4 2 13 2h13q8 0 23 -3t29 -9t22 -17t2 -25q-30 -62 -61 -165t-58 -233t-52 -281t-45 -305t-35 -307t-23 -287t-7 -243t11 -177 q-4 -28 -8 -43t-18 -23t-40 -9t-74 -1v896q-42 58 -109 144t-145 186t-160 206t-153 206t-125 187t-76 147zM266 2202q-10 40 1 62t33 33t48 13t48 2q20 0 46 -2t47 -13t32 -33t1 -62q-10 -36 -47 -71t-79 -35q-22 0 -43 10t-39 25t-30 34t-18 37zM660 2202q-10 40 1 62 t33 33t48 13t48 2q20 0 46 -2t47 -13t32 -33t1 -62q-4 -18 -17 -37t-30 -34t-38 -25t-41 -10q-44 0 -82 35t-48 71z" />
<glyph unicode="&#x2c6;" horiz-adv-x="794" d="M62 1532l356 484q48 -48 84 -104t68 -117t64 -125t72 -128q0 -18 -8 -25t-22 -11t-32 -8t-38 -16q-36 60 -55 95t-36 65t-39 65t-64 97q-36 -46 -70 -84t-67 -74t-66 -73t-69 -83z" />
<glyph unicode="&#x2dc;" horiz-adv-x="830" d="M114 1338q0 126 40 177t132 51q50 -24 84 -57t61 -61t50 -45t50 -6t61 55t84 138q16 0 36 -13t20 -41q-44 -110 -85 -164t-79 -69t-75 1t-71 45t-67 62t-65 55q-28 22 -46 7t-31 -45t-23 -66t-21 -58t-24 -18t-31 52z" />
<glyph unicode="&#x2000;" horiz-adv-x="1300" />
<glyph unicode="&#x2001;" horiz-adv-x="2600" />
<glyph unicode="&#x2002;" horiz-adv-x="1300" />
<glyph unicode="&#x2003;" horiz-adv-x="2600" />
<glyph unicode="&#x2004;" horiz-adv-x="866" />
<glyph unicode="&#x2005;" horiz-adv-x="650" />
<glyph unicode="&#x2006;" horiz-adv-x="433" />
<glyph unicode="&#x2007;" horiz-adv-x="433" />
<glyph unicode="&#x2008;" horiz-adv-x="325" />
<glyph unicode="&#x2009;" horiz-adv-x="520" />
<glyph unicode="&#x200a;" horiz-adv-x="144" />
<glyph unicode="&#x2010;" horiz-adv-x="1038" d="M38 564l52 50q2 2 61 11t153 20t211 22t237 21q12 0 43 2t65 3t65 2t43 1q0 -34 -14 -64t-48 -46q-64 -6 -159 -16t-197 -21t-198 -21t-160 -16q-4 0 -25 -1t-31 -1q-34 0 -58 5t-40 49z" />
<glyph unicode="&#x2011;" horiz-adv-x="1038" d="M38 564l52 50q2 2 61 11t153 20t211 22t237 21q12 0 43 2t65 3t65 2t43 1q0 -34 -14 -64t-48 -46q-64 -6 -159 -16t-197 -21t-198 -21t-160 -16q-4 0 -25 -1t-31 -1q-34 0 -58 5t-40 49z" />
<glyph unicode="&#x2012;" horiz-adv-x="1038" d="M38 564l52 50q2 2 61 11t153 20t211 22t237 21q12 0 43 2t65 3t65 2t43 1q0 -34 -14 -64t-48 -46q-64 -6 -159 -16t-197 -21t-198 -21t-160 -16q-4 0 -25 -1t-31 -1q-34 0 -58 5t-40 49z" />
<glyph unicode="&#x2013;" horiz-adv-x="824" d="M38 564l52 50q2 2 26 5t76 7t134 10t202 16q12 0 43 2t66 3t66 2t43 1q0 -36 -15 -65t-49 -47q-126 -12 -244 -19t-246 -17q-4 0 -25 -1t-31 -1q-34 0 -58 5t-40 49z" />
<glyph unicode="&#x2014;" horiz-adv-x="1172" d="M15 552q1 22 13 62q4 4 71 7t170 5t229 4t249 5t230 8t173 13q0 -36 -14 -65t-48 -47q-50 -2 -131 -4t-178 -6t-202 -8t-201 -8t-176 -6t-126 -2q-16 0 -30 1t-22 10t-7 31z" />
<glyph unicode="&#x2018;" horiz-adv-x="244" d="M38 1844q0 12 21 31t31 19q68 -44 87 -114t19 -144q0 -16 1 -39t-2 -46t-15 -42t-38 -25q-22 6 -40 57t-33 112t-23 117t-8 74z" />
<glyph unicode="&#x2019;" horiz-adv-x="244" d="M38 1844q0 12 21 31t31 19q68 -44 87 -114t19 -144q0 -16 1 -39t-2 -46t-15 -42t-38 -25q-22 6 -40 57t-33 112t-23 117t-8 74z" />
<glyph unicode="&#x201a;" horiz-adv-x="328" d="M76 180q0 12 20 32t30 20q70 -46 89 -115t19 -143q0 -16 1 -40t-2 -47t-16 -41t-39 -24q-22 6 -40 56t-32 112t-22 118t-8 72z" />
<glyph unicode="&#x201c;" horiz-adv-x="576" d="M50 1612q0 34 5 84t22 97t47 80t80 33v-452q-72 0 -113 44t-41 114zM354 1688q0 22 1 51t10 55t27 44t54 18q0 -16 2 -54t4 -81t4 -81t4 -52q0 -6 9 -29t18 -48t17 -48t8 -29t-6 -14t-14 -17t-17 -15t-15 -6q-36 44 -57 80t-32 71t-14 71t-3 84z" />
<glyph unicode="&#x201d;" horiz-adv-x="666" d="M52 1690q0 12 20 31t30 19q82 -48 119 -133t37 -175q0 -20 -2 -47t-10 -52t-24 -42t-42 -17q-4 0 -13 2t-13 4q-2 18 -8 62t-15 93t-17 92t-12 61q0 4 -8 19t-17 32t-17 32t-8 19zM346 1758q76 0 127 -47t81 -114t43 -140t13 -125h-98q-6 64 -32 117t-56 103t-54 99 t-24 107z" />
<glyph unicode="&#x201e;" horiz-adv-x="576" d="M58 254q6 60 12 109t14 73t19 16t25 -64t33 -166t43 -288q-36 0 -63 37t-46 88t-28 105t-9 90zM354 168q0 22 1 51t10 55t27 44t54 18q0 -16 2 -54t4 -81t4 -81t4 -52q0 -6 9 -28t18 -48t17 -49t8 -29t-6 -14t-14 -17t-17 -15t-15 -6q-36 44 -57 80t-32 71t-14 72t-3 83z " />
<glyph unicode="&#x2022;" horiz-adv-x="512" d="M160 594q-10 40 0 74t30 60t45 40t45 14t46 -11t48 -32t33 -52t1 -71q-4 -18 -18 -40t-33 -43t-41 -35t-42 -14q-42 0 -73 37t-41 73z" />
<glyph unicode="&#x2026;" horiz-adv-x="1180" d="M86 102q-10 40 1 62t33 33t48 13t48 2q20 0 46 -2t47 -13t32 -33t1 -62q-4 -18 -17 -36t-30 -34t-38 -26t-41 -10q-22 0 -43 10t-39 26t-31 34t-17 36zM480 102q-10 40 1 62t32 33t47 13t48 2q20 0 46 -2t48 -13t33 -33t1 -62q-6 -18 -18 -36t-30 -34t-39 -26t-41 -10 q-44 0 -81 36t-47 70zM872 102q-10 40 1 62t33 33t48 13t48 2q20 0 46 -2t47 -13t32 -33t1 -62q-4 -18 -17 -36t-30 -34t-38 -26t-41 -10q-22 0 -43 10t-39 26t-31 34t-17 36z" />
<glyph unicode="&#x202f;" horiz-adv-x="520" />
<glyph unicode="&#x2039;" horiz-adv-x="960" d="M86 436q0 4 1 13t3 11l564 768h62q0 -66 -29 -138t-73 -142t-99 -137t-108 -124t-97 -103t-66 -72v-102q22 -8 66 -28t100 -45t117 -52t116 -53t99 -47t64 -31q8 -4 24 -17t32 -30t30 -32t18 -23q-16 -32 -32 -43t-44 -11q-20 0 -84 29t-147 73t-174 96t-167 101t-126 87 t-50 52z" />
<glyph unicode="&#x203a;" horiz-adv-x="870" d="M78 1228v154q20 -18 64 -54t100 -82t117 -96t117 -95t100 -81t66 -52q24 -18 59 -33t68 -34t57 -45t24 -66q0 -4 -1 -14t-3 -14q-18 -24 -53 -77t-81 -118t-96 -138t-96 -138t-82 -117t-52 -76q-22 -30 -44 -47t-60 -17v114l410 614z" />
<glyph unicode="&#x205f;" horiz-adv-x="650" />
<glyph unicode="&#x20ac;" horiz-adv-x="1324" d="M30 826v78q70 8 156 18t178 18t186 14t182 6v-108zM40 622q28 8 90 16t139 16t160 13t154 5t121 -5t62 -19v-66q0 -2 -40 -3t-104 -2t-145 -4t-160 -6t-150 -9t-117 -12q-2 0 -2 12v26t-2 26t-6 12zM204 692q0 82 17 185t51 208t86 205t121 179t155 126t190 47 q100 -16 191 -43t147 -61t65 -70t-57 -70q-58 0 -99 22t-80 48t-84 48t-111 22q-90 0 -158 -47t-118 -123t-83 -172t-54 -192t-29 -186t-8 -152q-10 -90 -1 -187t44 -178t102 -136t177 -63q68 0 153 22t170 53t162 67t129 64v-104q-2 -8 -33 -28t-82 -45t-114 -50t-128 -46 t-126 -32t-105 -5q-148 0 -242 63t-150 163t-77 224t-21 244z" />
<glyph unicode="&#x2122;" horiz-adv-x="2304" d="M8 1448l44 140q2 2 41 6t102 11t143 15t164 16t166 16t150 14q2 0 41 5t87 11t90 10t50 4q10 0 18 -1t16 -1q0 16 -1 30t-1 30q18 0 35 3t31 4t25 -4t19 -23l360 -812l306 768q6 14 20 24t32 17t36 11t32 4q2 0 2 -8t5 -56t18 -150t39 -290t68 -478t106 -712 q-12 -24 -29 -33t-32 -6t-27 13t-14 26l-204 1432l-308 -768h-102l-256 512v-1176l-116 -18q-6 80 -10 194t-7 247t-6 278t-6 288t-6 275t-5 240l-510 -72q-6 -168 5 -352t27 -372t30 -372t14 -354q0 -22 -14 -32t-34 -12t-42 1t-36 9q-8 36 -16 121t-16 199t-17 248 t-17 267t-15 255t-13 214t-10 142t-6 38z" />
<glyph unicode="&#x25fc;" horiz-adv-x="1330" d="M0 0v1330h1330v-1330h-1330z" />
<glyph unicode="&#xfb01;" horiz-adv-x="1260" d="M26 768l360 154q-50 402 -35 670t78 431t165 239t228 96q98 0 187 -39t158 -105t110 -155t41 -187q-44 0 -80 28t-68 71t-64 92t-70 92t-84 71t-106 28q-54 -12 -106 -45t-96 -94t-78 -156t-53 -234t-20 -326t23 -431l330 4q8 -36 9 -61t-39 -41q-28 -12 -74 -21t-93 -16 t-87 -11t-54 -6q-4 -126 1 -239t8 -215t-1 -192t-28 -172h-14h-25h-25h-12q-12 0 -24 -3t-21 -4t-14 3t-5 20q24 170 31 282t6 193t-4 144t1 133q-34 0 -75 -16t-83 -36t-84 -36t-76 -16q-14 0 -18 10t-6 26t-4 34t-10 36zM656 1494q0 18 3 41t12 42t24 32t37 13q30 0 63 -2 t62 -12t47 -30t18 -56q0 -66 -47 -115t-117 -49q-54 0 -78 41t-24 95zM802 1467q0 -13 10 -13t10 13t-10 13t-10 -13zM810 1018q34 0 56 2t38 -28q8 -118 19 -242t21 -250t15 -252t1 -246q0 -16 -8 -20t-23 -3t-35 2t-44 -5z" />
<glyph unicode="&#xfb02;" horiz-adv-x="1190" d="M26 768l360 154q-50 402 -35 670t78 431t165 239t228 96q98 0 187 -39t158 -105t110 -155t41 -187q-44 0 -80 28t-68 71t-64 92t-70 92t-84 71t-106 28q-54 -12 -106 -45t-96 -94t-78 -156t-53 -234t-20 -326t23 -431l330 4q8 -36 9 -61t-39 -41q-28 -12 -74 -21t-93 -16 t-87 -11t-54 -6q-4 -126 1 -239t8 -215t-1 -192t-28 -172h-14h-25h-25h-12q-12 0 -24 -3t-21 -4t-14 3t-5 20q24 170 31 282t6 193t-4 144t1 133q-34 0 -75 -16t-83 -36t-84 -36t-76 -16q-14 0 -18 10t-6 26t-4 34t-10 36zM778 1808q0 12 1 43t3 65t3 65t1 43q38 -4 65 -19 t43 -53q2 -50 6 -140t8 -207t9 -253t10 -275t9 -275t8 -253t7 -207t5 -140q0 -4 -1 -18t-2 -32t-3 -35t-2 -25q-2 -16 -2 -39t-5 -45t-18 -39t-39 -19l-46 56q-2 2 -6 99t-10 253t-12 352t-12 396t-12 384t-8 318z" />
</font>
</defs>
</svg>
