<svg xmlns="http://www.w3.org/2000/svg" viewBox="0 0 845.76 155.84"><defs><style>.cls-1{opacity:0.6;}.cls-2{fill:#1d1d1b;}.cls-3{fill:#fab42a;}</style></defs><title>Middel 1</title><g id="Laag_2" data-name="Laag 2"><g id="Laag_1-2" data-name="Laag 1"><path d="M428.59,84.68c-8.07-7.57-20.08-14-35.7-19-8.23-2.7-14.41-5.3-18.37-7.73-3.58-2.2-5.33-4.71-5.33-7.65a7.48,7.48,0,0,1,1.76-4.8,13.14,13.14,0,0,1,5.58-3.78,25.45,25.45,0,0,1,9.31-1.53c5.32,0,9.4,1.27,12.13,3.76s4,5.79,4,10.1a1.63,1.63,0,0,0,1.63,1.64h35.81A1.63,1.63,0,0,0,441.08,54c0-9.4-2.38-17.63-7.07-24.46A44.69,44.69,0,0,0,414.6,13.93,69.57,69.57,0,0,0,386.71,8.6a80,80,0,0,0-28.79,4.92c-8.58,3.3-15.4,8.1-20.28,14.27a34.73,34.73,0,0,0-7.43,22.09c0,8.54,2.33,16,6.92,22.07a54.06,54.06,0,0,0,17.42,14.83,155.87,155.87,0,0,0,24.8,10.56,96.38,96.38,0,0,1,14.79,6c3.11,1.72,5.18,3.42,6.18,5.05a11.67,11.67,0,0,1,1.5,6.13,8.56,8.56,0,0,1-3.41,6.87c-2.35,1.95-6.16,2.94-11.32,2.94a37.44,37.44,0,0,1-12.62-1.77,12.38,12.38,0,0,1-6.79-5.67c-1.55-2.75-2.34-6.63-2.34-11.52a1.63,1.63,0,0,0-1.63-1.63H327.62a1.63,1.63,0,0,0-1.64,1.63c0,11.36,3,21,8.81,28.53a51.22,51.22,0,0,0,22.7,16.65,82.82,82.82,0,0,0,29.6,5.25c10.75,0,20.24-1.59,28.22-4.73s14.45-7.94,18.92-14.14S441,123.14,441,114.36C441,102.4,436.82,92.42,428.59,84.68Z"/><path d="M322.79,121.68H261.9l62-90.41a1.66,1.66,0,0,0,.28-.92V12.16a1.63,1.63,0,0,0-1.63-1.64H243.23l-16,32.32.24,0h46.35l-62.59,89.72a1.57,1.57,0,0,0-.3.94v18.76a1.63,1.63,0,0,0,1.64,1.64H322.79a1.63,1.63,0,0,0,1.64-1.64v-29A1.63,1.63,0,0,0,322.79,121.68Z"/><path d="M120.4,74.42H62.17a1.64,1.64,0,0,0-1.63,1.64v25.41a1.63,1.63,0,0,0,1.63,1.63h20.6v16.62A20.8,20.8,0,0,1,77,122.28,36.53,36.53,0,0,1,66.5,123.6c-9.53,0-16.18-2.9-20.36-8.87S39.75,99,39.75,85.88V78.47c0-12.75,2.18-22.38,6.49-28.62,4.15-6,9.57-9,16.54-9.1v.09l52,2L98.69,10.38,62.78,8.5h-.9A62.06,62.06,0,0,0,30,16.76C20.62,22.26,13.2,30.4,7.92,41S0,64.16,0,78.66v7.22c0,14.62,2.62,27.33,7.77,37.77a54.89,54.89,0,0,0,22.22,24c9.51,5.41,20.85,8.15,33.72,8.15a105.91,105.91,0,0,0,25.86-2.93,83.75,83.75,0,0,0,19.59-7.32,50.22,50.22,0,0,0,12.43-9.13,1.6,1.6,0,0,0,.45-1.11V76.06A1.65,1.65,0,0,0,120.4,74.42Z"/><g class="cls-1"><path class="cls-2" d="M449.76,8.45A8.68,8.68,0,1,1,441.11,0,8.49,8.49,0,0,1,449.76,8.45Zm-15.19,0a6.54,6.54,0,0,0,6.59,6.74A6.46,6.46,0,0,0,447.6,8.5a6.52,6.52,0,1,0-13-.05Zm5.2,4.43h-2V4.43a17.5,17.5,0,0,1,3.25-.26,5.26,5.26,0,0,1,2.93.62,2.32,2.32,0,0,1,.83,1.85,2.16,2.16,0,0,1-1.75,2v.1a2.51,2.51,0,0,1,1.54,2.07,6.46,6.46,0,0,0,.62,2.11h-2.11a6.91,6.91,0,0,1-.67-2.06c-.16-.93-.67-1.34-1.75-1.34h-.93Zm.05-4.79h.93c1.08,0,1.95-.36,1.95-1.24s-.56-1.29-1.8-1.29a4.2,4.2,0,0,0-1.08.11Z"/></g><path class="cls-3" d="M535.63,72.56,510.85,47.77V99.65l24.78-24.78A1.63,1.63,0,0,0,535.63,72.56Z"/><g class="cls-1"><path class="cls-2" d="M601.71,50h-5.42V76.51H592V50h-5.41V46.17h15.17Z"/><path class="cls-2" d="M611.61,62.42V73.25h7.58v3.26H607.27V46.17h11.92v3.25h-7.58v9.75H617v3.25Z"/><path class="cls-2" d="M633.1,76.81c-6.51,0-8.33-4.64-8.33-11.16V57c0-6.52,1.82-11.14,8.33-11.14,6.11,0,8.08,4,8.08,10.06h-4.34c0-3.69-.11-6.5-3.74-6.5s-4,2.81-4,6.5V66.75c0,3.32.69,6.5,4,6.5s3.74-3.18,3.74-6.5V65.67h4.34v1.08C641.18,72.78,639.18,76.81,633.1,76.81Z"/><path class="cls-2" d="M651.86,62.42V76.51h-4.34V46.17h4.34v13h7.58v-13h4.34V76.51h-4.34V62.42Z"/><path class="cls-2" d="M675.91,56.32V76.51h-4.33V46.17h3.25l7.58,18.76V46.17h4.34V76.51h-3.08Z"/><path class="cls-2" d="M699.09,46.17V76.51h-4.34V46.17Z"/><path class="cls-2" d="M714,49.42a3,3,0,0,0-3.25,3.3A5.47,5.47,0,0,0,712.93,57l5.42,4.34a10.63,10.63,0,0,1,4.33,8.38c0,4.5-3,7.09-7.58,7.09-5.67,0-8.35-3.67-8.67-9l4.34-1.09c.15,3.14,1,6.5,4.33,6.5q3.25,0,3.25-3.25c0-2.72-1.68-4.14-3.25-5.41l-5.42-4.34a8.74,8.74,0,0,1-3.27-7.07c0-4.51,3.05-7.32,7.61-7.32,5.36,0,8.27,3,8.66,7.89l-4.33,1.08C718.16,52,717.08,49.42,714,49.42Z"/><path class="cls-2" d="M737.1,76.81c-6.51,0-8.33-4.64-8.33-11.16V57c0-6.52,1.82-11.14,8.33-11.14,6.12,0,8.08,4,8.08,10.06h-4.33c0-3.69-.12-6.5-3.75-6.5s-4,2.81-4,6.5V66.75c0,3.32.69,6.5,4,6.5s3.75-3.18,3.75-6.5V65.67h4.33v1.08C745.18,72.78,743.18,76.81,737.1,76.81Z"/><path class="cls-2" d="M755.86,62.42V76.51h-4.33V46.17h4.33v13h7.58v-13h4.34V76.51h-4.34V62.42Z"/><path class="cls-2" d="M779.91,62.42V73.25h7.59v3.26H775.58V46.17H787.5v3.25h-7.59v9.75h5.42v3.25Z"/><path class="cls-2" d="M594.83,104.19h-3.25v14.08h-4.33V87.93h7.58c5.42,0,7.59,3.25,7.59,8.67C602.42,101.56,599.72,104.19,594.83,104.19Zm-2.16-13h-1.09v9.76h1.09c3.65,0,5.41-.71,5.41-4.34C598.08,92.39,597,91.18,592.67,91.18Z"/><path class="cls-2" d="M619.72,103.1l4.87,15.17h-4.3l-4.37-14.08h-3.25v14.08h-4.33V87.93h5.42c6.18,0,9.75,2.1,9.75,8.13C623.51,99.63,622.24,102.19,619.72,103.1Zm-6-11.92h-1.09v9.76h1.09c3.5,0,5.41-1.34,5.41-4.88S617.26,91.18,613.76,91.18Z"/><path class="cls-2" d="M645.85,97.52v11c0,6.1-2.2,10.06-8.36,10.06s-8.36-3.88-8.36-10.06v-11c0-6.18,2.15-9.89,8.36-9.89S645.85,91.42,645.85,97.52Zm-12.39-1.09V109.6c0,3.26.78,5.42,4,5.42s4-2.16,4-5.42V96.43c0-3.25-.78-5.25-4-5.25S633.46,93.18,633.46,96.43Z"/><path class="cls-2" d="M657.44,91.18v9.76h5.42v3.25h-5.42v14.08h-4.33V87.93H665v3.25Z"/><path class="cls-2" d="M674.81,104.19V115h7.59v3.25H670.48V87.93H682.4v3.25h-7.59v9.76h5.42v3.25Z"/><path class="cls-2" d="M695.35,91.18a3,3,0,0,0-3.26,3.31,5.48,5.48,0,0,0,2.17,4.28l5.42,4.33a10.66,10.66,0,0,1,4.33,8.38c0,4.51-3,7.1-7.58,7.1-5.67,0-8.35-3.68-8.67-9l4.33-1.08c.16,3.13,1,6.5,4.34,6.5q3.26,0,3.25-3.25c0-2.72-1.68-4.15-3.25-5.42L691,102a8.76,8.76,0,0,1-3.27-7.08c0-4.5,3-7.31,7.61-7.31,5.36,0,8.27,3,8.66,7.89l-4.33,1.08C699.49,93.72,698.41,91.18,695.35,91.18Z"/><path class="cls-2" d="M717.47,91.18a3,3,0,0,0-3.25,3.31,5.45,5.45,0,0,0,2.17,4.28l5.41,4.33a10.66,10.66,0,0,1,4.34,8.38c0,4.51-3,7.1-7.59,7.1-5.67,0-8.34-3.68-8.67-9l4.34-1.08c.15,3.13,1,6.5,4.33,6.5q3.26,0,3.25-3.25c0-2.72-1.67-4.15-3.25-5.42L713.13,102a8.76,8.76,0,0,1-3.26-7.08c0-4.5,3-7.31,7.6-7.31,5.37,0,8.28,3,8.67,7.89L721.8,96.6C721.62,93.72,720.53,91.18,717.47,91.18Z"/><path class="cls-2" d="M737.31,87.93v30.34H733V87.93Z"/><path class="cls-2" d="M761.6,97.52v11c0,6.1-2.2,10.06-8.37,10.06s-8.36-3.88-8.36-10.06v-11c0-6.18,2.15-9.89,8.36-9.89S761.6,91.42,761.6,97.52Zm-12.39-1.09V109.6c0,3.26.77,5.42,4,5.42s4-2.16,4-5.42V96.43c0-3.25-.77-5.25-4-5.25S749.21,93.18,749.21,96.43Z"/><path class="cls-2" d="M773.19,98.09v20.18h-4.33V87.93h3.25l7.58,18.76V87.93H784v30.34H781Z"/><path class="cls-2" d="M794.11,118.27h-4.33l6.5-30.34h4.34l6.5,30.34h-4.34l-1.62-7.58h-5.42Zm4.34-23.83-2.17,13h4.34Z"/><path class="cls-2" d="M812.87,87.93h4.33V115h7.59v3.25H812.87Z"/><path class="cls-2" d="M837.09,91.18a3,3,0,0,0-3.25,3.31A5.45,5.45,0,0,0,836,98.77l5.42,4.33a10.69,10.69,0,0,1,4.33,8.38c0,4.51-3,7.1-7.58,7.1-5.67,0-8.35-3.68-8.67-9l4.33-1.08c.15,3.13,1,6.5,4.34,6.5,2.16,0,3.25-1.08,3.25-3.25,0-2.72-1.68-4.15-3.25-5.42L832.76,102a8.76,8.76,0,0,1-3.27-7.08c0-4.5,3-7.31,7.6-7.31,5.37,0,8.28,3,8.67,7.89l-4.33,1.08C841.24,93.72,840.16,91.18,837.09,91.18Z"/></g><path d="M235.37,11.29a1.64,1.64,0,0,0-1.39-.77H195.39a1.66,1.66,0,0,0-1.52,1L171,66.24,148.1,11.52a1.64,1.64,0,0,0-1.51-1H108a1.64,1.64,0,0,0-1.47,2.36l44.58,90v43.75l39.85-17V102.91l44.49-90A1.64,1.64,0,0,0,235.37,11.29Z"/><path class="cls-3" d="M151,150.48v1.3s-.21,2.18,1.63,2.18h36.59c1.62,0,1.62-2.18,1.62-2.18V133.52Z"/></g></g></svg>